<svg width="202" height="167" viewBox="0 0 202 167" fill="none" xmlns="http://www.w3.org/2000/svg">
<path d="M42.0012 81.8717C42.0054 81.7674 42.0556 81.7214 42.1518 81.7214L44.9588 81.8049C45.2349 81.8133 45.4734 81.855 45.6658 81.9302C45.8582 82.0053 46.013 82.1097 46.1301 82.2433C46.2473 82.3769 46.3268 82.5314 46.377 82.7193C46.4272 82.903 46.4481 83.1075 46.4397 83.333L46.4146 84.1012C46.4062 84.3266 46.3728 84.5312 46.3142 84.7107C46.2556 84.8903 46.1636 85.0447 46.0381 85.17C45.9126 85.2952 45.7536 85.3871 45.557 85.4539C45.3604 85.5165 45.122 85.5457 44.8459 85.5374L43.3357 85.4915L43.0219 84.6105H42.9801L42.955 85.4831L41.8966 85.4497L42.0012 81.8717ZM42.9801 84.5145L44.7747 84.5688C44.9755 84.573 45.122 84.5354 45.2098 84.4477C45.2977 84.36 45.3437 84.2056 45.352 83.9801L45.373 83.3539C45.3813 83.1201 45.3437 82.9614 45.26 82.8737C45.1763 82.7861 45.0341 82.7401 44.8333 82.736L43.1181 82.6859C43.093 82.6859 43.0763 82.6942 43.0596 82.7067C43.047 82.7234 43.0387 82.7401 43.0387 82.761L42.9801 84.5145Z" fill="#F1F1F4"/>
<path d="M47.9583 83.4709H47.9206L47.8871 84.5898C47.8871 84.6357 47.9081 84.6607 47.9583 84.6649L51.1125 84.761L51.0832 85.7296L46.9459 85.6043C46.8455 85.6001 46.7995 85.55 46.7995 85.4457L46.9041 82.018C46.9082 81.9136 46.9584 81.8677 47.0588 81.8677L51.079 81.9888C51.1836 81.9929 51.2338 82.043 51.2296 82.1474L51.2003 83.116L50.2089 83.45H50.1671L50.1838 82.9532C50.1838 82.9156 50.1671 82.8947 50.1336 82.8947L48.0126 82.8321C47.9834 82.8321 47.9666 82.8405 47.9583 82.853C47.9499 82.8697 47.9457 82.8864 47.9457 82.9031L47.9332 83.3707L49.6818 83.425L49.6567 84.1848L48.1925 84.1389L47.9583 83.4709Z" fill="#F1F1F4"/>
<path d="M54.9695 83.4038H54.9277L54.9402 82.9947C54.9402 82.9529 54.9235 82.9321 54.8817 82.9321L52.9071 82.8736C52.836 82.8736 52.7858 82.8861 52.7565 82.9154C52.7272 82.9446 52.7147 82.9905 52.7105 83.049L52.7063 83.1408C52.7021 83.2118 52.7147 83.2577 52.7398 83.2786C52.7649 83.2995 52.8109 83.3162 52.8778 83.3287L55.1912 83.7211C55.3376 83.7462 55.4631 83.7838 55.5635 83.8255C55.6639 83.8714 55.7476 83.9299 55.8104 84.0009C55.8731 84.0718 55.9149 84.1595 55.94 84.2639C55.9651 84.3683 55.9735 84.4893 55.9693 84.6313L55.961 84.9277C55.9568 85.0822 55.9317 85.2158 55.8898 85.3327C55.848 85.4496 55.7853 85.5456 55.6974 85.6249C55.6096 85.7043 55.4924 85.7585 55.3544 85.7961C55.2121 85.8337 55.0406 85.8462 54.8356 85.842L51.5057 85.7418L51.535 84.7732L54.5219 84.8651C54.6097 84.8693 54.6725 84.8526 54.7018 84.8233C54.7311 84.7899 54.7478 84.7357 54.752 84.6522L54.7562 84.5478C54.7562 84.481 54.7478 84.4351 54.7269 84.41C54.706 84.385 54.6641 84.3641 54.5972 84.3557L52.3633 84.005C52.2127 83.98 52.083 83.9466 51.9784 83.9007C51.8738 83.8547 51.786 83.8005 51.7191 83.7295C51.6521 83.6585 51.6061 83.575 51.5768 83.4748C51.5475 83.3746 51.5392 83.2577 51.5434 83.1199L51.5517 82.8569C51.5601 82.5855 51.6396 82.381 51.786 82.2348C51.9366 82.0887 52.175 82.0219 52.5139 82.0344L55.8396 82.1346C55.9442 82.1388 55.9986 82.1931 55.9944 82.3016L55.9693 83.0698L54.9695 83.4038Z" fill="#F1F1F4"/>
<path d="M56.3751 85.888L56.4881 82.1555L57.5465 82.1889L57.4335 85.9214L56.3751 85.888Z" fill="#F1F1F4"/>
<path d="M61.3616 84.4393C61.3616 84.3851 61.3616 84.3266 61.3575 84.2682C61.3533 84.2097 61.3491 84.1554 61.3449 84.1095V84.0636L62.3949 84.097L62.3405 85.9298C62.3364 86.0258 62.2945 86.0718 62.2067 86.0676L59.3913 85.9841C59.1152 85.9757 58.8767 85.934 58.6843 85.8588C58.4919 85.7837 58.3371 85.6793 58.22 85.5457C58.1028 85.4121 58.0192 85.2576 57.9731 85.0698C57.9229 84.8861 57.902 84.6815 57.9104 84.456L57.9355 83.6878C57.9439 83.4624 57.9773 83.2578 58.0359 83.0783C58.0945 82.8988 58.1865 82.7443 58.312 82.619C58.4375 82.4938 58.5965 82.4019 58.7931 82.3351C58.9897 82.2725 59.2281 82.2433 59.5042 82.2516L62.3029 82.3351C62.4033 82.3393 62.4493 82.3894 62.4493 82.4938L62.4242 83.2996L61.4328 83.6294H61.3909L61.4035 83.2703C61.4035 83.2369 61.3909 83.2202 61.3575 83.2161L59.5712 83.1618C59.4666 83.1576 59.3829 83.166 59.3118 83.1827C59.2407 83.1994 59.1821 83.2286 59.1361 83.2745C59.0901 83.3204 59.0566 83.3789 59.0315 83.4582C59.0106 83.5334 58.9939 83.6294 58.9897 83.7421L58.9688 84.3976C58.9604 84.623 58.9981 84.7817 59.0817 84.8735C59.1654 84.9654 59.3076 85.0155 59.5084 85.0197L61.2822 85.0739C61.3198 85.0739 61.3407 85.0572 61.3407 85.0155L61.3616 84.4393Z" fill="#F1F1F4"/>
<path d="M64.633 82.4019C64.7125 82.4061 64.7669 82.4186 64.8004 82.4437C64.8338 82.4687 64.8589 82.5063 64.8882 82.5606L66.2269 85.2868C66.2478 85.3286 66.2813 85.3495 66.3231 85.3495H66.3775C66.4318 85.3495 66.4611 85.3244 66.4611 85.2701L66.5448 82.4604L67.507 82.4896L67.3982 86.0759C67.394 86.1761 67.348 86.222 67.2518 86.2179L65.729 86.1719C65.6579 86.1719 65.6036 86.1594 65.5701 86.1344C65.5324 86.1135 65.5032 86.0717 65.4739 86.0133L64.085 83.2912C64.0641 83.2494 64.0348 83.2286 63.9888 83.2286H63.9386C63.8842 83.2286 63.8549 83.2536 63.8549 83.3079L63.7713 86.1135L62.8091 86.0843L62.9179 82.5021C62.922 82.3977 62.968 82.3518 63.0643 82.3518L64.633 82.4019Z" fill="#F1F1F4"/>
<path d="M138.407 127.398C163.732 102.123 163.732 61.1447 138.407 35.8699C113.081 10.5951 72.0211 10.5951 46.6958 35.8699C21.3705 61.1447 21.3705 102.123 46.6958 127.398C72.0211 152.673 113.081 152.673 138.407 127.398Z" fill="#E0F3FF"/>
<path d="M44.8835 77.4923C43.2897 74.7535 40.4701 73.6262 40.4701 73.6262L39.487 74.0855L41.7 78.0935C41.403 79.634 40.3446 80.4816 40.3446 80.4816L40.3404 80.4732C40.3404 80.4732 39.0101 80.7404 37.6338 79.9764L35.973 75.7095L34.9899 76.1688C34.9899 76.1688 34.0487 79.0495 35.128 82.0305C35.128 82.0305 35.5463 82.9949 35.6216 83.0826C36.0107 83.5377 37.0272 84.0595 38.9934 83.9385L45.7704 96.8434C45.2056 97.812 45.1094 99.0269 45.6198 100.112C46.4481 101.883 48.5565 102.647 50.3302 101.82C52.1039 100.993 52.8695 98.8891 52.0412 97.1189C51.5308 96.0293 50.5352 95.3237 49.4308 95.1358L43.8628 81.6714C45.1889 80.277 45.4692 79.179 45.3688 78.5444C45.352 78.4066 44.8835 77.4923 44.8835 77.4923ZM50.4557 99.7492L48.6611 100.588L47.0379 99.4569L47.2094 97.4863L49.0041 96.6472L50.6272 97.7786L50.4557 99.7492Z" fill="url(#paint0_linear_5_671)"/>
<path d="M45.373 78.5443C43.7791 75.8055 40.9595 74.6782 40.9595 74.6782L39.9764 75.1375L42.1894 79.1455C41.8924 80.6861 40.834 81.5336 40.834 81.5336L40.8299 81.5252C40.8299 81.5252 39.4996 81.7924 38.1232 81.0284L36.4625 76.7615L35.4794 77.2208C35.4794 77.2208 34.5381 80.1016 35.6174 83.0825C35.6174 83.0825 37.1485 85.1324 39.4786 84.9905L46.2556 97.8954C45.6909 98.864 45.5947 100.079 46.105 101.164C46.9333 102.935 49.0417 103.699 50.8155 102.872C52.5892 102.045 53.3547 99.9412 52.5264 98.1709C52.0161 97.0813 51.0205 96.3757 49.9161 96.1878L44.348 82.7234C45.967 81.0326 45.373 78.5443 45.373 78.5443ZM50.9493 100.801L49.1547 101.64L47.5315 100.509L47.7031 98.5384L49.4977 97.6992L51.1208 98.8306L50.9493 100.801Z" fill="url(#paint1_linear_5_671)"/>
<path d="M35.9739 75.711L34.9923 76.1687L35.4846 77.2202L36.4662 76.7625L35.9739 75.711Z" fill="#E5E2FF"/>
<path d="M40.4659 73.6246L39.4842 74.0823L39.9765 75.1338L40.9581 74.6761L40.4659 73.6246Z" fill="#E5E2FF"/>
<path d="M50.4607 99.7473L48.6642 100.585L49.1564 101.637L50.9529 100.799L50.4607 99.7473Z" fill="#E5E2FF"/>
<path d="M40.9344 85.9468L46.4104 96.4469C47.8495 96.5137 48.6192 95.4157 48.6192 95.4157L44.164 84.4396C42.1643 84.3686 40.9344 85.9468 40.9344 85.9468ZM48.1967 95.5033C48.0377 95.6411 47.7951 95.8248 47.4897 95.9668C47.2471 96.0795 46.9919 96.1546 46.7325 96.1922L41.2482 85.9092C41.5159 85.6712 41.9761 85.3205 42.5659 85.045C43.0094 84.8404 43.4612 84.7068 43.9213 84.6442L48.1967 95.5033Z" fill="url(#paint2_linear_5_671)"/>
<path d="M48.1967 95.5032L48.6192 95.4155C48.6192 95.4155 47.9917 96.5261 46.4104 96.4468L46.7325 96.1921C46.7325 96.1921 47.5148 96.1002 48.1967 95.5032Z" fill="#E5E2FF"/>
<path opacity="0.62" d="M40.9344 85.9466L41.2482 85.9049C41.2482 85.9049 42.1853 84.9363 43.9213 84.644L44.1598 84.4436C44.1598 84.4436 43.4612 84.3225 42.3735 84.8277C41.29 85.3329 40.9344 85.9466 40.9344 85.9466Z" fill="url(#paint3_linear_5_671)"/>
<path opacity="0.62" d="M39.4828 84.9863C39.4828 84.9863 42.1141 84.5187 44.3606 82.7192L45.0718 84.4393C45.0718 84.4393 44.2644 83.6419 42.4906 84.3642C40.4199 85.2075 40.5328 86.8692 40.5328 86.8692L39.4828 84.9863Z" fill="url(#paint4_linear_5_671)"/>
<path opacity="0.5" d="M45.0718 84.4436C44.5656 84.0804 43.9883 84.072 43.9883 84.072L49.2886 96.8475L49.9286 96.1879L45.0718 84.4436Z" fill="url(#paint5_linear_5_671)"/>
<path d="M45.0718 84.4436C45.0718 84.4436 44.5154 86.1512 46.1134 86.9611L45.0718 84.4436Z" fill="white"/>
<path d="M124.84 167H105.178C103.12 155.594 98.334 140.752 98.334 140.752C97.171 140.063 94.8994 140.91 94.8994 140.91L87.7125 167H69.7492C68.7954 150.901 77.6223 132.627 77.6223 132.627L77.6181 132.623C77.5888 132.56 77.3085 132.001 77.3838 131.625C77.4131 131.462 77.7143 131.154 78.0532 130.849C78.5384 130.406 79.1157 129.964 79.1157 129.964L112.628 129.755C112.628 129.755 112.967 129.926 113.398 130.185H113.402C114.134 130.627 115.126 131.312 115.126 131.813C115.126 132.502 114.854 132.949 114.787 133.049L114.77 133.07C121.957 146.605 124.84 167 124.84 167Z" fill="url(#paint6_linear_5_671)"/>
<path opacity="0.5" d="M86.3947 155.289C83.9893 165.693 78.7685 173.375 74.7316 172.449C70.6947 171.522 69.3769 162.332 71.7824 151.928C74.1878 141.524 79.4086 133.842 83.4455 134.769C87.4782 135.696 88.8002 144.881 86.3947 155.289Z" fill="url(#paint7_radial_5_671)"/>
<path opacity="0.5" d="M121.112 151.398C123.999 161.681 123.108 170.92 119.121 172.035C115.134 173.15 109.562 165.718 106.671 155.435C103.785 145.152 104.676 135.913 108.663 134.798C112.654 133.683 118.226 141.115 121.112 151.398Z" fill="url(#paint8_radial_5_671)"/>
<path d="M85.3865 167.017L85.1815 166.983C87.4698 153.54 93.2721 142.267 93.3307 142.155L93.3558 142.126L94.8325 140.835L94.9705 140.994L93.5064 142.272C93.2428 142.773 87.6246 153.853 85.3865 167.017Z" fill="url(#paint9_linear_5_671)"/>
<path d="M107.847 167.017C105.605 153.845 99.8316 142.656 99.5722 142.159L98.2628 140.986L98.4009 140.831L99.7479 142.046C99.8065 142.159 105.764 153.54 108.052 166.983L107.847 167.017Z" fill="url(#paint10_linear_5_671)"/>
<path opacity="0.76" d="M115.126 131.813C115.126 132.502 114.854 132.949 114.787 133.049L114.77 133.07C107.792 134.644 102.484 141.144 102.484 141.144C106.286 148.425 112.628 167 112.628 167H105.178C103.12 155.594 98.3339 140.752 98.3339 140.752C97.171 140.063 94.8994 140.91 94.8994 140.91L87.7125 167H83.0606C84.7256 156.07 89.641 142.727 89.641 142.727C84.8092 137.111 77.6223 132.627 77.6223 132.627L77.6181 132.623L76.7647 132.089L77.3838 131.625C80.492 134.602 90.5153 138.489 90.8249 138.61L78.0531 130.849C78.5384 130.406 79.1157 129.964 79.1157 129.964L112.628 129.755C112.628 129.755 112.967 129.926 113.398 130.185L104.245 135.212L115.126 131.813Z" fill="url(#paint11_linear_5_671)"/>
<path opacity="0.76" d="M98.334 140.752L102.245 138.218L101.317 140.752L100.635 148.375L98.334 140.752Z" fill="url(#paint12_linear_5_671)"/>
<path opacity="0.76" d="M94.8994 140.91L90.8249 138.61L82.1026 134.69L93.2094 142.017L93.8703 144.643L94.8994 140.91Z" fill="url(#paint13_linear_5_671)"/>
<path d="M106.111 62.4788C106.136 62.6583 106.157 62.7543 106.157 62.7543C105.952 63.606 105.718 64.3951 105.462 65.1174C104.642 67.4679 103.622 69.1379 102.856 70.1775C102.191 71.0751 101.718 71.5051 101.718 71.5051C95.6148 69.593 92.607 63.6353 91.4524 60.671C91.444 60.6585 91.4398 60.6418 91.4356 60.6251C91.2139 60.0656 91.0675 59.6147 90.9755 59.3225C90.9755 59.3225 90.9755 59.3225 90.9755 59.3183C90.9043 59.0845 90.8709 58.9551 90.8709 58.9551C90.896 58.905 90.9211 58.8507 90.9462 58.8006L90.9587 58.7797C91.0591 58.571 91.1595 58.3581 91.2516 58.1535C92.0506 56.4083 92.5819 54.7759 92.9249 53.49C93.2219 52.3962 93.3809 51.5528 93.4562 51.1061C93.4938 50.8765 93.5106 50.7512 93.5106 50.7512L96.3552 52.25L106.157 57.427C106.01 58.3247 105.952 59.168 105.948 59.907C105.939 60.4289 105.956 60.8965 105.985 61.2931C106.015 61.7774 106.065 62.1615 106.102 62.412V62.4162C106.102 62.4412 106.107 62.4579 106.111 62.4788Z" fill="#FE9083"/>
<path d="M103.392 72.1608C102.827 72.7202 102.162 73.2212 101.367 73.6387C101.35 73.6513 101.333 73.6596 101.317 73.668C101.317 73.668 101.296 73.6554 101.258 73.6346L101.254 73.6304C101.041 73.501 100.313 73.0542 99.3338 72.3194C96.7736 70.3948 92.4982 66.5037 91.2767 61.2599C91.2725 61.2515 91.2725 61.2473 91.2683 61.239C91.1261 60.6169 91.0257 59.9823 90.9755 59.3227C90.9755 59.3227 90.9755 59.3227 90.9755 59.3185C90.9629 59.1473 90.9504 58.9761 90.9462 58.8008C90.9462 58.8008 91.7954 60.7923 93.268 62.9424C94.9999 65.4724 97.5977 68.2321 100.702 68.2488C103.387 68.2655 104.764 66.4327 105.462 64.7418C105.759 64.0237 105.935 63.3348 106.027 62.8213C106.031 62.8171 106.031 62.813 106.031 62.813C106.061 62.6627 106.082 62.5291 106.102 62.4163V62.4122C106.111 62.3537 106.119 62.3036 106.123 62.2577C106.148 62.0698 106.157 61.9613 106.157 61.9613C106.157 61.9613 107.186 68.3741 103.392 72.1608Z" fill="url(#paint14_linear_5_671)"/>
<path opacity="0.5" d="M103.392 72.1608C102.827 72.7202 102.162 73.2212 101.367 73.6387H101.317L101.258 73.6346L101.254 73.6304C101.041 73.501 100.313 73.0542 99.3338 72.3194C96.7736 70.3948 92.4982 66.5037 91.2767 61.2599C91.2725 61.2515 91.2725 61.2473 91.2683 61.239C91.1261 60.6169 91.0257 59.9823 90.9755 59.3227C90.9755 59.3227 90.9755 59.3227 90.9755 59.3185C90.9629 59.1473 90.9504 58.9761 90.9462 58.8008C90.9462 58.8008 91.7954 60.7923 93.268 62.9424C93.268 62.9424 94.958 67.5766 98.6143 69.8729C100.447 71.021 101.835 70.854 102.856 70.1777C103.877 69.5055 104.538 68.3323 104.927 67.4472C105.316 66.5579 105.441 65.7271 105.462 65.1176C105.467 64.9798 105.467 64.8545 105.462 64.7418C105.759 64.0237 105.935 63.3348 106.027 62.8213C106.031 62.8171 106.031 62.813 106.031 62.813C106.061 62.6627 106.082 62.5291 106.102 62.4163V62.4122C106.111 62.3537 106.119 62.3036 106.123 62.2577C106.148 62.0698 106.157 61.9613 106.157 61.9613C106.157 61.9613 107.186 68.3741 103.392 72.1608Z" fill="url(#paint15_linear_5_671)"/>
<path d="M126.885 110.024C126.839 110.045 126.818 110.057 126.818 110.057C126.475 110.099 125.408 109.865 124.011 108.659L124.007 108.654C124.007 108.65 124.003 108.646 123.995 108.642C123.99 108.638 123.986 108.629 123.978 108.625C122.806 107.602 121.401 105.895 119.999 103.097C117.197 97.5071 116.393 93.7747 116.264 93.1234L116.247 93.0232L114.611 95.6117C113.503 98.9391 111.403 112.708 111.44 113.301C111.478 113.894 113.302 116.783 113.264 117.138C113.264 117.138 113.264 117.142 113.26 117.146C113.21 117.505 112.39 118.294 112.156 119.154C111.997 119.726 113.109 121.53 113.892 122.879V122.883C114.298 123.584 114.611 124.16 114.611 124.377C114.611 125.008 112.628 128.093 112.628 128.093V129.755L112.599 129.784L112.507 129.868L112.432 129.93C111.679 130.523 108.487 132.464 98.5138 132.999C86.6959 133.629 78.8229 129.834 78.8229 129.834L79.4169 128.21C79.4169 128.21 78.8647 127.738 78.8229 127.5C78.7852 127.262 79.258 126.707 79.258 126.707C79.258 126.707 78.0699 126.077 78.0699 125.283C78.0699 124.494 80.4502 122.044 80.3707 119.944C80.2912 117.848 78.4673 115.99 78.2289 114.804C77.9904 113.618 81.3203 110.692 81.3203 110.692C78.4673 101.674 77.9109 89.5704 77.9109 89.5704L77.3587 88.9358C77.3587 88.9358 73.9493 96.6888 70.8578 100.484C70.4897 100.935 70.1006 101.382 69.699 101.812C68.8373 102.743 67.9211 103.615 67.0384 104.379C64.8966 106.241 62.9513 107.464 62.4577 107.368C61.6629 107.21 58.4919 100.96 58.6383 94.5512C58.7052 91.5035 60.5459 88.0925 62.4577 85.3579C62.6627 85.0656 62.8677 84.7775 63.0768 84.4978C64.4322 82.6566 65.7332 81.2121 66.3566 80.5524C66.5992 80.2936 66.7372 80.1558 66.7372 80.1558C66.7372 80.1558 66.3022 78.7572 66.0052 77.5423C66.001 77.513 65.9926 77.4838 65.9842 77.4546C65.9842 77.4421 65.9801 77.4254 65.9759 77.4128C65.9717 77.392 65.9675 77.3836 65.9675 77.3836C65.7918 76.6363 65.683 75.9892 65.7834 75.8305C66.047 75.4088 67.5823 74.9329 67.8458 74.6198C68.1094 74.3025 69.218 68.9752 70.063 68.3948C70.8746 67.8396 72.3011 67.4346 77.0575 65.5684C77.2918 65.4765 77.5302 65.3847 77.7812 65.2845C83.115 63.1761 88.3483 60.6168 88.3483 60.6168L90.3563 58.1536H91.2516L90.9587 58.7798L90.9462 58.8007C91.0884 59.4353 91.2516 60.0448 91.4356 60.6252C91.4398 60.6419 91.444 60.6586 91.4524 60.6711C94.2134 69.3634 101.317 72.1649 101.317 72.1649C106.253 68.5284 106.157 62.7544 106.157 62.7544V61.9612L107.081 62.2367L107.713 63.7397C107.713 63.7397 108.784 65.4014 113.026 67.2634C113.758 67.5849 114.544 67.9899 115.356 68.4533C119.238 70.6535 123.555 74.0561 123.886 74.7784C123.919 74.8536 123.957 74.9705 123.999 75.1375V75.1416C124.455 76.9285 125.392 83.6211 126.262 86.0092C126.806 87.4996 127.663 88.3221 128.295 88.748C128.299 88.7521 128.299 88.7521 128.303 88.7521C128.772 89.0736 129.115 89.1738 129.115 89.1738C129.182 89.5412 129.245 89.9044 129.303 90.2635C131.123 101.711 127.663 109.481 126.885 110.024Z" fill="url(#paint16_linear_5_671)"/>
<path opacity="0.5" d="M81.358 88.4139L77.9109 89.5704L77.3587 88.9358C77.3587 88.9358 73.9493 96.6887 70.8578 100.484C70.4897 100.935 70.1006 101.381 69.699 101.811C68.8373 102.742 67.9211 103.615 67.0384 104.379L64.4113 93.0774L63.0768 84.4977C64.4322 82.6566 65.7332 81.212 66.3565 80.5524C66.5992 80.2935 66.7372 80.1557 66.7372 80.1557C66.7372 80.1557 66.3022 78.7571 66.0051 77.5422C66.001 77.513 65.9926 77.4837 65.9842 77.4545C65.9842 77.442 65.98 77.4253 65.9759 77.4128C65.9717 77.3919 65.9675 77.3835 65.9675 77.3835C65.7918 76.6362 65.683 75.9891 65.7834 75.8304C66.047 75.4088 67.5823 74.9328 67.8458 74.6197C68.1094 74.3024 69.2179 68.9751 70.063 68.3948C70.063 68.3948 69.5108 73.5091 72.4433 79.9971L73.8698 82.0011L78.0448 85.3494C78.0448 85.3494 79.6303 87.4495 81.358 88.4139Z" fill="url(#paint17_linear_5_671)"/>
<path d="M71.3849 97.6659C70.6445 103.148 62.4577 107.369 62.4577 107.369C60.6338 107.369 58.5965 104.204 56.7475 100.3C54.8984 96.3967 54.7855 85.1827 54.6893 84.4896C54.5889 83.7966 53.5598 82.4105 53.497 81.8176C53.4384 81.2248 55.162 79.9973 55.162 79.9973L55.1494 79.9681L55.1369 79.9389C54.957 79.5548 53.9446 77.3879 54.0157 76.9913C54.0952 76.5571 56.0321 75.6094 56.0321 75.6094L56.1534 77.7428C56.1534 77.7428 60.6631 76.8911 62.19 73.405L62.4577 72.3362L63.2107 72.8372V77.4255C63.2107 77.4255 63.3655 78.1394 63.6039 78.1394C63.8424 78.1394 65.5994 77.2627 65.9675 77.3838C66.3398 77.5048 66.7038 79.9597 67.1974 80.2729C67.6869 80.5902 68.9963 81.5003 69.1929 81.9345C69.2807 82.1307 69.2891 82.8363 69.2975 83.6671C69.31 84.6858 69.3184 85.8882 69.469 86.5646C69.7493 87.7879 72.1254 92.18 71.3849 97.6659Z" fill="url(#paint18_linear_5_671)"/>
<path d="M146.262 92.969C145.894 93.5494 144.045 94.7643 143.568 95.2402C143.091 95.712 143.568 97.2735 143.568 97.2735C135.8 105.502 127.701 109.623 126.885 110.024C126.839 110.045 126.818 110.057 126.818 110.057C121.94 106.784 122.359 101.394 123.978 96.8518C125.526 92.4931 128.178 88.9151 128.295 88.7606L128.299 88.7565C128.299 88.7565 128.299 88.7565 128.303 88.7523C128.391 88.7189 129.784 88.1427 130.78 88.0676C131.11 88.0425 131.412 88.172 131.696 88.3515C132.29 88.7189 132.792 89.2992 133.277 89.0571C133.993 88.698 135.591 84.928 136.674 84.8236C137.431 84.7526 138.481 85.5208 139.18 85.9592C139.485 86.1513 139.724 86.2807 139.841 86.2473C140.238 86.1429 141.585 84.5314 141.694 84.4896C141.799 84.4437 142.414 84.8946 142.414 84.8946L141.983 85.429C142.644 89.2282 144.811 91.7833 144.811 91.7833L146.262 89.6624C146.262 89.6624 146.635 92.3887 146.262 92.969Z" fill="url(#paint19_linear_5_671)"/>
<path d="M106.132 62.3161C106.123 62.3703 106.115 62.4246 106.111 62.4789C106.09 62.5916 106.065 62.7002 106.031 62.8129C106.031 62.8129 106.031 62.8171 106.027 62.8213C105.529 64.6624 103.517 66.5454 100.978 65.6394C98.2043 64.6499 92.9249 53.4901 92.9249 53.4901L93.4562 51.1062L105.985 61.2932L106.123 62.2576L106.132 62.3161Z" fill="#CB4D7A"/>
<path d="M64.4113 60.2744C64.4113 60.2744 63.6458 56.0535 63.9888 52.9431C64.3318 49.8328 63.9009 46.2965 63.9009 46.2965C63.9009 46.2965 63.1438 45.9792 62.5874 46.2965C62.031 46.6138 60.7383 49.8286 61.3198 52.4129C61.9013 54.9972 61.4537 61.1929 61.4537 61.1929H60.5836L58.6801 58.5836L57.7556 58.3205C57.7556 58.3205 52.4302 63.3305 52.5097 66.3115L53.2042 68.9626L59.7594 68.7372L64.039 63.8608L64.4113 60.2744Z" fill="#EE8183"/>
<path d="M57.7514 58.3205C57.7514 58.3205 57.8895 61.6438 58.6341 64.4912C58.6341 64.4912 58.5086 65.656 57.1407 65.7353L56.8018 65.3596C56.8018 65.3596 56.5634 66.6831 55.3544 66.7833L54.204 65.6351L54.501 66.5829C54.501 66.5829 54.0868 67.5932 52.995 67.5515C52.995 67.5515 51.1711 66.1278 51.0539 64.2699L52.8569 62.746V61.5812L54.9988 60.0782L55.0365 59.2265C55.0448 59.2307 56.2998 58.3038 57.7514 58.3205Z" fill="url(#paint20_linear_5_671)"/>
<path opacity="0.6" d="M64.0641 52.0498C64.0641 52.0498 63.742 52.8639 63.286 53.1812C62.83 53.4985 61.5081 53.7407 61.5081 53.7407L61.4495 61.1972H60.5794L58.676 58.5879C58.676 58.5879 59.6423 60.0783 59.7009 61.1972L58.9479 61.5646L58.2953 59.331L57.9857 60.9384L58.2953 62.9382C58.2953 62.9382 59.4248 61.9696 61.4662 61.932L61.7716 62.4873C61.7716 62.4873 58.0777 65.5392 57.2285 67.3387C57.2285 67.3387 59.0524 65.0257 63.2149 62.4748L63.6123 61.2473L64.1394 58.3207C64.131 58.3207 63.6332 54.1039 64.0641 52.0498Z" fill="url(#paint21_linear_5_671)"/>
<path d="M67.1598 65.0465C66.8167 66.0736 63.2233 70.3446 62.8258 71.2715C62.4284 72.1941 62.19 73.4049 62.19 73.4049C60.4246 77.2167 56.1534 77.7427 56.1534 77.7427L55.9568 74.3025C55.9568 74.3025 53.6602 72.9832 53.2711 72.2609L53.2669 72.2484L53.2209 72.1273C53.1038 71.4552 53.2042 68.9627 53.2042 68.9627L57.2244 67.3386C58.9688 65.0841 63.2107 62.4747 63.2107 62.4747L63.4073 61.2932C60.3619 59.7986 60.8722 55.277 61.3868 54.7218C61.9013 54.1707 62.8509 54.1707 62.8509 54.1707C62.8509 54.1707 63.9637 57.8071 64.6749 59.5105C65.3902 61.2097 67.5028 64.0195 67.1598 65.0465Z" fill="url(#paint22_linear_5_671)"/>
<path d="M55.0448 59.2307C55.0448 59.2307 55.4924 63.3848 56.8102 65.3596C56.8102 65.3596 55.141 63.2888 55.0072 60.0782L55.0448 59.2307Z" fill="#E28183"/>
<path d="M52.8653 61.5854C52.8653 61.5854 53.3004 64.9296 55.3627 66.7875C55.3627 66.7875 53.5388 65.8774 52.8653 62.7545V61.5854Z" fill="#E28183"/>
<path opacity="0.91" d="M63.3822 70.3862C63.3822 70.3862 58.8517 74.7783 55.9568 74.3024L56.1534 77.7426C56.1534 77.7426 60.9099 77.3293 62.4577 72.336C62.4577 72.336 63.0141 70.8998 63.3822 70.3862Z" fill="url(#paint23_linear_5_671)"/>
<path d="M159.197 76.3567C159.197 76.3567 155.035 83.951 150.161 86.2849H148.496L144.652 92.1006C144.652 92.1006 142.167 90.5434 141.983 85.429C141.983 85.429 142.853 84.523 143.066 83.5001C143.066 83.5001 141.694 82.423 141.322 81.6339C140.954 80.8407 140.82 78.4693 140.556 77.4923C140.293 76.5154 138.046 74.4863 137.544 74.2233C137.042 73.9603 134.771 73.8267 134.771 73.8267C134.771 73.8267 134.453 73.0084 134.771 72.6159C135.089 72.2193 138.628 70.8457 140.556 72.165C140.556 72.165 140.69 73.167 140.899 73.6972C141.113 74.2233 142.803 76.0937 143.066 76.0937C143.33 76.0937 144.468 75.146 144.97 74.407C145.451 73.6972 148.007 68.1988 148.626 66.3409C148.63 66.32 148.634 66.3033 148.643 66.2866C148.651 66.2574 148.664 66.2282 148.668 66.2031C148.676 66.1822 148.68 66.1655 148.685 66.1488C148.689 66.1405 148.693 66.1363 148.693 66.128C149.17 64.5206 151.943 61.4353 153.424 60.5919C153.424 60.5919 154.056 60.4333 154.399 61.2223C154.399 61.2223 153.211 64.5999 151.968 66.6039C151.759 66.9421 151.533 67.3387 151.299 67.7646C151.299 67.7646 151.299 67.7646 151.295 67.7646C150.237 69.7059 149.044 72.2485 148.873 72.6201L148.852 72.666L149.513 73.0042L151.299 71.3133L153.131 69.5807L157.336 74.0104L156.922 74.5364L155.608 76.2189L156.273 76.34L157.821 74.6324L159.197 76.3567Z" fill="url(#paint24_linear_5_671)"/>
<path opacity="0.6" d="M158.223 77.9724L156.892 79.9221C156.892 79.9221 149.592 74.3025 148.007 73.8266C146.421 73.3506 145.84 73.6679 145.84 73.6679L144.204 75.7513C144.204 75.7513 147.216 78.4149 147.48 82.0012C147.48 82.0012 146.476 77.4672 143.066 76.0936C143.33 76.0936 144.468 75.1459 144.97 74.4069C145.451 73.6972 148.007 68.1987 148.626 66.3408C148.542 66.6581 148.434 67.276 148.693 67.7645C149.053 68.4283 151.169 67.8021 151.295 67.7645C151.299 67.7645 151.299 67.7645 151.299 67.7645L148.873 72.62L148.852 72.6659L149.513 73.0041L151.299 71.3132L150.404 73.3882L156.922 74.5363L155.608 76.2189L156.273 76.34L158.223 77.9724Z" fill="url(#paint25_linear_5_671)"/>
<path d="M153.131 69.5807C153.131 69.5807 154.399 69.397 155.219 71.0294L155.035 71.5554C155.035 71.5554 156.269 71.7976 157.465 73.7974C157.465 73.7974 156.407 75.7221 153.792 76.5905C153.792 76.5905 152.575 76.2481 152.366 75.2211L152.604 74.5614L151.655 75.2754C151.655 75.2754 150.517 75.6177 150.015 73.931L153.131 69.5807Z" fill="url(#paint26_linear_5_671)"/>
<path d="M159.578 75.8307C159.578 75.8307 159.841 74.6157 158.549 73.8267L156.039 76.5947C156.039 76.5947 156.114 77.484 157.202 77.676C157.202 77.676 158.917 77.0957 159.578 75.8307Z" fill="url(#paint27_linear_5_671)"/>
<path opacity="0.91" d="M141.322 81.6338C141.322 81.6338 144.229 84.8736 148.496 86.2847L146.656 89.0653L142.82 84.2014L143.066 83.5C143.066 83.5 141.531 82.3477 141.322 81.6338Z" fill="url(#paint28_linear_5_671)"/>
<path d="M155.035 71.5596C155.035 71.5596 153.817 73.5636 152.604 74.5656L152.366 75.2252C152.366 75.2252 154.725 73.6345 155.591 71.8017C155.595 71.8017 155.311 71.5971 155.035 71.5596Z" fill="#E28183"/>
<path opacity="0.5" d="M146.262 92.969C145.894 93.5494 144.045 94.7643 143.568 95.2402C143.091 95.712 143.568 97.2735 143.568 97.2735C135.8 105.502 127.701 109.623 126.885 110.024C126.839 110.045 126.818 110.057 126.818 110.057C126.182 110.137 123.091 109.268 119.999 103.098C117.197 97.5073 116.393 93.7748 116.264 93.1235L116.247 93.0233L116.929 92.1006L117.941 80.7112L118.652 83.0033C121.346 79.7593 123.886 74.7786 123.886 74.7786L123.999 75.1376V75.1418C124.455 76.9287 125.392 83.6212 126.262 86.0093C126.806 87.4998 127.663 88.3223 128.295 88.7481L128.299 88.7565L128.295 88.7606C125.814 91.0193 124.584 94.2675 123.978 96.8518C123.421 99.2232 123.384 101.039 123.384 101.039C123.384 101.039 124.07 97.8246 126.237 93.9585C127.023 92.5515 128.17 91.2949 129.303 90.2636C130.157 89.4871 131.006 88.8358 131.696 88.3515C132.29 88.7189 132.792 89.2992 133.277 89.0571C130.014 93.946 130.094 103.624 133.16 101.778C136.222 99.9329 136.925 96.0168 136.925 96.0168C136.202 91.2448 136.419 85.8632 137.001 84.8403C137.708 84.8654 139.728 86.2807 139.845 86.2473C139.661 91.8627 142.305 95.6118 142.305 95.6118L144.049 92.9189C141.51 88.6479 141.698 84.4896 141.698 84.4896C141.803 84.4437 142.418 84.8946 142.418 84.8946L141.987 85.429C142.648 89.2282 144.815 91.7833 144.815 91.7833L146.267 89.6624C146.262 89.6624 146.635 92.3887 146.262 92.969Z" fill="url(#paint29_linear_5_671)"/>
<path opacity="0.5" d="M112.628 128.093V129.755L112.599 129.784L112.507 129.868L112.432 129.93C111.679 130.523 108.487 132.465 98.5138 132.999C86.6959 133.629 78.8229 129.834 78.8229 129.834L79.4169 128.21C79.4169 128.21 78.8647 127.738 78.8229 127.5C78.7852 127.262 79.2579 126.707 79.2579 126.707C79.2579 126.707 78.0699 126.077 78.0699 125.283C78.0699 124.57 80.0109 122.503 80.3247 120.562C80.3623 120.353 80.3791 120.148 80.3707 119.944C80.2912 117.856 78.484 116.007 78.233 114.821C78.2288 114.808 78.2288 114.804 78.2288 114.804C77.9904 113.619 81.3203 110.692 81.3203 110.692C78.4673 101.674 77.9109 89.5706 77.9109 89.5706L77.3587 88.936C77.3587 88.936 73.9493 96.6889 70.8578 100.484C67.7663 104.283 63.2483 107.527 62.4577 107.369C60.6337 107.369 58.5965 104.204 56.7474 100.3C54.8984 96.3967 54.7854 85.1826 54.6892 84.4896C54.5888 83.7965 53.5597 82.4104 53.497 81.8176C55.4799 85.2202 58.6383 84.2182 58.6383 84.2182C56.35 84.2683 55.1619 79.9973 55.1619 79.9973L55.1494 79.9681L55.1368 79.9388L54.0199 76.9955C54.1454 77.1374 56.76 80.0557 59.2867 78.2563C61.8762 76.411 63.2107 72.8372 63.2107 72.8372V77.4255C63.2107 77.4255 63.3655 78.1394 63.6039 78.1394C63.4491 80.252 63.0015 82.8238 62.4577 85.358C61.2822 90.8398 59.6716 96.1337 59.6716 96.1337C59.6716 96.1337 64.039 93.7623 65.5743 87.7503C66.3063 84.8737 66.4277 82.3729 66.3565 80.5526C66.2938 78.9953 66.0888 77.9307 66.0051 77.5424C66.001 77.5132 65.9926 77.4839 65.9842 77.4547C65.9842 77.4422 65.98 77.4255 65.9759 77.413C65.9759 77.4046 65.9717 77.3963 65.9717 77.3921L66.3942 78.2855L67.1974 80.2728C68.1303 87.9882 66.2059 99.6156 66.2059 99.6156C69.0088 96.1337 69.5903 88.435 69.4689 86.5646C69.4146 85.6711 69.3434 84.5689 69.2974 83.6671C69.2347 82.6818 69.1928 81.9345 69.1928 81.9345L74.9282 85.3496L73.8698 82.0013L78.0448 85.3496C78.0448 85.3496 81.7972 89.8586 85.6543 90.3847C89.5113 90.9149 103.672 90.5976 103.672 90.5976C103.672 90.5976 91.3603 91.3867 87.7668 92.443C84.1734 93.4992 83.4873 94.71 83.4873 94.71C86.0851 107.899 100.463 112.345 100.911 112.479C87.8672 110.525 81.7972 99.457 81.7972 99.457C81.7972 99.457 81.5839 105.682 82.5879 108.053C83.5919 110.425 89.5113 116.228 97.1208 117.439C97.7608 117.539 98.3925 117.602 99.0158 117.631C105.433 117.931 110.746 114.658 111.29 114.307C111.319 114.287 111.336 114.278 111.336 114.278C111.336 114.278 111.332 114.287 111.323 114.299C111.118 114.612 108.487 118.303 97.8612 118.708C97.217 118.733 96.5895 118.729 95.9787 118.704C95.9745 118.704 95.9704 118.704 95.9704 118.704C86.1228 118.29 81.107 111.744 81.107 111.744C81.107 111.744 77.4633 113.698 79.7892 116.595C79.8143 116.625 79.8394 116.658 79.8645 116.687C80.5506 117.476 82.0608 118.441 83.8471 119.434C83.8973 119.464 83.9475 119.493 83.9935 119.518C86.1521 120.708 88.683 121.935 90.6408 122.95C90.6534 122.954 90.6617 122.958 90.6701 122.962C91.8665 123.584 92.8496 124.119 93.3976 124.519C93.4018 124.519 93.4018 124.524 93.4018 124.524C93.954 124.924 94.0669 125.183 93.5273 125.246C90.7788 125.563 80.3707 123.296 79.9482 123.927C79.5257 124.561 80.4627 126.194 80.4627 126.194C90.0175 130.92 110.461 128.59 111.106 128.519C93.9958 132.89 79.9984 127.354 79.9984 127.354L80.4627 128.991C80.4627 128.991 88.0848 131.625 97.0664 131.838C106.052 132.047 111.654 129.755 111.654 129.755L112.628 128.093Z" fill="url(#paint30_linear_5_671)"/>
<path opacity="0.5" d="M105.63 90.5432C105.63 90.5432 112.436 90.9106 116.933 92.1005L114.616 95.6117C114.611 95.6117 111.122 92.5472 105.63 90.5432Z" fill="url(#paint31_linear_5_671)"/>
<path opacity="0.5" d="M111.988 109.264C111.988 109.264 107.742 112.8 103.567 114.433C99.3924 116.069 95.3763 116.224 95.3763 116.224C95.3763 116.224 97.7776 116.938 103.68 115.986C109.587 115.038 111.608 111.844 111.608 111.844L111.988 109.264Z" fill="url(#paint32_linear_5_671)"/>
<path opacity="0.5" d="M113.892 122.879C106.035 124.908 96.0624 122.002 96.1461 121.647C96.2298 121.292 98.8778 121.806 105.019 120.578C110.972 119.388 113.13 117.276 113.26 117.146C113.21 117.506 112.39 118.295 112.156 119.155C111.997 119.727 113.11 121.53 113.892 122.879Z" fill="url(#paint33_linear_5_671)"/>
<path opacity="0.5" d="M92.5526 91.6078C85.8425 92.2883 84.0353 94.1546 84.0353 94.1546C82.1487 94.3925 77.9109 89.5704 77.9109 89.5704L77.3587 88.9358C77.3587 88.9358 73.9493 96.6888 70.8578 100.484C70.4897 100.935 70.1007 101.381 69.6991 101.812L70.1383 100.826C70.1383 100.826 70.8578 100.484 71.067 96.7138C71.2804 92.948 69.4815 87.3284 69.469 86.5644C69.4564 85.8004 69.1929 81.9343 69.1929 81.9343L74.9282 85.3495L73.8698 82.0011L78.0448 85.3495C78.0448 85.3495 79.6805 87.8044 83.8094 89.8501C87.7041 91.7832 92.0715 91.6287 92.5526 91.6078Z" fill="url(#paint34_linear_5_671)"/>
<path opacity="0.5" d="M77.3587 88.9359L81.358 88.4141C81.358 88.4141 82.956 89.4703 86.1647 90.7729L83.4915 94.71C83.4915 94.71 84.5541 100.321 87.5995 103.482C87.5995 103.482 79.5173 99.0019 78.3795 95.236L77.3587 88.9359Z" fill="url(#paint35_linear_5_671)"/>
<path opacity="0.5" d="M54.0199 76.9955L55.1619 79.9973C55.1619 79.9973 56.3249 84.047 58.6383 84.2182C60.9517 84.3894 63.2107 77.4255 63.2107 77.4255V72.8372C63.2107 72.8372 60.7509 78.0977 58.0945 78.6905C55.4422 79.2875 54.0199 76.9955 54.0199 76.9955Z" fill="url(#paint36_linear_5_671)"/>
<path opacity="0.5" d="M67.8458 74.6197C67.8458 74.6197 69.9082 78.7321 72.4433 79.9971C72.4433 79.9971 69.4271 72.6909 70.063 68.3948C70.063 68.3948 68.9544 69.0836 67.8458 74.6197Z" fill="url(#paint37_linear_5_671)"/>
<path opacity="0.76" d="M117.941 80.7112L118.652 83.0033L119.372 101.812C119.372 101.812 117.544 98.2337 116.264 93.1235L116.929 92.1006C116.929 92.1006 118.05 85.0114 117.941 80.7112Z" fill="url(#paint38_linear_5_671)"/>
<path opacity="0.5" d="M139.841 86.2471C139.841 86.2471 139.439 95.4863 143.372 96.2838L143.568 97.2732C143.568 97.2732 138.477 97.0854 139.841 86.2471Z" fill="url(#paint39_linear_5_671)"/>
<path opacity="0.3" d="M133.277 89.0569C133.277 89.0569 133.127 89.3867 131.696 88.3513C131.696 88.3513 126.747 91.85 124.84 96.7806C124.84 96.7806 127.889 92.2508 129.512 91.7623C131.135 91.2738 131.529 93.0816 131.529 93.0816C131.529 93.0816 132.173 90.5307 133.277 89.0569Z" fill="url(#paint40_linear_5_671)"/>
<path opacity="0.5" d="M53.497 81.8176C53.497 81.8176 55.4004 85.3204 58.9688 84.2224C58.9688 84.2224 56.8311 85.6586 54.6892 84.4896C54.6892 84.4896 53.3589 82.2143 53.497 81.8176Z" fill="url(#paint41_linear_5_671)"/>
<path opacity="0.5" d="M65.9675 77.3838C65.9675 77.3838 68.5863 87.1533 61.7549 94.4929C61.7549 94.4929 66.1892 92.2217 67.1974 86.9612C68.2014 81.6966 65.9675 77.3838 65.9675 77.3838Z" fill="url(#paint42_linear_5_671)"/>
<path opacity="0.5" d="M112.879 69.5764C112.879 69.5764 112.587 73.9852 110.466 77.1499C108.349 80.3145 104.149 82.4479 104.149 82.4479C104.149 82.4479 109.42 80.5107 111.838 77.7803C114.256 75.054 112.879 69.5764 112.879 69.5764Z" fill="url(#paint43_linear_5_671)"/>
<path opacity="0.5" d="M85.9178 62.9424C85.9178 62.9424 85.9178 66.6289 87.1059 70.3864C88.294 74.1439 98.6143 80.7112 98.6143 80.7112C98.6143 80.7112 87.976 76.3024 85.9178 72.3361C83.8555 68.3699 85.9178 62.9424 85.9178 62.9424Z" fill="url(#paint44_linear_5_671)"/>
<path d="M85.7965 80.5024V86.5061C85.7965 86.5061 99.6475 86.3933 115.18 87.4204L115.536 82.0138C115.536 82.018 102.032 80.4189 85.7965 80.5024Z" fill="url(#paint45_linear_5_671)"/>
<path d="M88.3651 81.8717C88.3693 81.7674 88.4195 81.7214 88.5115 81.7214L91.3185 81.8049C91.5946 81.8133 91.8331 81.855 92.0255 81.9302C92.2179 82.0053 92.3727 82.1097 92.4898 82.2433C92.607 82.3769 92.6865 82.5314 92.7367 82.7193C92.7869 82.903 92.8078 83.1075 92.7994 83.333L92.7743 84.1012C92.7659 84.3266 92.7325 84.5312 92.6739 84.7107C92.6153 84.8903 92.5233 85.0447 92.3978 85.17C92.2723 85.2952 92.1134 85.3871 91.9167 85.4539C91.7201 85.5165 91.4817 85.5457 91.2056 85.5374L89.6954 85.4915L89.3816 84.6105H89.3398L89.3147 85.4831L88.2563 85.4497L88.3651 81.8717ZM89.344 84.5145L91.1386 84.5688C91.3394 84.573 91.4858 84.5354 91.5737 84.4477C91.6615 84.36 91.7076 84.2056 91.7159 83.9801L91.7369 83.3539C91.7452 83.1201 91.7076 82.9614 91.6239 82.8737C91.5402 82.7861 91.398 82.7401 91.1972 82.736L89.482 82.6859C89.4569 82.6859 89.4402 82.6942 89.4235 82.7067C89.4109 82.7234 89.4025 82.7401 89.4025 82.761L89.344 84.5145Z" fill="#EBEFFF"/>
<path d="M94.318 83.4709H94.2803L94.2468 84.5898C94.2468 84.6357 94.2678 84.6607 94.318 84.6649L97.4722 84.761L97.4429 85.7296L93.3056 85.6043C93.2052 85.6001 93.1592 85.55 93.1592 85.4457L93.2638 82.018C93.2679 81.9136 93.3181 81.8677 93.4185 81.8677L97.4387 81.9888C97.5433 81.9929 97.5935 82.043 97.5893 82.1474L97.56 83.116L96.5686 83.45H96.5268L96.5435 82.9532C96.5435 82.9156 96.5268 82.8947 96.4933 82.8947L94.3723 82.8321C94.3431 82.8321 94.3263 82.8405 94.318 82.853C94.3096 82.8697 94.3054 82.8864 94.3054 82.9031L94.2929 83.3707L96.0415 83.425L96.0164 84.1848L94.5522 84.1389L94.318 83.4709Z" fill="#EBEFFF"/>
<path d="M101.333 83.4038H101.292L101.304 82.9947C101.304 82.9529 101.287 82.9321 101.246 82.9321L99.271 82.8736C99.1999 82.8736 99.1497 82.8861 99.1204 82.9154C99.0912 82.9446 99.0786 82.9905 99.0744 83.049L99.0702 83.1408C99.0661 83.2118 99.0786 83.2577 99.1037 83.2786C99.1288 83.2995 99.1748 83.3162 99.2418 83.3287L101.555 83.7211C101.702 83.7462 101.827 83.7838 101.927 83.8255C102.028 83.8714 102.112 83.9299 102.174 84.0009C102.237 84.0718 102.279 84.1595 102.304 84.2639C102.329 84.3683 102.337 84.4893 102.333 84.6313L102.325 84.9277C102.321 85.0822 102.296 85.2158 102.254 85.3327C102.212 85.4496 102.149 85.5456 102.061 85.6249C101.973 85.7043 101.856 85.7585 101.718 85.7961C101.576 85.8337 101.405 85.8462 101.2 85.842L97.8696 85.7418L97.8989 84.7732L100.886 84.8651C100.974 84.8693 101.036 84.8526 101.066 84.8233C101.095 84.7899 101.112 84.7357 101.116 84.6522L101.12 84.5478C101.12 84.481 101.112 84.4351 101.091 84.41C101.07 84.385 101.028 84.3641 100.961 84.3557L98.7272 84.005C98.5766 83.98 98.4469 83.9466 98.3423 83.9007C98.2378 83.8547 98.1499 83.8005 98.083 83.7295C98.016 83.6585 97.97 83.575 97.9407 83.4748C97.9115 83.3746 97.9031 83.2577 97.9073 83.1199L97.9156 82.8569C97.924 82.5855 98.0035 82.381 98.1499 82.2348C98.3005 82.0887 98.539 82.0219 98.8778 82.0344L102.204 82.1346C102.308 82.1388 102.363 82.1931 102.358 82.3016L102.333 83.0698L101.333 83.4038Z" fill="#EBEFFF"/>
<path d="M102.739 85.888L102.852 82.1555L103.91 82.1889L103.797 85.9214L102.739 85.888Z" fill="#EBEFFF"/>
<path d="M107.726 84.4393C107.726 84.3851 107.726 84.3266 107.721 84.2682C107.717 84.2097 107.713 84.1554 107.709 84.1095V84.0636L108.759 84.097L108.704 85.9298C108.7 86.0258 108.658 86.0718 108.571 86.0676L105.755 85.9841C105.479 85.9757 105.241 85.934 105.048 85.8588C104.856 85.7837 104.701 85.6793 104.584 85.5457C104.467 85.4121 104.383 85.2576 104.337 85.0698C104.287 84.8861 104.266 84.6815 104.274 84.456L104.299 83.6878C104.308 83.4624 104.341 83.2578 104.4 83.0783C104.458 82.8988 104.55 82.7443 104.676 82.619C104.801 82.4938 104.96 82.4019 105.157 82.3351C105.354 82.2725 105.592 82.2433 105.868 82.2516L108.667 82.3351C108.767 82.3393 108.813 82.3894 108.813 82.4938L108.788 83.2996L107.797 83.6294H107.755L107.767 83.2703C107.767 83.2369 107.755 83.2202 107.721 83.2161L105.935 83.1618C105.831 83.1576 105.747 83.166 105.676 83.1827C105.605 83.1994 105.546 83.2286 105.5 83.2745C105.454 83.3204 105.421 83.3789 105.395 83.4582C105.375 83.5334 105.358 83.6294 105.354 83.7421L105.333 84.3976C105.324 84.623 105.362 84.7817 105.446 84.8735C105.529 84.9654 105.672 85.0155 105.872 85.0197L107.646 85.0739C107.684 85.0739 107.705 85.0572 107.705 85.0155L107.726 84.4393Z" fill="#EBEFFF"/>
<path d="M110.997 82.4019C111.076 82.4061 111.131 82.4186 111.164 82.4437C111.198 82.4687 111.223 82.5063 111.252 82.5606L112.591 85.2868C112.612 85.3286 112.645 85.3495 112.687 85.3495H112.741C112.796 85.3495 112.825 85.3244 112.825 85.2701L112.909 82.4604L113.871 82.4896L113.762 86.0759C113.758 86.1761 113.712 86.222 113.616 86.2179L112.093 86.1719C112.022 86.1719 111.967 86.1594 111.934 86.1344C111.901 86.1135 111.867 86.0717 111.838 86.0133L110.449 83.2912C110.428 83.2494 110.399 83.2286 110.353 83.2286H110.302C110.248 83.2286 110.219 83.2536 110.219 83.3079L110.135 86.1135L109.173 86.0843L109.282 82.5021C109.286 82.3977 109.332 82.3518 109.428 82.3518L110.997 82.4019Z" fill="#EBEFFF"/>
<path opacity="0.5" d="M107.713 63.7397C107.387 67.6225 106.203 70.3279 104.939 72.1523C103.199 74.6573 101.317 75.5132 101.317 75.5132C99.4342 74.6949 97.8027 73.6762 96.3971 72.5531C90.4316 67.7936 88.5073 61.1971 88.3609 60.6544C90.8793 66.7248 94.5773 70.403 97.3802 72.4738C99.6392 74.148 101.317 74.7784 101.317 74.7784V72.837C100.869 72.67 100.434 72.478 100.02 72.2692C95.0835 69.7851 92.4899 64.6081 91.2767 61.2598C91.2725 61.2514 91.2725 61.2472 91.2683 61.2389C90.6115 59.4269 90.3563 58.1536 90.3563 58.1536H91.2516L90.9587 58.7798L90.9462 58.8007C91.0884 59.4353 91.2516 60.0448 91.4357 60.6252C91.4398 60.6419 91.444 60.6586 91.4524 60.6711C94.2134 69.3634 101.317 72.1649 101.317 72.1649C106.253 68.5284 106.157 62.7544 106.157 62.7544V61.9612L107.081 62.2367L107.713 63.7397Z" fill="url(#paint46_linear_5_671)"/>
<path opacity="0.3" d="M136.996 84.8403C136.996 84.8403 135.653 89.2157 136.921 96.0168C136.921 96.0168 137.557 87.3954 138.03 86.6439C138.507 85.8924 139.837 86.2473 139.837 86.2473C139.837 86.2473 137.745 85.0908 136.996 84.8403Z" fill="url(#paint47_linear_5_671)"/>
<path opacity="0.5" d="M123.978 108.625C122.806 107.602 121.401 105.895 119.999 103.098C117.197 97.5073 116.393 93.7748 116.264 93.1235L116.929 92.1006L117.82 83.5001L118.652 83.0033C118.652 83.0033 121.627 79.7259 123.886 74.7786C123.919 74.8537 123.957 74.9706 123.999 75.1376V75.1418C124.455 76.9287 125.392 83.6212 126.262 86.0093C126.806 87.4998 127.663 88.3223 128.295 88.7481C128.295 88.7481 123.145 96.3717 122.894 101.812C122.673 106.763 123.777 108.375 123.978 108.625Z" fill="url(#paint48_linear_5_671)"/>
<path opacity="0.5" d="M93.4018 124.524C93.4018 124.524 84.119 123.004 80.3289 120.566C80.3289 120.566 80.3247 120.566 80.3247 120.561C80.3623 120.353 80.3791 120.148 80.3707 119.944C80.2912 117.856 78.484 116.007 78.233 114.821C78.2749 114.934 78.5468 115.56 79.8645 116.687C80.697 117.401 81.9562 118.319 83.8471 119.434C83.8973 119.463 83.9475 119.493 83.9935 119.518C86.6708 121.096 88.9758 122.165 90.6408 122.95C90.6534 122.954 90.6617 122.958 90.6701 122.962C92.1677 123.663 93.1382 124.127 93.3976 124.519C93.4018 124.519 93.4018 124.524 93.4018 124.524Z" fill="url(#paint49_linear_5_671)"/>
<path opacity="0.5" d="M113.26 117.146C113.21 117.506 112.39 118.295 112.156 119.155C112.156 119.155 108.75 122.754 96.1461 121.647C96.2298 121.292 98.8778 121.806 105.019 120.578C110.972 119.388 113.13 117.276 113.26 117.146Z" fill="url(#paint50_linear_5_671)"/>
<path opacity="0.5" d="M115.356 68.4532L107.299 71.0584L104.939 72.1523L104.927 72.1564L103.392 72.1606L101.317 72.1648L100.02 72.2692L99.3338 72.3193L97.3802 72.4737L96.3971 72.5531L86.7336 69.0628L85.0059 68.4407L77.0575 65.5683C77.2918 65.4764 77.5302 65.3846 77.7812 65.2844C83.115 63.176 88.3483 60.6167 88.3483 60.6167L90.3563 58.1535H91.2516C92.0506 56.4083 92.5819 54.7759 92.9249 53.49L93.4562 51.1061C93.4938 50.8765 93.5106 50.7512 93.5106 50.7512L96.3552 52.25L105.948 59.907C105.939 60.4289 105.956 60.8965 105.985 61.2931L106.123 62.2575C106.148 62.0696 106.157 61.9611 106.157 61.9611L107.081 62.2367L107.713 63.7396C107.713 63.7396 108.784 65.4013 113.026 67.2633C113.758 67.5848 114.544 67.9898 115.356 68.4532Z" fill="#7A4AC0"/>
<path d="M109.219 61.1178C109.219 61.1178 105.462 61.9612 101.317 59.9572C97.171 57.9532 93.6863 52.0456 93.4729 50.5718C93.2638 49.0938 95.0584 45.2445 95.0584 42.2385C95.0584 39.2325 93.5817 34.0638 96.0624 31.2666C98.5473 28.4735 109.959 28.0518 113.662 31.6382C113.662 31.6382 114.808 34.5106 114.808 36.1346C114.808 36.5271 114.737 37.1032 114.632 37.7671C114.599 38.0134 114.553 38.2764 114.511 38.5478C114.18 40.5142 113.724 42.9148 113.938 43.9669C114.013 44.3343 114.13 44.6725 114.268 44.994V44.9982C114.724 46.0503 115.402 46.8894 115.523 47.7996C115.682 48.9895 114.084 57.4271 109.219 61.1178Z" fill="url(#paint51_linear_5_671)"/>
<path d="M95.0291 41.3911C95.0291 41.3911 94.0042 38.8235 91.4273 38.7859C91.4273 38.7859 89.9213 39.3787 89.6828 40.5269C89.6828 40.5269 90.2392 44.681 90.8709 46.6182C91.5068 48.5554 93.8285 48.2757 93.8285 48.2757C93.8285 48.2757 95.8532 45.182 95.0291 41.3911Z" fill="url(#paint52_linear_5_671)"/>
<path d="M104.927 49.8455C104.927 49.8455 105.784 49.7787 106.153 50.0542C106.521 50.3298 107.872 51.6365 109.575 51.9914C111.277 52.3463 112.423 50.8975 112.783 50.8266C113.147 50.7514 113.545 51.265 113.545 51.265C113.545 51.265 113.39 50.6721 112.499 50.4049C112.499 50.4049 112.139 51.7701 109.671 51.3025C107.203 50.8349 106.148 49.7411 106.148 49.7411L106.023 49.5156C106.031 49.5156 105.333 49.6618 104.927 49.8455Z" fill="url(#paint53_linear_5_671)"/>
<path opacity="0.6" d="M101.283 37.074L101.317 36.811C101.317 36.811 103.781 32.494 108.654 32.3771C113.528 32.2602 114.628 35.308 114.628 35.308L115.532 33.9386L113.473 29.7678L99.1497 29.5298L95.6608 32.3396L95.2216 39.2158L96.7736 48.2922L100.547 50.3004L101.614 49.3569C101.22 46.3175 98.9573 43.5411 98.9573 43.5411L100.61 42.3971C100.61 42.3971 104.852 44.4471 107.299 43.8333C107.299 43.8333 109.144 38.4643 109.035 34.4897C109.035 34.4813 102.756 35.4082 101.283 37.074Z" fill="url(#paint54_linear_5_671)"/>
<path d="M101.066 37.3914C101.066 37.3914 101.304 35.8383 103.931 35.2163C106.86 34.5232 109.24 33.9387 109.24 33.9387C109.24 33.9387 108.721 35.6421 107.746 36.2809C107.746 36.2809 104.647 36.1682 103.082 36.523C101.509 36.8821 101.066 37.3914 101.066 37.3914Z" fill="#38368E"/>
<path d="M114.632 35.3081C114.632 35.3081 113.147 36.4521 112.135 39.1825C112.135 39.1825 113.105 37.9175 113.996 37.9384C114.607 37.9509 114.511 38.5563 114.511 38.5563C114.511 38.5563 115.117 36.9197 114.632 35.3081Z" fill="#38368E"/>
<path d="M102.049 41.7877C102.049 41.7877 102.208 38.5061 105.416 37.6753C105.416 37.6753 106.567 39.1574 106.684 40.8399C106.684 40.8399 104.981 40.5226 102.049 41.7877Z" fill="url(#paint55_linear_5_671)"/>
<path d="M111.244 43.0943C111.244 43.0943 111.503 40.4808 113.009 39.5164C113.009 39.5164 114.034 40.2846 113.929 42.4723C113.925 42.4681 113.026 42.1466 111.244 43.0943Z" fill="url(#paint56_linear_5_671)"/>
<path d="M102.049 41.7875C102.049 41.7875 103.09 43.0651 106.01 43.3156C106.01 43.3156 106.567 42.4722 106.512 40.8147C106.512 40.8189 103.831 40.5642 102.049 41.7875Z" fill="#FFEBED"/>
<path d="M111.244 43.0943V43.4784C111.244 43.4784 111.691 44.4136 113.306 44.5723C113.306 44.5723 113.825 43.7665 113.871 42.4555C113.867 42.4555 112.842 42.1967 111.244 43.0943Z" fill="#FFEBED"/>
<path d="M105.17 40.7523C105.17 40.7523 104.429 41.6499 104.496 43.0694C104.496 43.0694 105.467 43.299 106.01 43.3199C106.01 43.3199 106.65 42.4306 106.512 40.8191C106.512 40.8191 105.663 40.6395 105.17 40.7523Z" fill="#7F9EC9"/>
<path d="M112.771 42.4973C112.771 42.4973 112.352 42.9441 112.273 44.3176C112.273 44.3176 112.846 44.5681 113.302 44.5681C113.302 44.5681 113.888 43.7373 113.867 42.4514C113.867 42.4556 113.457 42.2969 112.771 42.4973Z" fill="#7F9EC9"/>
<path d="M104.927 43.1653C104.927 43.1653 104.663 41.3909 105.68 40.7146L106.512 40.819C106.512 40.819 106.788 42.2218 106.01 43.3198C106.01 43.3198 105.182 43.2238 104.927 43.1653Z" fill="#38368E"/>
<path d="M113.139 42.4222C113.139 42.4222 112.762 43.2112 112.587 44.4387C112.587 44.4387 112.875 44.5556 113.302 44.5723C113.302 44.5723 113.871 43.8751 113.867 42.4556C113.867 42.4556 113.432 42.3387 113.139 42.4222Z" fill="#38368E"/>
<path d="M102.049 41.7876C102.049 41.7876 103.99 40.6604 107.299 41.3033L106.684 40.8399C106.684 40.8399 104.325 40.1093 102.049 41.7876Z" fill="#131163"/>
<path d="M111.244 43.0944C111.244 43.0944 112.8 42.2678 114.616 42.7062L113.867 42.1551C113.867 42.1551 112.649 41.9672 111.244 43.0944Z" fill="#131163"/>
<path d="M104.149 41.7877C104.149 41.7877 104.676 41.6708 105.153 42.1509C105.153 42.1551 104.5 42.343 104.149 41.7877Z" fill="white"/>
<path d="M111.955 43.3199C111.955 43.3199 112.783 43.1612 113.068 43.537C113.072 43.537 112.628 43.8376 111.955 43.3199Z" fill="white"/>
<path d="M102.241 41.9797C102.241 41.9797 103.751 43.4702 106.169 43.8251L106.232 42.9483L106.01 43.3199C106.01 43.3199 103.689 43.1821 102.241 41.9797Z" fill="#C6659C"/>
<path d="M111.244 43.4785C111.244 43.4785 111.511 44.4429 113.478 44.8771L113.415 44.4054L113.306 44.5724C113.302 44.5724 111.905 44.3928 111.244 43.4785Z" fill="#C6659C"/>
<path d="M107.299 47.3278C107.299 47.3278 108.031 47.1692 109.378 47.3278C110.725 47.4865 112.239 47.8539 113.068 47.3278C113.068 47.3278 111.967 48.4259 111.014 48.5929C110.06 48.7599 108.608 47.9249 108.608 47.9249L107.972 47.9374C107.981 47.9374 107.491 47.6952 107.299 47.3278Z" fill="#CB5F7D"/>
<path d="M108.073 47.9331C108.073 47.9331 108.403 47.7202 108.679 47.7745C108.955 47.8288 109.24 48.2296 109.24 48.2296C109.24 48.2296 108.654 47.9206 108.073 47.9331Z" fill="#9F4A8B"/>
<path d="M113.072 47.3279C113.423 46.9856 111.599 43.7458 110.729 43.6247C109.859 43.5036 109.039 47.2569 109.039 47.2569C109.039 47.2569 110.252 47.4281 111.428 47.5826C112.599 47.7412 113.072 47.3279 113.072 47.3279Z" fill="#FFBCAF"/>
<path opacity="0.6" d="M114.373 37.1242C113.879 37.0615 112.135 39.1783 112.135 39.1783C112.135 39.1783 111.026 42.6059 111.244 43.6205C111.461 44.6392 114.155 45.1777 114.155 45.1777L114.268 44.9982V44.994C114.13 44.6726 114.013 44.3344 113.938 43.967C113.724 42.9149 114.18 40.5143 114.511 38.5478C114.511 38.5478 114.62 38.1429 114.632 37.7671C114.645 37.4498 114.599 37.1492 114.373 37.1242Z" fill="url(#paint57_linear_5_671)"/>
<path d="M114.293 51.0436C113.737 49.8829 114.08 49.2776 109.248 48.6471C102.409 47.7495 101.823 49.8328 100.66 49.5155C100.618 49.503 100.568 49.4863 100.522 49.4654C99.2627 48.977 96.2967 46.067 96.2214 42.1467C96.1419 38.0719 98.8778 35.1828 98.8778 35.1828C97.8863 34.3519 97.4889 31.943 98.5599 30.9117C99.6308 29.8847 101.455 30.1227 105.931 30.5944C110.411 31.0704 110.411 30.7948 110.411 30.7948C111.834 31.1581 112.649 32.4899 112.879 32.9157C112.925 32.9992 112.946 33.0493 112.946 33.0493L113.503 32.5358C115.009 34.711 114.733 37.0824 114.733 37.0824C114.733 37.0824 117.188 32.0974 116.908 31.3919C116.398 30.0893 114.979 28.1896 114.892 28.0686L114.887 28.0644C114.887 28.0644 114.49 24.2693 113.302 24.2693C112.114 24.2693 107.039 25.4133 107.039 25.4133C107.596 24.1107 107.516 22.6077 107.516 22.6077C107.516 22.6077 107.508 22.616 107.495 22.6285C105.839 24.1107 104.22 24.2735 101.927 25.3339C100.773 25.8725 100.229 26.3693 99.7814 26.887L99.6266 27.0707L99.4635 27.267C99.3045 27.4674 99.1413 27.6719 98.9447 27.8807C98.9363 27.8932 98.9238 27.9016 98.9196 27.9057C98.9112 27.9141 98.9071 27.9183 98.9071 27.9183C98.723 28.1187 98.5055 28.3232 98.2419 28.5403C96.7359 29.7636 93.4227 30.5819 93.0253 31.8762C92.6279 33.1662 93.5273 34.9323 94.0042 36.7526C94.4769 38.5729 94.2594 40.1802 94.2594 40.1802C94.2594 40.1802 95.8365 42.2093 95.3136 45.1777C94.8492 47.8372 93.8327 48.2714 93.8327 48.2714C93.1173 49.7368 93.4562 51.1062 93.4562 51.1062C94.9203 56.9178 100.978 60.3789 100.978 60.3789C106.366 62.3829 109.909 61.5103 109.909 61.5103C109.909 61.5103 109.909 61.5103 109.913 61.5061C113.833 58.9552 115.176 50.5134 115.235 50.1209C115.168 50.2253 114.44 51.3525 114.293 51.0436ZM111.875 56.4252C110.926 56.2665 110.725 53.8659 110.411 53.5486C110.093 53.2355 108.374 53.3649 108.374 53.3649C108.374 53.3649 106.788 55.1601 106.157 55.2102C105.521 55.2645 102.141 53.8909 102.873 51.8368C103.601 49.7786 106.157 49.5155 106.157 49.5155C106.157 49.5155 107.479 50.6219 109.457 50.7513C111.44 50.8808 112.156 50.5175 112.39 50.4132C112.628 50.3046 113.904 50.8849 113.871 52.6802C113.85 53.9285 112.829 56.5838 111.875 56.4252Z" fill="url(#paint58_linear_5_671)"/>
<path d="M111.629 44.3428C111.629 44.3428 113.335 46.4595 113.172 47.2569C112.992 48.1295 111.014 48.5929 111.014 48.5929C111.014 48.5929 112.599 48.046 112.925 47.2569C112.93 47.2569 112.52 45.6537 111.629 44.3428Z" fill="#D2726C"/>
<path opacity="0.6" d="M114.733 37.0825C114.733 37.0825 115.009 34.7111 113.503 32.5359C114.712 30.3816 114.887 28.0645 114.887 28.0645L114.892 28.0686C115.302 29.0748 115.536 31.0329 115.536 31.0329L116.908 31.3919C117.188 32.0975 114.733 37.0825 114.733 37.0825Z" fill="url(#paint59_linear_5_671)"/>
<path opacity="0.6" d="M112.879 32.9157C112.649 32.4899 111.834 31.1581 110.411 30.7948C110.411 30.7948 110.411 31.0704 105.931 30.5944C101.455 30.1227 99.6308 29.8847 98.5599 30.9117C97.4889 31.943 97.8863 34.3519 98.8778 35.1828C98.8778 35.1828 96.1419 38.0719 96.2214 42.1467C96.2967 46.067 99.2627 48.977 100.522 49.4654L100.463 49.8996C100.463 49.8996 100.685 58.8759 102.873 59.5898C105.057 60.2996 109.591 59.9322 110.014 60.3538C110.415 60.7546 109.955 61.4435 109.913 61.5061C109.909 61.5103 109.909 61.5103 109.909 61.5103C109.909 61.5103 106.366 62.3829 100.978 60.3789C100.978 60.3789 94.9203 56.9178 93.4562 51.1062C93.4562 51.1062 93.1173 49.7368 93.8327 48.2714C93.8327 48.2714 94.8492 47.8372 95.3136 45.1777C95.8365 42.2093 94.2594 40.1802 94.2594 40.1802C94.2594 40.1802 94.4769 38.5729 94.0042 36.7526C93.5273 34.9323 92.6279 33.1662 93.0253 31.8762C95.5604 32.2728 97.2254 30.9535 97.2254 30.9535C97.2254 30.9535 97.6688 30.3398 99.6308 30.0225C101.593 29.7052 109.478 30.4984 109.478 30.4984C109.478 30.4984 108.688 29.8429 107.023 29.4087C105.45 28.9954 100.078 29.4755 99.5011 29.5215C100.116 29.4129 106.207 28.3692 106.901 28.5779C107.638 28.795 110.273 30.0016 110.273 30.0016C110.035 28.795 107.675 25.8892 107.675 25.8892C107.675 25.8892 104.345 25.9477 102.166 26.4027C100.221 26.8077 99.1539 27.697 98.9447 27.8807L99.4635 27.267L99.6266 27.0707L99.7814 26.887L100.543 26.7576L104.366 25.217C105.651 24.5323 107.295 22.8373 107.495 22.6285C107.508 22.616 107.516 22.6077 107.516 22.6077C107.516 22.6077 107.596 24.1107 107.039 25.4133C110.269 25.0166 111.361 25.217 111.361 25.217C112.829 27.292 112.879 32.9157 112.879 32.9157Z" fill="url(#paint60_linear_5_671)"/>
<path opacity="0.5" d="M100.978 60.379C100.978 60.379 102.957 59.9114 105.943 60.0325C108.93 60.1535 110.65 60.1661 109.909 61.5104C109.909 61.5104 106.157 62.3579 100.978 60.379Z" fill="url(#paint61_linear_5_671)"/>
<path d="M111.361 25.2171C111.361 25.2171 113.176 24.5116 113.896 24.6243C113.896 24.6243 113.612 24.2444 113.314 24.165C113.017 24.0857 107.039 25.4092 107.039 25.4092C107.039 25.4092 110.767 24.9792 111.361 25.2171Z" fill="url(#paint62_linear_5_671)"/>
<path d="M107.675 25.8893C107.675 25.8893 107.533 27.8641 106.901 28.578L99.5011 29.5215L97.33 29.1374C97.33 29.1374 98.1708 28.7784 99.0953 27.7054C100.016 26.6283 104.843 25.572 107.675 25.8893Z" fill="url(#paint63_linear_5_671)"/>
<path d="M114.887 28.0645C114.887 28.0645 115.49 30.0058 115.536 31.0329L116.908 31.3919C116.908 31.3919 116.49 29.9223 114.887 28.0645Z" fill="url(#paint64_linear_5_671)"/>
<path opacity="0.8" d="M94.7238 44.873C94.7238 44.873 94.205 42.3805 92.9291 41.1489C91.6532 39.9173 90.2016 40.3097 90.2016 40.3097C90.2016 40.3097 90.599 44.9314 91.0131 46.0587C91.4273 47.1859 92.0632 47.4824 92.0632 47.4824C92.0632 47.4824 91.1721 46.7016 91.0508 45.1736C90.9337 43.6455 90.8918 41.4912 91.2307 41.2324C91.5695 40.9735 92.9291 41.9797 92.9291 41.9797C92.9291 41.9797 92.4982 42.5058 92.243 43.8668C91.9837 45.2279 92.9375 46.2173 93.2931 46.1965C93.6486 46.1756 93.2721 44.6225 93.3307 44.1716C93.3893 43.729 94.1799 43.8251 94.7238 44.873Z" fill="url(#paint65_linear_5_671)"/>
<path opacity="0.8" d="M93.4478 41.7793C93.4478 41.7793 92.0548 42.6936 92.2054 44.564C92.356 46.4386 93.4269 46.3551 93.4311 45.9626C93.4353 45.5702 93.2261 44.5557 93.3349 43.9837C93.4437 43.4117 94.3682 43.6706 94.3682 43.6706C94.3682 43.6706 93.7658 42.1843 93.4478 41.7793Z" fill="url(#paint66_linear_5_671)"/>
<path d="M115.235 50.1208C115.235 50.1208 113.503 57.9991 109.909 61.5102C109.909 61.5102 114.009 59.9029 115.235 50.1208Z" fill="#34C7FF"/>
<path d="M113.314 24.1692C113.314 24.1692 114.226 24.8789 114.402 27.338C114.574 29.8013 113.507 32.5359 113.507 32.5359C113.507 32.5359 114.879 30.4901 115.013 28.2482C115.138 26.0062 114.038 24.4531 113.314 24.1692Z" fill="#34C7FF"/>
<path d="M102.254 29.3252C102.254 29.3252 104.366 30.0433 106.684 30.2479C109.001 30.4525 109.478 30.4984 109.478 30.4984C109.478 30.4984 108.545 29.5966 106.563 29.3252C104.58 29.0538 102.254 29.3252 102.254 29.3252Z" fill="url(#paint67_linear_5_671)"/>
<path d="M112.461 50.2922C112.461 50.2922 113.473 50.2922 113.871 51.5572C114.189 52.5675 114.277 53.4359 114.277 53.4359L114.636 52.0498C114.636 52.0498 114.168 50.2922 113.683 49.8955C113.331 49.6116 112.729 49.3236 112.444 49.3904L112.461 50.2922Z" fill="url(#paint68_linear_5_671)"/>
<path d="M109.738 49.0269L109.909 50.5299C109.909 50.5299 111.139 50.6301 111.955 50.292L112.101 49.3818C112.101 49.3818 110.533 48.9894 109.738 49.0269Z" fill="url(#paint69_linear_5_671)"/>
<path d="M115.356 68.4534C115.356 68.4534 122.564 73.7055 123.497 75.5133C124.434 77.3211 124.81 82.9865 126.074 85.4414C126.074 85.4414 125.208 81.4293 124.601 78.2855C123.995 75.1417 124.141 75.0958 123.802 74.3234C123.472 73.551 118.088 69.8228 115.356 68.4534Z" fill="#34C7FF"/>
<path d="M114.063 97.6951C114.063 97.6951 110.591 112.533 110.746 113.535C110.905 114.537 113.151 116.583 113.256 117.142C113.256 117.142 111.537 119.438 111.616 119.948C111.696 120.457 114.628 123.672 114.549 124.67C114.528 124.958 112.624 128.089 112.624 128.089C112.624 128.089 114.774 125.012 114.879 124.519C114.984 124.027 112.244 119.914 112.164 119.497C111.955 118.416 113.532 117.618 113.582 116.908C113.637 116.194 111.453 114.458 111.432 113.297C111.424 112.141 114.063 97.6951 114.063 97.6951Z" fill="#34C7FF"/>
<path d="M114.77 133.07C114.77 133.07 122.279 150.033 124.84 167C124.84 167 124.413 150.442 114.77 133.07Z" fill="#34C7FF"/>
<path d="M67.1597 65.0466C67.1597 65.0466 65.2187 64.6333 64.4113 62.9424C63.6039 61.2515 64.131 58.8008 64.131 58.8008C64.131 58.8008 65.6537 61.7149 66.4109 62.7086C67.1681 63.7022 67.3731 64.8337 67.1597 65.0466Z" fill="#FFBCAF"/>
<path opacity="0.6" d="M127.111 56.2037L128.458 94.5302C128.513 96.0499 129.763 97.2565 131.286 97.2565H197.437C198.972 97.2565 200.227 96.0332 200.265 94.501L201.19 55.7278C201.227 54.1329 199.939 52.8262 198.341 52.8345L129.918 53.2812C128.324 53.2896 127.053 54.6131 127.111 56.2037Z" fill="#36D1F7"/>
<path d="M197.437 97.3568H131.286C129.696 97.3568 128.408 96.1168 128.354 94.5303L127.007 56.2038C126.977 55.4064 127.266 54.6508 127.822 54.0746C128.374 53.4985 129.119 53.177 129.922 53.1728L198.349 52.7261C199.144 52.7302 199.901 53.0308 200.462 53.6028C201.022 54.1748 201.323 54.9263 201.303 55.7237L200.378 94.4969C200.332 96.1001 199.044 97.3568 197.437 97.3568ZM198.362 52.9348C198.357 52.9348 198.349 52.9348 198.345 52.9348L129.918 53.3815C129.173 53.3857 128.483 53.6821 127.969 54.2165C127.454 54.7509 127.186 55.4524 127.211 56.1955L128.559 94.522C128.609 95.9958 129.805 97.1481 131.282 97.1481H197.433C198.901 97.1481 200.123 95.9582 200.156 94.4928L201.081 55.7196C201.098 54.9764 200.821 54.2792 200.299 53.749C199.788 53.2229 199.102 52.9348 198.362 52.9348Z" fill="#744CA2"/>
<path opacity="0.6" d="M127.207 58.1536H201.11L201.227 56.1329C201.332 54.346 199.901 52.843 198.106 52.8555L129.709 53.3941C128.282 53.4066 127.136 54.5798 127.165 56.0035L127.207 58.1536Z" fill="url(#paint70_linear_5_671)"/>
<path opacity="0.3" d="M130.926 61.2473V83.4249H153.546V61.1304L130.926 61.2473Z" fill="url(#paint71_linear_5_671)"/>
<path opacity="0.3" d="M185.247 62.7336H175.408V72.5532H185.247V62.7336Z" fill="url(#paint72_linear_5_671)"/>
<path opacity="0.3" d="M196.856 62.7336H187.016V72.5532H196.856V62.7336Z" fill="url(#paint73_linear_5_671)"/>
<path opacity="0.3" d="M173.442 62.7336H163.602V72.5532H173.442V62.7336Z" fill="url(#paint74_linear_5_671)"/>
<path d="M196.856 78.2812H171.693V80.6318H196.856V78.2812Z" fill="#D1D4FB"/>
<path d="M196.86 81.8591H165.401V82.5856H196.86V81.8591Z" fill="#D1D4FB"/>
<path d="M171.718 73.8057H165.698V74.5321H171.718V73.8057Z" fill="#D1D4FB"/>
<path d="M183.339 73.8057H177.319V74.5321H183.339V73.8057Z" fill="#D1D4FB"/>
<path d="M194.948 73.8057H188.928V74.5321H194.948V73.8057Z" fill="#D1D4FB"/>
<path d="M173.722 83.0449H163.602V83.7714H173.722V83.0449Z" fill="#D1D4FB"/>
<path d="M196.86 84.2139H165.401V84.9403H196.86V84.2139Z" fill="#D1D4FB"/>
<path d="M196.856 85.3828H163.602V86.1093H196.856V85.3828Z" fill="#D1D4FB"/>
<path d="M196.856 86.552H163.602V87.2785H196.856V86.552Z" fill="#D1D4FB"/>
<path d="M196.86 91.2781H165.401V92.0045H196.86V91.2781Z" fill="#D1D4FB"/>
<path d="M196.856 92.447H163.602V93.1735H196.856V92.447Z" fill="#D1D4FB"/>
<path d="M196.856 93.616H163.602V94.3424H196.856V93.616Z" fill="#D1D4FB"/>
<path d="M195.521 87.7209H163.602V88.4474H195.521V87.7209Z" fill="#D1D4FB"/>
<path d="M196.86 88.8899H165.401V89.6163H196.86V88.8899Z" fill="#D1D4FB"/>
<path d="M190.547 90.0588H163.602V90.7853H190.547V90.0588Z" fill="#D1D4FB"/>
<path d="M137.264 78.9785C133.717 78.9785 130.83 76.0978 130.83 72.5574C130.83 69.017 133.717 66.1362 137.264 66.1362C140.812 66.1362 143.698 69.017 143.698 72.5574C143.698 76.0978 140.812 78.9785 137.264 78.9785ZM137.264 66.5496C133.947 66.5496 131.248 69.2424 131.248 72.5532C131.248 75.864 133.947 78.5569 137.264 78.5569C140.581 78.5569 143.28 75.864 143.28 72.5532C143.28 69.2424 140.581 66.5496 137.264 66.5496Z" fill="#E0FFFF"/>
<path d="M137.264 76.0433C139.196 76.0433 140.761 74.4807 140.761 72.553C140.761 70.6254 139.196 69.0627 137.264 69.0627C135.333 69.0627 133.767 70.6254 133.767 72.553C133.767 74.4807 135.333 76.0433 137.264 76.0433Z" fill="white"/>
<path d="M153.546 67.5515C149.998 67.5515 147.112 64.6708 147.112 61.1304C147.112 57.59 149.998 54.7092 153.546 54.7092C157.093 54.7092 159.98 57.59 159.98 61.1304C159.984 64.6708 157.093 67.5515 153.546 67.5515ZM153.546 55.1226C150.228 55.1226 147.53 57.8154 147.53 61.1262C147.53 64.437 150.228 67.1299 153.546 67.1299C156.863 67.1299 159.561 64.437 159.561 61.1262C159.565 57.8196 156.863 55.1226 153.546 55.1226Z" fill="#E0FFFF"/>
<path d="M156.789 61.6459C157.072 59.8534 155.845 58.1717 154.049 57.8897C152.253 57.6077 150.568 58.8322 150.285 60.6247C150.002 62.4172 151.229 64.099 153.026 64.381C154.822 64.663 156.507 63.4384 156.789 61.6459Z" fill="white"/>
<path d="M129.797 55.1433L130.27 54.4336L132.813 56.6547L132.42 57.1974L129.797 55.1433Z" fill="white"/>
<path d="M132.876 55.1433L132.407 54.4336L129.864 56.6547L130.253 57.1974L132.876 55.1433Z" fill="white"/>
<path d="M199.324 54.9138H176.55V56.0536H199.324V54.9138Z" fill="white"/>
<path d="M56.7014 38.4601V48.3256L68.5235 48.4258L68.6825 38.147L56.7014 38.4601Z" fill="url(#paint75_linear_5_671)"/>
<path d="M68.6825 38.147L69.4522 39.4412L69.0674 48.4133L68.5235 48.4258L68.6825 38.147Z" fill="url(#paint76_linear_5_671)"/>
<path d="M58.814 41.7918L59.9058 40.2095L65.8043 45.1527L64.9007 46.3592L58.814 41.7918Z" fill="white"/>
<path d="M65.9591 41.7918L64.8673 40.2095L58.9646 45.1527L59.8682 46.3592L65.9591 41.7918Z" fill="white"/>
<path opacity="0.81" d="M84.2779 154.55H43.8293C42.0305 154.55 40.5579 153.114 40.5161 151.319L39.7589 118.207C39.7171 116.353 41.2105 114.825 43.0721 114.825H85.1857C87.0515 114.825 88.5491 116.362 88.4989 118.224L87.587 151.336C87.5409 153.127 86.0726 154.55 84.2779 154.55Z" fill="url(#paint77_linear_5_671)"/>
<path d="M84.278 154.655H43.8293C41.9886 154.655 40.4534 153.16 40.4115 151.323L39.6543 118.211C39.6334 117.284 39.9806 116.412 40.629 115.748C41.2775 115.088 42.1434 114.721 43.0721 114.721H85.1857C86.1144 114.721 86.9846 115.088 87.633 115.752C88.2814 116.416 88.6244 117.297 88.5993 118.224L87.6874 151.335C87.6414 153.198 86.1437 154.655 84.278 154.655ZM43.0763 114.934C42.2062 114.934 41.3904 115.276 40.7838 115.898C40.1731 116.52 39.8509 117.343 39.8719 118.211L40.629 151.323C40.6667 153.047 42.1058 154.45 43.8377 154.45H84.2863C86.035 154.45 87.4447 153.081 87.4949 151.335L88.4069 118.224C88.432 117.351 88.1099 116.528 87.4991 115.902C86.8884 115.276 86.0726 114.934 85.1983 114.934H43.0763Z" fill="#473DA2"/>
<path d="M71.9371 121.601H50.6649V122.511H71.9371V121.601Z" fill="white"/>
<path d="M61.2989 123.81H50.6649V124.72H61.2989V123.81Z" fill="white"/>
<path d="M61.2989 125.659H50.6649V126.569H61.2989V125.659Z" fill="white"/>
<path d="M70.9582 125.659H62.4953V126.569H70.9582V125.659Z" fill="white"/>
<path d="M67.8123 127.505H50.6649V128.415H67.8123V127.505Z" fill="white"/>
<path d="M56.7683 129.35H50.6649V130.26H56.7683V129.35Z" fill="white"/>
<path d="M68.5779 134.886H58.0233V135.796H68.5779V134.886Z" fill="white"/>
<path d="M69.7952 131.195H50.6649V132.105H69.7952V131.195Z" fill="white"/>
<path d="M65.3818 133.041H50.6649V133.951H65.3818V133.041Z" fill="white"/>
<path d="M57.5883 134.886H50.6649V135.796H57.5883V134.886Z" fill="white"/>
<path d="M61.2989 136.731H50.6649V137.641H61.2989V136.731Z" fill="white"/>
<path d="M53.7145 138.577H50.6649V139.487H53.7145V138.577Z" fill="white"/>
<path d="M66.0428 138.577H54.9737V139.487H66.0428V138.577Z" fill="white"/>
<path d="M68.5779 140.368H58.0233V141.278H68.5779V140.368Z" fill="white"/>
<path d="M57.5883 140.368H50.6649V141.278H57.5883V140.368Z" fill="white"/>
<path d="M61.2989 142.213H50.6649V143.123H61.2989V142.213Z" fill="white"/>
<path d="M53.7145 144.058H50.6649V144.969H53.7145V144.058Z" fill="white"/>
<path d="M66.0428 144.058H54.9737V144.969H66.0428V144.058Z" fill="white"/>
<path d="M192.815 45.4407C192.815 46.4719 191.978 47.3069 190.945 47.3069C189.911 47.3069 189.075 46.4719 189.075 45.4407C189.075 44.4095 189.911 43.5745 190.945 43.5745C191.978 43.5745 192.815 44.4095 192.815 45.4407Z" fill="url(#paint78_linear_5_671)"/>
<path d="M17.5747 88.7105C17.5747 89.9922 16.533 91.0318 15.2488 91.0318C13.9645 91.0318 12.9228 89.9922 12.9228 88.7105C12.9228 87.4287 13.9645 86.3892 15.2488 86.3892C16.533 86.3892 17.5747 87.4287 17.5747 88.7105Z" fill="url(#paint79_linear_5_671)"/>
<path d="M196.433 47.3069C197.466 47.3069 198.303 46.4714 198.303 45.4407C198.303 44.41 197.466 43.5745 196.433 43.5745C195.4 43.5745 194.563 44.41 194.563 45.4407C194.563 46.4714 195.4 47.3069 196.433 47.3069Z" fill="url(#paint80_linear_5_671)"/>
<path d="M75.882 59.5898C76.6121 59.5898 77.2039 58.9991 77.2039 58.2705C77.2039 57.5418 76.6121 56.9512 75.882 56.9512C75.1519 56.9512 74.5601 57.5418 74.5601 58.2705C74.5601 58.9991 75.1519 59.5898 75.882 59.5898Z" fill="url(#paint81_linear_5_671)"/>
<path d="M164.426 117.802C165.156 117.802 165.748 117.211 165.748 116.482C165.748 115.754 165.156 115.163 164.426 115.163C163.696 115.163 163.104 115.754 163.104 116.482C163.104 117.211 163.696 117.802 164.426 117.802Z" fill="url(#paint82_linear_5_671)"/>
<path d="M26.9956 130.815C27.6471 130.815 28.1753 130.288 28.1753 129.638C28.1753 128.988 27.6471 128.46 26.9956 128.46C26.344 128.46 25.8159 128.988 25.8159 129.638C25.8159 130.288 26.344 130.815 26.9956 130.815Z" fill="url(#paint83_linear_5_671)"/>
<path opacity="0.73" d="M47.1383 118.056H26.7237C25.0796 118.056 23.7326 116.758 23.6782 115.117L23.2264 101.716C23.1678 99.9955 24.5483 98.5718 26.2719 98.5718H47.5483C49.2677 98.5718 50.6482 99.9913 50.5938 101.707L50.1838 115.109C50.1336 116.75 48.7866 118.056 47.1383 118.056Z" fill="url(#paint84_linear_5_671)"/>
<path d="M47.1383 118.161H26.7237C25.0169 118.161 23.6322 116.825 23.5736 115.121L23.1218 101.72C23.0925 100.86 23.4063 100.045 24.0045 99.4275C24.6027 98.8096 25.4101 98.4673 26.2719 98.4673H47.5483C48.4101 98.4673 49.2133 98.8055 49.8115 99.4234C50.4097 100.041 50.7276 100.851 50.6983 101.711L50.2884 115.113C50.2382 116.821 48.8535 118.161 47.1383 118.161ZM26.2719 98.6802C25.4687 98.6802 24.7157 98.9975 24.1551 99.5737C23.5945 100.15 23.3017 100.91 23.331 101.715L23.7828 115.117C23.8372 116.708 25.1298 117.956 26.7237 117.956H47.1383C48.7364 117.956 50.029 116.704 50.0792 115.109L50.4892 101.707C50.5143 100.905 50.2173 100.15 49.6609 99.5737C49.1003 98.9975 48.3515 98.6802 47.5483 98.6802H26.2719Z" fill="#953DA2"/>
<path d="M32.1662 103.39L27.1336 109.214L32.2624 113.556V111.314L29.2964 108.75L32.0491 105.644L32.1662 103.39Z" fill="white"/>
<path d="M41.0139 103.653L46.0507 109.473L40.9219 113.815V111.577L43.8879 109.013L40.5872 105.527L41.0139 103.653Z" fill="white"/>
<path d="M33.2664 113.556L37.6505 103.911H39.7129L34.7431 113.556H33.2664Z" fill="white"/>
<path opacity="0.73" d="M184.49 145.632H158.95C156.896 145.632 155.211 144.008 155.139 141.958L154.571 125.196C154.499 123.045 156.223 121.263 158.382 121.263H185C187.15 121.263 188.874 123.037 188.811 125.183L188.297 141.946C188.238 144 186.552 145.632 184.49 145.632Z" fill="url(#paint85_linear_5_671)"/>
<path d="M184.49 145.737H158.95C156.825 145.737 155.11 144.079 155.035 141.962L154.466 125.2C154.428 124.131 154.821 123.121 155.566 122.352C156.311 121.584 157.311 121.163 158.382 121.163H185C186.067 121.163 187.067 121.584 187.811 122.348C188.556 123.112 188.949 124.123 188.916 125.187L188.405 141.95C188.338 144.071 186.619 145.737 184.49 145.737ZM158.386 121.367C157.373 121.367 156.424 121.768 155.721 122.494C155.018 123.221 154.646 124.181 154.679 125.191L155.248 141.954C155.315 143.958 156.942 145.528 158.955 145.528H184.494C186.51 145.528 188.138 143.954 188.2 141.942L188.715 125.179C188.744 124.169 188.376 123.213 187.669 122.49C186.966 121.764 186.021 121.367 185.008 121.367H158.386Z" fill="#953DA2"/>
<path d="M183.084 123.96H159.695V137.825H183.084V123.96Z" fill="#D1D4FB"/>
<path d="M169.317 127.4V134.385L175.295 130.573L169.317 127.4Z" fill="white"/>
<path d="M183.084 140.38H159.695V141.649H183.084V140.38Z" fill="#D1D4FB"/>
<path d="M165.748 140.38H159.695V141.649H165.748V140.38Z" fill="white"/>
<path fill-rule="evenodd" clip-rule="evenodd" d="M142.556 119.58L141.334 123.066C142.012 121.137 142.983 119.889 142.556 119.58ZM141.339 123.062L140.117 126.548C140.422 126.456 140.661 124.991 141.339 123.062ZM142.556 119.58L141.334 123.066C142.012 121.137 142.983 119.889 142.556 119.58ZM141.339 123.062L140.117 126.548C140.422 126.456 140.661 124.991 141.339 123.062ZM144.861 126.085L146.045 126.757L147.325 123.271L145.953 123.041C145.978 122.912 146.003 122.782 146.02 122.653C146.12 122.056 146.154 121.471 146.137 120.916L147.572 120.019L146.919 116.946L145.543 118.257C145.35 117.864 145.116 117.522 144.84 117.234C144.765 117.15 144.685 117.075 144.602 117.004L145.442 115.067L143.204 114.341L142.669 116.294C142.167 116.294 141.661 116.42 141.155 116.649L140.908 114.804L138.444 116.666L139.013 118.303C138.569 118.808 138.163 119.392 137.812 120.048L136.624 119.38L135.344 122.866L136.716 123.096C136.57 123.83 136.515 124.544 136.536 125.221L135.101 126.118L135.754 129.191L137.13 127.88C137.377 128.381 137.691 128.807 138.071 129.133L137.231 131.074L139.431 131.93L139.77 130.694L140 129.851C140.502 129.851 141.012 129.725 141.518 129.5L141.761 131.345L144.225 129.483L143.656 127.847C144.003 127.45 144.33 127.003 144.627 126.511C144.71 126.36 144.786 126.223 144.861 126.085ZM141.339 123.062C140.661 124.987 141.339 126.974 140.117 126.548C138.891 126.118 138.444 124.21 139.121 122.29C139.799 120.365 141.339 119.154 142.56 119.58C143.786 120.006 142.012 121.137 141.339 123.062ZM142.556 119.58L141.334 123.066C142.012 121.137 142.983 119.889 142.556 119.58ZM141.339 123.062L140.117 126.548C140.422 126.456 140.661 124.991 141.339 123.062Z" fill="url(#paint86_linear_5_671)"/>
<path fill-rule="evenodd" clip-rule="evenodd" d="M146.049 126.753L147.329 123.267L146.024 122.649L145.815 122.549L145.953 120.628L147.4 119.923L146.923 116.942L143.765 115.915L144.346 117.297L145.447 115.059L143.209 114.332L142.288 114.032L140.084 113.176L139.674 114.679L137.753 113.769L135.289 115.631L136.038 117.643L133.733 124.014L132.595 128.152L134.783 128.389L134.072 130.03L136.277 130.886L139.431 131.913L138.925 130.903L138.607 130.297L139.774 130.677L141.765 131.325L144.229 129.462L142.707 127.671L144.631 126.49L146.049 126.753ZM139.117 122.29C139.795 120.365 141.334 119.154 142.556 119.58L141.334 123.066L140.113 126.552C138.887 126.118 138.44 124.21 139.117 122.29Z" fill="url(#paint87_linear_5_671)"/>
<path fill-rule="evenodd" clip-rule="evenodd" d="M142.891 125.726L144.171 122.24L142.799 122.01C142.945 121.275 142.999 120.562 142.983 119.889L144.418 118.992L143.765 115.919L142.389 117.23C142.146 116.729 141.828 116.303 141.447 115.977L142.288 114.04L140.084 113.184L139.515 115.268C139.013 115.272 138.502 115.393 138 115.618L137.758 113.773L135.294 115.631L135.863 117.267C135.419 117.773 135.013 118.361 134.662 119.017L133.474 118.349L132.194 121.835L133.566 122.065C133.42 122.799 133.365 123.513 133.382 124.185L131.947 125.083L132.6 128.156L133.976 126.845C134.219 127.346 134.537 127.772 134.917 128.097L134.076 130.035L136.281 130.891L136.85 128.807C137.352 128.803 137.862 128.682 138.364 128.456L138.607 130.302L141.071 128.444L140.502 126.807C140.945 126.302 141.351 125.714 141.703 125.058L142.891 125.726ZM136.954 125.521C135.729 125.091 135.285 123.188 135.959 121.263C136.632 119.338 138.176 118.128 139.402 118.553C140.627 118.983 141.071 120.887 140.397 122.812C139.724 124.737 138.18 125.947 136.954 125.521Z" fill="url(#paint88_linear_5_671)"/>
<path opacity="0.5" fill-rule="evenodd" clip-rule="evenodd" d="M147.572 120.014L144.418 118.991L142.983 119.889L146.137 120.912L147.572 120.014Z" fill="#601734"/>
<path fill-rule="evenodd" clip-rule="evenodd" d="M144.229 129.467L141.071 128.44L140.502 126.807L143.66 127.834L144.229 129.467Z" fill="#B3D9FF"/>
<path opacity="0.5" fill-rule="evenodd" clip-rule="evenodd" d="M141.443 115.977L143.175 116.478L143.761 115.919L144.911 116.29L145.442 115.063L142.288 114.04L141.443 115.977Z" fill="#601734"/>
<path opacity="0.5" fill-rule="evenodd" clip-rule="evenodd" d="M136.846 128.811L138.498 129.496L138.36 128.456C138.364 128.456 137.473 128.928 136.846 128.811Z" fill="#601734"/>
<path opacity="0.5" fill-rule="evenodd" clip-rule="evenodd" d="M137.101 119.363L139.883 120.833C139.883 120.833 140.284 120.294 140.598 120.077C140.602 120.077 139.874 117.013 137.101 119.363Z" fill="#601734"/>
<path d="M73.2005 15.4307L75.882 20.7955L74.0915 21.6097L71.5815 16.6832L73.2005 15.4307Z" fill="#FF1D9C"/>
<path d="M12.7722 140.405L15.2571 143.127L16.2318 142.004L13.885 139.428L12.7722 140.405Z" fill="#6877FF"/>
<path d="M139.013 48.1669L136.511 49.6824L135.511 47.7828L138.247 46.1921L139.013 48.1669Z" fill="#4F31E0"/>
<path d="M151.333 144.071L147.747 146.613L146.743 144.718L150.224 142.689L151.333 144.071Z" fill="#4F31E0"/>
<path fill-rule="evenodd" clip-rule="evenodd" d="M146.597 35.1951L145.991 21.1421H164.426L163.669 35.1534L146.597 35.1951Z" fill="url(#paint89_linear_5_671)"/>
<path fill-rule="evenodd" clip-rule="evenodd" d="M145.99 21.1421L145.438 21.9687L145.99 35.1951H146.597L145.99 21.1421Z" fill="url(#paint90_linear_5_671)"/>
<path d="M152.111 23.9476L149.22 23.6387L149.613 33.2662L152.111 33.0241V32.0262L150.663 32.0596L150.5 24.6365L152.111 24.6824V23.9476Z" fill="white"/>
<path d="M158.038 23.9476L160.929 23.6387L160.532 33.2662L158.038 33.0241V32.0262L159.482 32.0596L159.649 24.6365L158.038 24.6824V23.9476Z" fill="white"/>
<path fill-rule="evenodd" clip-rule="evenodd" d="M19.4698 65.9566L19.8839 56.375H7.31717L7.83172 65.9274L19.4698 65.9566Z" fill="url(#paint91_linear_5_671)"/>
<path fill-rule="evenodd" clip-rule="evenodd" d="M19.8839 56.375L20.2604 56.9428L19.8839 65.9566H19.4698L19.8839 56.375Z" fill="url(#paint92_linear_5_671)"/>
<path d="M15.0438 58.3038C15.0438 58.3038 16.4201 58.2496 16.6669 58.3623C16.9095 58.475 16.6042 60.717 16.6042 60.717L17.1522 61.2222L16.6376 61.719C16.6376 61.719 16.6627 63.9902 16.3406 64.1781C16.0143 64.3659 14.9099 64.1781 14.9099 64.1781V63.6103C14.9099 63.6103 15.8135 63.6687 15.9641 63.5476C16.1147 63.4266 16.098 61.4434 16.098 61.4434L16.3406 61.1762L16.098 60.8882C16.098 60.8882 16.144 59.4728 16.1147 59.0846C16.098 58.8257 15.0438 58.8132 15.0438 58.8132V58.3038Z" fill="white"/>
<path d="M11.8854 58.3038C11.8854 58.3038 10.5091 58.2496 10.2622 58.3623C10.0196 58.475 10.325 60.717 10.325 60.717L9.77698 61.2222L10.2915 61.719C10.2915 61.719 10.2664 63.9902 10.5885 64.1781C10.9107 64.3659 12.0192 64.1781 12.0192 64.1781V63.6103C12.0192 63.6103 11.1156 63.6687 10.965 63.5476C10.8144 63.4266 10.8312 61.4434 10.8312 61.4434L10.5885 61.1762L10.8312 60.8882C10.8312 60.8882 10.7852 59.4728 10.8144 59.0846C10.8312 58.8257 11.8854 58.8132 11.8854 58.8132V58.3038Z" fill="white"/>
<path d="M125.521 36.4603L122.443 28.415L130.428 30.0809L125.521 36.4603ZM122.773 28.6989L125.584 36.0386L130.06 30.2186L122.773 28.6989Z" fill="#744CA2"/>
<path d="M150.129 146.715L147.423 150.398L147.592 150.522L150.297 146.838L150.129 146.715Z" fill="#744CA2"/>
<path d="M122.2 116.549L119.292 112.938L119.456 112.809L122.363 116.42L122.2 116.549Z" fill="#744CA2"/>
<path d="M32.5385 141.9L26.7362 137.7L26.8575 137.533L32.6598 141.733L32.5385 141.9Z" fill="#744CA2"/>
<path d="M31.7884 136.813L27.4458 142.502L27.6122 142.629L31.9548 136.94L31.7884 136.813Z" fill="#744CA2"/>
<path d="M19.514 78.1602L19.4167 78.345L23.1716 80.3139L23.2689 80.1292L19.514 78.1602Z" fill="#744CA2"/>
<path d="M167.434 29.797L167.279 29.6592L171.618 24.7202L171.772 24.858L167.434 29.797Z" fill="#744CA2"/>
<path d="M83.1521 41.742L82.9648 41.835L84.9045 45.7261L85.0917 45.6331L83.1521 41.742Z" fill="#744CA2"/>
<path d="M57.2608 107.214L52.2746 111.377L52.4088 111.537L57.395 107.374L57.2608 107.214Z" fill="#744CA2"/>
<defs>
<linearGradient id="paint0_linear_5_671" x1="50.3358" y1="101.82" x2="37.7708" y2="74.8737" gradientUnits="userSpaceOnUse">
<stop stop-color="#DBCCFF"/>
<stop offset="1" stop-color="#D1BBFF"/>
</linearGradient>
<linearGradient id="paint1_linear_5_671" x1="50.8259" y1="102.872" x2="38.261" y2="75.9248" gradientUnits="userSpaceOnUse">
<stop stop-color="#B5A6E7"/>
<stop offset="1" stop-color="#7760BF"/>
</linearGradient>
<linearGradient id="paint2_linear_5_671" x1="47.6919" y1="96.1773" x2="42.3955" y2="84.8188" gradientUnits="userSpaceOnUse">
<stop stop-color="#B5A6E7"/>
<stop offset="1" stop-color="#7760BF"/>
</linearGradient>
<linearGradient id="paint3_linear_5_671" x1="40.8706" y1="85.8064" x2="44.0962" y2="84.2964" gradientUnits="userSpaceOnUse">
<stop stop-color="#8B8BE0"/>
<stop offset="1" stop-color="#A177B7"/>
</linearGradient>
<linearGradient id="paint4_linear_5_671" x1="42.8346" y1="85.8016" x2="41.9247" y2="83.8501" gradientUnits="userSpaceOnUse">
<stop stop-color="white"/>
<stop offset="1" stop-color="#A177B7"/>
</linearGradient>
<linearGradient id="paint5_linear_5_671" x1="49.9415" y1="96.5398" x2="44.1028" y2="84.018" gradientUnits="userSpaceOnUse">
<stop/>
<stop offset="1" stop-color="white"/>
</linearGradient>
<linearGradient id="paint6_linear_5_671" x1="97.2587" y1="167" x2="97.2587" y2="129.755" gradientUnits="userSpaceOnUse">
<stop stop-color="#6456C0"/>
<stop offset="1" stop-color="#5F2C95"/>
</linearGradient>
<radialGradient id="paint7_radial_5_671" cx="0" cy="0" r="1" gradientUnits="userSpaceOnUse" gradientTransform="translate(79.0862 153.605) rotate(12.9677) scale(7.49753 19.3367)">
<stop stop-color="#4B474B"/>
<stop offset="1"/>
</radialGradient>
<radialGradient id="paint8_radial_5_671" cx="0" cy="0" r="1" gradientUnits="userSpaceOnUse" gradientTransform="translate(113.892 153.417) rotate(-15.6285) scale(7.49745 19.3371)">
<stop stop-color="#4B474B"/>
<stop offset="1"/>
</radialGradient>
<linearGradient id="paint9_linear_5_671" x1="85.1804" y1="153.925" x2="94.9683" y2="153.925" gradientUnits="userSpaceOnUse">
<stop stop-color="#9E8CEF"/>
<stop offset="1" stop-color="#CAAFEE"/>
</linearGradient>
<linearGradient id="paint10_linear_5_671" x1="108.053" y1="153.925" x2="98.2641" y2="153.925" gradientUnits="userSpaceOnUse">
<stop stop-color="#9E8CEF"/>
<stop offset="1" stop-color="#CAAFEE"/>
</linearGradient>
<linearGradient id="paint11_linear_5_671" x1="95.9453" y1="167" x2="95.9453" y2="129.755" gradientUnits="userSpaceOnUse">
<stop stop-color="#CCCCFF"/>
<stop offset="1" stop-color="#755CBB"/>
</linearGradient>
<linearGradient id="paint12_linear_5_671" x1="100.29" y1="148.377" x2="100.29" y2="138.219" gradientUnits="userSpaceOnUse">
<stop stop-color="#CCCCFF"/>
<stop offset="1" stop-color="#755CBB"/>
</linearGradient>
<linearGradient id="paint13_linear_5_671" x1="88.5003" y1="144.642" x2="88.5003" y2="134.689" gradientUnits="userSpaceOnUse">
<stop stop-color="#CCCCFF"/>
<stop offset="1" stop-color="#755CBB"/>
</linearGradient>
<linearGradient id="paint14_linear_5_671" x1="98.6151" y1="73.668" x2="98.6151" y2="58.8008" gradientUnits="userSpaceOnUse">
<stop stop-color="#D5CDF8"/>
<stop offset="1" stop-color="#F3EDFB"/>
</linearGradient>
<linearGradient id="paint15_linear_5_671" x1="90.9462" y1="66.2198" x2="106.284" y2="66.2198" gradientUnits="userSpaceOnUse">
<stop stop-color="#CCCCFF"/>
<stop offset="1" stop-color="#755CBB"/>
</linearGradient>
<linearGradient id="paint16_linear_5_671" x1="94.2293" y1="133.069" x2="94.2293" y2="58.1536" gradientUnits="userSpaceOnUse">
<stop stop-color="#9E8CEF"/>
<stop offset="1" stop-color="#CAAFEE"/>
</linearGradient>
<linearGradient id="paint17_linear_5_671" x1="63.0768" y1="86.3869" x2="81.358" y2="86.3869" gradientUnits="userSpaceOnUse">
<stop stop-color="#CCCCFF"/>
<stop offset="1" stop-color="#755CBB"/>
</linearGradient>
<linearGradient id="paint18_linear_5_671" x1="62.5114" y1="107.369" x2="62.5114" y2="72.3362" gradientUnits="userSpaceOnUse">
<stop stop-color="#9E8CEF"/>
<stop offset="1" stop-color="#DAC7F3"/>
</linearGradient>
<linearGradient id="paint19_linear_5_671" x1="122.873" y1="97.2718" x2="146.428" y2="97.2718" gradientUnits="userSpaceOnUse">
<stop stop-color="#A999F1"/>
<stop offset="1" stop-color="#DAC7F3"/>
</linearGradient>
<linearGradient id="paint20_linear_5_671" x1="54.8495" y1="67.5592" x2="54.8495" y2="58.3222" gradientUnits="userSpaceOnUse">
<stop offset="0.016" stop-color="#FFC2A9"/>
<stop offset="1" stop-color="#FF9595"/>
</linearGradient>
<linearGradient id="paint21_linear_5_671" x1="60.6777" y1="67.3406" x2="60.6777" y2="52.0504" gradientUnits="userSpaceOnUse">
<stop stop-color="#FFEADB"/>
<stop offset="0.9944" stop-color="#C27CB6"/>
</linearGradient>
<linearGradient id="paint22_linear_5_671" x1="60.1806" y1="77.7427" x2="60.1806" y2="54.1707" gradientUnits="userSpaceOnUse">
<stop offset="0.016" stop-color="#FFC2A9"/>
<stop offset="1" stop-color="#FF9595"/>
</linearGradient>
<linearGradient id="paint23_linear_5_671" x1="55.9568" y1="74.0641" x2="63.383" y2="74.0641" gradientUnits="userSpaceOnUse">
<stop offset="0.016" stop-color="#D1A1D6"/>
<stop offset="0.9944" stop-color="#BD89C4"/>
</linearGradient>
<linearGradient id="paint24_linear_5_671" x1="146.913" y1="92.1006" x2="146.913" y2="60.5788" gradientUnits="userSpaceOnUse">
<stop offset="0.016" stop-color="#FFC2A9"/>
<stop offset="1" stop-color="#FF9595"/>
</linearGradient>
<linearGradient id="paint25_linear_5_671" x1="150.645" y1="82.0012" x2="150.645" y2="66.3408" gradientUnits="userSpaceOnUse">
<stop stop-color="#FFEADB"/>
<stop offset="0.9944" stop-color="#C27CB6"/>
</linearGradient>
<linearGradient id="paint26_linear_5_671" x1="153.74" y1="76.596" x2="153.74" y2="69.5757" gradientUnits="userSpaceOnUse">
<stop stop-color="#FFB0B0"/>
<stop offset="0.984" stop-color="#FFC2A9"/>
</linearGradient>
<linearGradient id="paint27_linear_5_671" x1="157.82" y1="77.6771" x2="157.82" y2="73.8273" gradientUnits="userSpaceOnUse">
<stop stop-color="#FFB0B0"/>
<stop offset="0.984" stop-color="#FFC2A9"/>
</linearGradient>
<linearGradient id="paint28_linear_5_671" x1="141.322" y1="85.35" x2="148.496" y2="85.35" gradientUnits="userSpaceOnUse">
<stop offset="0.016" stop-color="#D1A1D6"/>
<stop offset="0.9944" stop-color="#BD89C4"/>
</linearGradient>
<linearGradient id="paint29_linear_5_671" x1="131.337" y1="110.062" x2="131.337" y2="74.7786" gradientUnits="userSpaceOnUse">
<stop stop-color="#CCCCFF"/>
<stop offset="1" stop-color="#755CBB"/>
</linearGradient>
<linearGradient id="paint30_linear_5_671" x1="53.497" y1="102.953" x2="112.628" y2="102.953" gradientUnits="userSpaceOnUse">
<stop stop-color="#CCCCFF"/>
<stop offset="1" stop-color="#755CBB"/>
</linearGradient>
<linearGradient id="paint31_linear_5_671" x1="105.628" y1="93.0781" x2="116.93" y2="93.0781" gradientUnits="userSpaceOnUse">
<stop stop-color="#CCEDFF"/>
<stop offset="1" stop-color="#755CBB"/>
</linearGradient>
<linearGradient id="paint32_linear_5_671" x1="95.3763" y1="112.874" x2="111.987" y2="112.874" gradientUnits="userSpaceOnUse">
<stop stop-color="#CCEDFF"/>
<stop offset="1" stop-color="#755CBB"/>
</linearGradient>
<linearGradient id="paint33_linear_5_671" x1="96.1456" y1="120.37" x2="113.892" y2="120.37" gradientUnits="userSpaceOnUse">
<stop stop-color="#CCEDFF"/>
<stop offset="1" stop-color="#755CBB"/>
</linearGradient>
<linearGradient id="paint34_linear_5_671" x1="80.8727" y1="101.812" x2="80.8727" y2="81.9343" gradientUnits="userSpaceOnUse">
<stop stop-color="#CCEDFF"/>
<stop offset="1" stop-color="#755CBB"/>
</linearGradient>
<linearGradient id="paint35_linear_5_671" x1="82.4762" y1="103.483" x2="82.4762" y2="88.415" gradientUnits="userSpaceOnUse">
<stop stop-color="#CCEDFF"/>
<stop offset="1" stop-color="#755CBB"/>
</linearGradient>
<linearGradient id="paint36_linear_5_671" x1="58.6153" y1="84.2213" x2="58.6153" y2="72.8372" gradientUnits="userSpaceOnUse">
<stop stop-color="#CCEDFF"/>
<stop offset="1" stop-color="#755CBB"/>
</linearGradient>
<linearGradient id="paint37_linear_5_671" x1="67.8458" y1="74.1961" x2="72.4428" y2="74.1961" gradientUnits="userSpaceOnUse">
<stop stop-color="#CCEDFF"/>
<stop offset="1" stop-color="#755CBB"/>
</linearGradient>
<linearGradient id="paint38_linear_5_671" x1="117.819" y1="101.812" x2="117.819" y2="80.7112" gradientUnits="userSpaceOnUse">
<stop stop-color="#CCCCFF"/>
<stop offset="1" stop-color="#755CBB"/>
</linearGradient>
<linearGradient id="paint39_linear_5_671" x1="141.589" y1="97.2732" x2="141.589" y2="86.2471" gradientUnits="userSpaceOnUse">
<stop stop-color="#CCCCFF"/>
<stop offset="1" stop-color="#755CBB"/>
</linearGradient>
<linearGradient id="paint40_linear_5_671" x1="129.059" y1="96.7806" x2="129.059" y2="88.3513" gradientUnits="userSpaceOnUse">
<stop stop-color="#CCCCFF"/>
<stop offset="1" stop-color="#755CBB"/>
</linearGradient>
<linearGradient id="paint41_linear_5_671" x1="56.2276" y1="84.948" x2="56.2276" y2="81.8176" gradientUnits="userSpaceOnUse">
<stop stop-color="#CCEDFF"/>
<stop offset="1" stop-color="#755CBB"/>
</linearGradient>
<linearGradient id="paint42_linear_5_671" x1="64.6063" y1="94.4916" x2="64.6063" y2="77.3838" gradientUnits="userSpaceOnUse">
<stop stop-color="#CCCCFF"/>
<stop offset="1" stop-color="#755CBB"/>
</linearGradient>
<linearGradient id="paint43_linear_5_671" x1="108.708" y1="82.4497" x2="108.708" y2="69.5757" gradientUnits="userSpaceOnUse">
<stop stop-color="#CCEDFF"/>
<stop offset="1" stop-color="#755CBB"/>
</linearGradient>
<linearGradient id="paint44_linear_5_671" x1="91.8087" y1="80.7094" x2="91.8087" y2="62.9408" gradientUnits="userSpaceOnUse">
<stop stop-color="#CCEDFF"/>
<stop offset="1" stop-color="#755CBB"/>
</linearGradient>
<linearGradient id="paint45_linear_5_671" x1="85.7969" y1="83.9593" x2="115.534" y2="83.9593" gradientUnits="userSpaceOnUse">
<stop stop-color="#8642A0"/>
<stop offset="1" stop-color="#6456C0"/>
</linearGradient>
<linearGradient id="paint46_linear_5_671" x1="88.3609" y1="66.8334" x2="107.713" y2="66.8334" gradientUnits="userSpaceOnUse">
<stop stop-color="#CCCCFF"/>
<stop offset="1" stop-color="#755CBB"/>
</linearGradient>
<linearGradient id="paint47_linear_5_671" x1="138.11" y1="96.0163" x2="138.11" y2="84.8392" gradientUnits="userSpaceOnUse">
<stop stop-color="#CCCCFF"/>
<stop offset="1" stop-color="#755CBB"/>
</linearGradient>
<linearGradient id="paint48_linear_5_671" x1="122.279" y1="108.625" x2="122.279" y2="74.7786" gradientUnits="userSpaceOnUse">
<stop stop-color="#CCCCFF"/>
<stop offset="1" stop-color="#755CBB"/>
</linearGradient>
<linearGradient id="paint49_linear_5_671" x1="85.8174" y1="124.524" x2="85.8174" y2="114.821" gradientUnits="userSpaceOnUse">
<stop stop-color="#CCCCFF"/>
<stop offset="1" stop-color="#755CBB"/>
</linearGradient>
<linearGradient id="paint50_linear_5_671" x1="104.703" y1="121.858" x2="104.703" y2="117.146" gradientUnits="userSpaceOnUse">
<stop stop-color="#CCCCFF"/>
<stop offset="1" stop-color="#755CBB"/>
</linearGradient>
<linearGradient id="paint51_linear_5_671" x1="104.495" y1="61.294" x2="104.495" y2="29.0601" gradientUnits="userSpaceOnUse">
<stop offset="0.016" stop-color="#FFC2A9"/>
<stop offset="1" stop-color="#FF9595"/>
</linearGradient>
<linearGradient id="paint52_linear_5_671" x1="92.4545" y1="48.287" x2="92.4545" y2="38.7837" gradientUnits="userSpaceOnUse">
<stop offset="0.016" stop-color="#FFC2A9"/>
<stop offset="1" stop-color="#FF9595"/>
</linearGradient>
<linearGradient id="paint53_linear_5_671" x1="108.984" y1="51.8808" x2="109.382" y2="49.8059" gradientUnits="userSpaceOnUse">
<stop stop-color="#E1616A"/>
<stop offset="1" stop-color="#FF8883"/>
</linearGradient>
<linearGradient id="paint54_linear_5_671" x1="105.38" y1="50.2934" x2="105.38" y2="29.5282" gradientUnits="userSpaceOnUse">
<stop stop-color="#FFEADB"/>
<stop offset="0.9944" stop-color="#C27CB6"/>
</linearGradient>
<linearGradient id="paint55_linear_5_671" x1="104.366" y1="41.7896" x2="104.366" y2="37.6762" gradientUnits="userSpaceOnUse">
<stop stop-color="#CF6074"/>
<stop offset="1" stop-color="#F37270"/>
</linearGradient>
<linearGradient id="paint56_linear_5_671" x1="112.587" y1="43.0948" x2="112.587" y2="39.5153" gradientUnits="userSpaceOnUse">
<stop stop-color="#CF6074"/>
<stop offset="1" stop-color="#FF817F"/>
</linearGradient>
<linearGradient id="paint57_linear_5_671" x1="112.925" y1="45.1777" x2="112.925" y2="37.1228" gradientUnits="userSpaceOnUse">
<stop stop-color="#FFEADB"/>
<stop offset="0.9944" stop-color="#C27CB6"/>
</linearGradient>
<linearGradient id="paint58_linear_5_671" x1="104.928" y1="61.6994" x2="104.928" y2="22.6077" gradientUnits="userSpaceOnUse">
<stop stop-color="#2E33A0"/>
<stop offset="1" stop-color="#0665A5"/>
</linearGradient>
<linearGradient id="paint59_linear_5_671" x1="115.216" y1="37.0825" x2="115.216" y2="28.0645" gradientUnits="userSpaceOnUse">
<stop stop-color="#FFEADB"/>
<stop offset="0.9944" stop-color="#8860C7"/>
</linearGradient>
<linearGradient id="paint60_linear_5_671" x1="102.903" y1="61.6994" x2="102.903" y2="22.6077" gradientUnits="userSpaceOnUse">
<stop stop-color="#CCC2DB"/>
<stop offset="0.9944" stop-color="#8860C7"/>
</linearGradient>
<linearGradient id="paint61_linear_5_671" x1="105.529" y1="61.6902" x2="105.529" y2="60.0107" gradientUnits="userSpaceOnUse">
<stop stop-color="#776D7E"/>
<stop offset="1" stop-color="#9D68C2"/>
</linearGradient>
<linearGradient id="paint62_linear_5_671" x1="110.467" y1="25.4134" x2="110.467" y2="24.1656" gradientUnits="userSpaceOnUse">
<stop stop-color="#1F77D1"/>
<stop offset="1" stop-color="#0686C9"/>
</linearGradient>
<linearGradient id="paint63_linear_5_671" x1="102.502" y1="29.5215" x2="102.502" y2="25.8323" gradientUnits="userSpaceOnUse">
<stop stop-color="#1F77D1"/>
<stop offset="1" stop-color="#0686C9"/>
</linearGradient>
<linearGradient id="paint64_linear_5_671" x1="115.898" y1="31.3919" x2="115.898" y2="28.0645" gradientUnits="userSpaceOnUse">
<stop stop-color="#1F77D1"/>
<stop offset="1" stop-color="#0686C9"/>
</linearGradient>
<linearGradient id="paint65_linear_5_671" x1="93.8412" y1="46.0346" x2="89.5862" y2="40.8112" gradientUnits="userSpaceOnUse">
<stop stop-color="#FFEADB"/>
<stop offset="0.9944" stop-color="#B060F4"/>
</linearGradient>
<linearGradient id="paint66_linear_5_671" x1="94.2878" y1="45.3628" x2="92.1942" y2="42.7928" gradientUnits="userSpaceOnUse">
<stop stop-color="#FFEADB"/>
<stop offset="0.9944" stop-color="#B060F4"/>
</linearGradient>
<linearGradient id="paint67_linear_5_671" x1="102.255" y1="29.8514" x2="109.478" y2="29.8514" gradientUnits="userSpaceOnUse">
<stop stop-color="#1F77D1"/>
<stop offset="1" stop-color="#0686C9"/>
</linearGradient>
<linearGradient id="paint68_linear_5_671" x1="112.443" y1="51.4105" x2="114.634" y2="51.4105" gradientUnits="userSpaceOnUse">
<stop stop-color="#1F77D1"/>
<stop offset="1" stop-color="#0686C9"/>
</linearGradient>
<linearGradient id="paint69_linear_5_671" x1="109.738" y1="49.7845" x2="112.101" y2="49.7845" gradientUnits="userSpaceOnUse">
<stop stop-color="#1F77D1"/>
<stop offset="1" stop-color="#0686C9"/>
</linearGradient>
<linearGradient id="paint70_linear_5_671" x1="127.168" y1="55.5051" x2="201.237" y2="55.5051" gradientUnits="userSpaceOnUse">
<stop stop-color="#9D68C2"/>
<stop offset="1" stop-color="#AEC2FF"/>
</linearGradient>
<linearGradient id="paint71_linear_5_671" x1="142.236" y1="83.4247" x2="142.236" y2="61.1293" gradientUnits="userSpaceOnUse">
<stop stop-color="#CCEDFF"/>
<stop offset="1" stop-color="#9D68C2"/>
</linearGradient>
<linearGradient id="paint72_linear_5_671" x1="180.328" y1="72.5547" x2="180.328" y2="62.734" gradientUnits="userSpaceOnUse">
<stop stop-color="#CCEDFF"/>
<stop offset="1" stop-color="#9D68C2"/>
</linearGradient>
<linearGradient id="paint73_linear_5_671" x1="191.939" y1="72.5547" x2="191.939" y2="62.734" gradientUnits="userSpaceOnUse">
<stop stop-color="#CCEDFF"/>
<stop offset="1" stop-color="#9D68C2"/>
</linearGradient>
<linearGradient id="paint74_linear_5_671" x1="168.524" y1="72.5547" x2="168.524" y2="62.734" gradientUnits="userSpaceOnUse">
<stop stop-color="#CCEDFF"/>
<stop offset="1" stop-color="#9D68C2"/>
</linearGradient>
<linearGradient id="paint75_linear_5_671" x1="62.6911" y1="48.4247" x2="62.6911" y2="38.1451" gradientUnits="userSpaceOnUse">
<stop stop-color="#D93DE3"/>
<stop offset="1" stop-color="#FF6DBA"/>
</linearGradient>
<linearGradient id="paint76_linear_5_671" x1="68.987" y1="48.4247" x2="68.987" y2="38.1451" gradientUnits="userSpaceOnUse">
<stop stop-color="#A242EA"/>
<stop offset="1" stop-color="#FE117E"/>
</linearGradient>
<linearGradient id="paint77_linear_5_671" x1="60.9038" y1="156.717" x2="66.4521" y2="112.454" gradientUnits="userSpaceOnUse">
<stop stop-color="#067EFF"/>
<stop offset="1" stop-color="#3E37A0"/>
</linearGradient>
<linearGradient id="paint78_linear_5_671" x1="190.944" y1="47.3062" x2="190.944" y2="43.5749" gradientUnits="userSpaceOnUse">
<stop stop-color="#459FFF"/>
<stop offset="1" stop-color="#A96DFF"/>
</linearGradient>
<linearGradient id="paint79_linear_5_671" x1="15.247" y1="91.031" x2="15.247" y2="86.3871" gradientUnits="userSpaceOnUse">
<stop stop-color="#459FFF"/>
<stop offset="1" stop-color="#A96DFF"/>
</linearGradient>
<linearGradient id="paint80_linear_5_671" x1="196.435" y1="47.3062" x2="196.435" y2="43.5749" gradientUnits="userSpaceOnUse">
<stop stop-color="#B31A8F"/>
<stop offset="1" stop-color="#FE117E"/>
</linearGradient>
<linearGradient id="paint81_linear_5_671" x1="75.8834" y1="59.5879" x2="75.8834" y2="56.9495" gradientUnits="userSpaceOnUse">
<stop stop-color="#B31A8F"/>
<stop offset="1" stop-color="#FE117E"/>
</linearGradient>
<linearGradient id="paint82_linear_5_671" x1="164.426" y1="117.803" x2="164.426" y2="115.165" gradientUnits="userSpaceOnUse">
<stop stop-color="#8642A0"/>
<stop offset="1" stop-color="#6456C0"/>
</linearGradient>
<linearGradient id="paint83_linear_5_671" x1="26.9948" y1="130.816" x2="26.9948" y2="128.458" gradientUnits="userSpaceOnUse">
<stop stop-color="#8642A0"/>
<stop offset="1" stop-color="#6456C0"/>
</linearGradient>
<linearGradient id="paint84_linear_5_671" x1="36.9114" y1="118.057" x2="36.9114" y2="98.5755" gradientUnits="userSpaceOnUse">
<stop stop-color="#D906E3"/>
<stop offset="1" stop-color="#FF6DF9"/>
</linearGradient>
<linearGradient id="paint85_linear_5_671" x1="171.695" y1="145.633" x2="171.695" y2="121.262" gradientUnits="userSpaceOnUse">
<stop stop-color="#D906E3"/>
<stop offset="1" stop-color="#FF6DF9"/>
</linearGradient>
<linearGradient id="paint86_linear_5_671" x1="140.009" y1="132.005" x2="142.633" y2="114.253" gradientUnits="userSpaceOnUse">
<stop stop-color="#1852A0"/>
<stop offset="1" stop-color="#067ED3"/>
</linearGradient>
<linearGradient id="paint87_linear_5_671" x1="138.044" y1="131.547" x2="142.784" y2="113.907" gradientUnits="userSpaceOnUse">
<stop stop-color="#1852A0"/>
<stop offset="1" stop-color="#067ED3"/>
</linearGradient>
<linearGradient id="paint88_linear_5_671" x1="135.81" y1="130.819" x2="138.607" y2="112.95" gradientUnits="userSpaceOnUse">
<stop stop-color="#188DC1"/>
<stop offset="1" stop-color="#06BFE7"/>
</linearGradient>
<linearGradient id="paint89_linear_5_671" x1="152.5" y1="36.7806" x2="157.223" y2="19.2061" gradientUnits="userSpaceOnUse">
<stop stop-color="#188DC1"/>
<stop offset="1" stop-color="#06BFE7"/>
</linearGradient>
<linearGradient id="paint90_linear_5_671" x1="144.352" y1="34.7537" x2="147.874" y2="21.648" gradientUnits="userSpaceOnUse">
<stop stop-color="#1852A0"/>
<stop offset="1" stop-color="#067ED3"/>
</linearGradient>
<linearGradient id="paint91_linear_5_671" x1="15.446" y1="67.0383" x2="12.2264" y2="55.0574" gradientUnits="userSpaceOnUse">
<stop stop-color="#188DC1"/>
<stop offset="1" stop-color="#06BFE7"/>
</linearGradient>
<linearGradient id="paint92_linear_5_671" x1="21.0008" y1="65.6565" x2="18.5999" y2="56.7221" gradientUnits="userSpaceOnUse">
<stop stop-color="#1852A0"/>
<stop offset="1" stop-color="#067ED3"/>
</linearGradient>
</defs>
</svg>
