<?xml version="1.0" encoding="utf-8"?>
<!-- Generator: Adobe Illustrator 26.5.0, SVG Export Plug-In . SVG Version: 6.00 Build 0)  -->
<svg version="1.1" id="Слой_1" xmlns="http://www.w3.org/2000/svg" xmlns:xlink="http://www.w3.org/1999/xlink" x="0px" y="0px"
	 viewBox="0 0 1920 800" style="enable-background:new 0 0 1920 800;" xml:space="preserve">
<style type="text/css">
	.st0{fill:url(#SVGID_1_);}
	.st1{opacity:0.3;}
	.st2{fill:url(#SVGID_00000134945554315086848780000000291005312072425905_);}
	.st3{fill:#FFFFFF;}
	.st4{fill:url(#SVGID_00000044174363101308051990000015711382893208489617_);}
	.st5{fill:url(#SVGID_00000161594892387953820340000007520803558507533952_);}
	.st6{fill:#BCBEFF;}
	.st7{opacity:0.48;fill:url(#SVGID_00000124864475206460722150000004994435930380605348_);}
	.st8{opacity:0.48;fill:url(#SVGID_00000067199911664350217840000018437133754447471516_);}
	.st9{opacity:0.48;fill:url(#SVGID_00000029036047077852656340000000124126072256517811_);}
	.st10{fill:url(#SVGID_00000095327625803405099700000009384221847207124133_);}
	.st11{fill:url(#SVGID_00000054223368356036098580000013074825548309103267_);}
	.st12{opacity:0.5;fill:url(#SVGID_00000106863895053902611830000018373273165062930351_);}
	.st13{opacity:0.48;fill:url(#SVGID_00000011005209189788038450000011539999645536558239_);}
	.st14{fill:#42E8E0;}
	.st15{fill:url(#SVGID_00000119812903724583466440000005183301556597726087_);}
	.st16{fill:url(#SVGID_00000065784351185935721990000003676048415840403888_);}
	.st17{opacity:0.3;fill:#24126A;}
	.st18{fill:url(#SVGID_00000018923446466195950590000005967149584521640882_);}
	.st19{fill:url(#SVGID_00000101785290437276804750000007494508502111118521_);}
	.st20{fill:#24126A;}
	.st21{opacity:0.51;}
	.st22{fill:#453C9E;}
	.st23{fill:url(#SVGID_00000010296050538315536030000008172647480187611020_);}
	.st24{fill:url(#SVGID_00000106856135144873837050000008753097024063667607_);}
	.st25{opacity:0.15;}
	.st26{clip-path:url(#SVGID_00000054956231813774739960000010022627182885617321_);}
	.st27{fill:url(#SVGID_00000092441033568907355230000000638710610302246534_);}
	.st28{fill:url(#SVGID_00000062177110313221476750000014716376471208425608_);}
	.st29{opacity:0.5;}
	.st30{opacity:0.8;}
	.st31{opacity:0.5;fill:url(#SVGID_00000034807090966000599260000002339170192162211203_);}
	.st32{opacity:0.5;fill:url(#SVGID_00000126313912999202084610000000741601390713692305_);}
	.st33{fill:url(#SVGID_00000147206729116608529150000007270554061840945803_);}
	.st34{fill:url(#SVGID_00000135651642230546886340000010500860412602731412_);}
	.st35{fill:url(#SVGID_00000134240522781569608700000017035538383853991567_);}
	.st36{opacity:0.48;fill:url(#SVGID_00000170998432404165662880000006536426336456051385_);}
	.st37{opacity:0.48;fill:url(#SVGID_00000129179508366148398790000011750955382444045477_);}
	.st38{opacity:0.48;fill:url(#SVGID_00000111888715088426624580000001533655984553201028_);}
	.st39{fill:url(#SVGID_00000009590429801098157270000015119577289247296904_);}
	.st40{fill:url(#SVGID_00000100355542582850751090000017864257878958853275_);}
	.st41{opacity:0.5;fill:url(#SVGID_00000121973614345788965770000005391072294553249716_);}
	.st42{opacity:0.48;fill:url(#SVGID_00000046337043160502249000000005388482566443435916_);}
	.st43{opacity:0.5;fill:#42E8E0;}
</style>
<radialGradient id="SVGID_1_" cx="76.8336" cy="-1945.0383" r="532.6512" gradientTransform="matrix(3.2 0 0 2.3039 0 4081.2451)" gradientUnits="userSpaceOnUse">
	<stop  offset="0" style="stop-color:#2B237C"/>
	<stop  offset="0.31" style="stop-color:#251C72"/>
	<stop  offset="1" style="stop-color:#0F054C"/>
</radialGradient>
<rect y="-7" class="st0" width="1920" height="807"/>
<g class="st1">
	<g>
		
			<linearGradient id="SVGID_00000150089632275086661160000016721069875543887250_" gradientUnits="userSpaceOnUse" x1="1816.3865" y1="141.716" x2="1835.8508" y2="141.716" gradientTransform="matrix(-1.900000e-03 -1 -0.9989 0.5792 1749.2611 2083.26)">
			<stop  offset="0" style="stop-color:#5761D7"/>
			<stop  offset="0.1645" style="stop-color:#5E67DA"/>
			<stop  offset="0.4051" style="stop-color:#727AE2"/>
			<stop  offset="0.6924" style="stop-color:#9297EE"/>
			<stop  offset="1" style="stop-color:#BCBEFF"/>
		</linearGradient>
		<path style="fill:url(#SVGID_00000150089632275086661160000016721069875543887250_);" d="M1604.21,329.49
			c4.65-2.7,8.43-0.52,8.44,4.85c0.01,5.38-3.75,11.92-8.4,14.61c-4.65,2.7-8.43,0.52-8.44-4.85
			C1595.8,338.73,1599.56,332.19,1604.21,329.49z"/>
		<path class="st3" d="M1604.72,329.78c-4.65,2.7-8.41,9.24-8.4,14.61c0,2.54,0.86,4.35,2.24,5.29c-1.68-0.81-2.74-2.74-2.74-5.58
			c-0.01-5.38,3.75-11.92,8.4-14.61c2.45-1.42,4.66-1.48,6.2-0.44C1608.91,328.33,1606.92,328.51,1604.72,329.78z"/>
		
			<linearGradient id="SVGID_00000169525163457640316910000000394013484332200091_" gradientUnits="userSpaceOnUse" x1="1839.535" y1="161.7635" x2="1858.9995" y2="161.7635" gradientTransform="matrix(-1.900000e-03 -1 -0.9989 0.5792 1749.2611 2083.26)">
			<stop  offset="0" style="stop-color:#5761D7"/>
			<stop  offset="0.1645" style="stop-color:#5E67DA"/>
			<stop  offset="0.4051" style="stop-color:#727AE2"/>
			<stop  offset="0.6924" style="stop-color:#9297EE"/>
			<stop  offset="1" style="stop-color:#BCBEFF"/>
		</linearGradient>
		<path style="fill:url(#SVGID_00000169525163457640316910000000394013484332200091_);" d="M1584.14,317.95
			c4.65-2.7,8.43-0.52,8.44,4.85c0.01,5.38-3.75,11.92-8.4,14.61c-4.65,2.7-8.43,0.52-8.44-4.85
			C1575.73,327.19,1579.49,320.65,1584.14,317.95z"/>
		
			<linearGradient id="SVGID_00000179632578534522901720000006460006568385580164_" gradientUnits="userSpaceOnUse" x1="1863.0898" y1="182.1626" x2="1882.5543" y2="182.1626" gradientTransform="matrix(-1.900000e-03 -1 -0.9989 0.5792 1749.2611 2083.26)">
			<stop  offset="0" style="stop-color:#5761D7"/>
			<stop  offset="0.1645" style="stop-color:#5E67DA"/>
			<stop  offset="0.4051" style="stop-color:#727AE2"/>
			<stop  offset="0.6924" style="stop-color:#9297EE"/>
			<stop  offset="1" style="stop-color:#BCBEFF"/>
		</linearGradient>
		<path style="fill:url(#SVGID_00000179632578534522901720000006460006568385580164_);" d="M1563.72,306.21
			c4.65-2.7,8.43-0.52,8.44,4.85c0.01,5.38-3.75,11.92-8.4,14.61c-4.65,2.7-8.43,0.52-8.44-4.85
			C1555.31,315.45,1559.07,308.91,1563.72,306.21z"/>
		<path class="st6" d="M1598.29,349.56l10.44,6c-1.53-0.88-2.47-2.76-2.48-5.45c-0.01-5.37,3.75-11.92,8.4-14.61
			c2.25-1.31,4.3-1.46,5.81-0.67l44.17,25.39l-11.87,20.66l-130.1-74.79c-5.7-3.28-7.67-10.56-4.39-16.27
			c3.28-5.7,10.56-7.67,16.27-4.39l35.27,20.28c-1.54-0.97-3.7-0.88-6.09,0.51c-4.65,2.7-8.41,9.24-8.4,14.61
			c0,2.68,0.95,4.56,2.47,5.44l0,0l0.01,0.01l0,0l10.44,6c-1.53-0.88-2.47-2.76-2.48-5.45c-0.01-5.37,3.75-11.92,8.4-14.61
			c2.25-1.31,4.3-1.46,5.81-0.67l10.26,5.9c-1.54-0.97-3.7-0.88-6.09,0.51c-4.65,2.7-8.41,9.24-8.4,14.61
			c0,2.68,0.95,4.56,2.47,5.44l0,0l0.01,0.01l0,0l10.44,6c-1.53-0.88-2.47-2.76-2.48-5.45c-0.01-5.37,3.75-11.92,8.4-14.61
			c2.25-1.31,4.3-1.46,5.81-0.67l9.91,5.69c-1.54-0.97-3.69-0.88-6.09,0.51c-4.65,2.7-8.41,9.24-8.4,14.61
			c0.01,2.68,0.95,4.56,2.47,5.44l0,0L1598.29,349.56L1598.29,349.56z"/>
		<path class="st3" d="M1584.65,318.24c-4.65,2.7-8.41,9.24-8.4,14.61c0,2.54,0.86,4.35,2.24,5.29c-1.68-0.81-2.74-2.74-2.74-5.58
			c-0.01-5.38,3.75-11.92,8.4-14.61c2.45-1.42,4.66-1.48,6.2-0.44C1588.84,316.8,1586.85,316.97,1584.65,318.24z"/>
		<path class="st3" d="M1564.23,306.5c-4.65,2.7-8.41,9.24-8.4,14.61c0,2.54,0.86,4.35,2.24,5.29c-1.68-0.81-2.74-2.74-2.74-5.58
			c-0.01-5.38,3.75-11.92,8.4-14.61c2.45-1.42,4.66-1.48,6.2-0.43C1568.42,305.06,1566.42,305.23,1564.23,306.5z"/>
		
			<linearGradient id="SVGID_00000044864693154548172790000000841003369937690753_" gradientUnits="userSpaceOnUse" x1="2733.1089" y1="-208.9411" x2="2756.9373" y2="-208.9411" gradientTransform="matrix(0.4984 -0.867 -0.867 -0.4984 57.196 2616.3076)">
			<stop  offset="0" style="stop-color:#42E8E0"/>
			<stop  offset="0.1507" style="stop-color:#43E3E0"/>
			<stop  offset="0.3285" style="stop-color:#45D5DF"/>
			<stop  offset="0.5199" style="stop-color:#49BDDD"/>
			<stop  offset="0.7209" style="stop-color:#4E9CDB"/>
			<stop  offset="0.9274" style="stop-color:#5472D8"/>
			<stop  offset="1" style="stop-color:#5761D7"/>
		</linearGradient>
		<path style="opacity:0.48;fill:url(#SVGID_00000044864693154548172790000000841003369937690753_);" d="M1614.66,335.49
			c-4.65,2.7-8.41,9.24-8.4,14.61c0,2.69,0.95,4.57,2.48,5.45l-10.44-6c0,0,0,0,0,0l-0.01-0.01l0,0c-1.52-0.88-2.46-2.76-2.47-5.44
			c-0.01-5.37,3.75-11.92,8.4-14.61c2.4-1.39,4.55-1.48,6.09-0.51l10.16,5.84C1618.95,334.03,1616.91,334.18,1614.66,335.49z"/>
		
			<linearGradient id="SVGID_00000049903117308064691170000005709743821309788326_" gradientUnits="userSpaceOnUse" x1="2733.1089" y1="-185.7929" x2="2756.9375" y2="-185.7929" gradientTransform="matrix(0.4984 -0.867 -0.867 -0.4984 57.196 2616.3076)">
			<stop  offset="0" style="stop-color:#42E8E0"/>
			<stop  offset="0.1507" style="stop-color:#43E3E0"/>
			<stop  offset="0.3285" style="stop-color:#45D5DF"/>
			<stop  offset="0.5199" style="stop-color:#49BDDD"/>
			<stop  offset="0.7209" style="stop-color:#4E9CDB"/>
			<stop  offset="0.9274" style="stop-color:#5472D8"/>
			<stop  offset="1" style="stop-color:#5761D7"/>
		</linearGradient>
		<path style="opacity:0.48;fill:url(#SVGID_00000049903117308064691170000005709743821309788326_);" d="M1594.59,323.95
			c-4.65,2.7-8.41,9.24-8.4,14.61c0.01,2.69,0.95,4.57,2.48,5.45l-10.44-6l0,0l-0.01-0.01l0,0c-1.52-0.88-2.46-2.76-2.47-5.44
			c-0.01-5.37,3.75-11.92,8.4-14.61c2.4-1.39,4.55-1.48,6.09-0.51l10.16,5.84C1598.89,322.49,1596.84,322.64,1594.59,323.95z"/>
		
			<linearGradient id="SVGID_00000005263709175110955990000001446711211158411454_" gradientUnits="userSpaceOnUse" x1="2733.1096" y1="-162.2386" x2="2756.9377" y2="-162.2386" gradientTransform="matrix(0.4984 -0.867 -0.867 -0.4984 57.196 2616.3076)">
			<stop  offset="0" style="stop-color:#42E8E0"/>
			<stop  offset="0.1507" style="stop-color:#43E3E0"/>
			<stop  offset="0.3285" style="stop-color:#45D5DF"/>
			<stop  offset="0.5199" style="stop-color:#49BDDD"/>
			<stop  offset="0.7209" style="stop-color:#4E9CDB"/>
			<stop  offset="0.9274" style="stop-color:#5472D8"/>
			<stop  offset="1" style="stop-color:#5761D7"/>
		</linearGradient>
		<path style="opacity:0.48;fill:url(#SVGID_00000005263709175110955990000001446711211158411454_);" d="M1574.17,312.21
			c-4.65,2.7-8.41,9.24-8.4,14.61c0.01,2.69,0.95,4.57,2.48,5.45l-10.44-6l0,0l-0.01-0.01l0,0c-1.52-0.88-2.46-2.76-2.47-5.44
			c-0.01-5.37,3.75-11.92,8.4-14.61c2.4-1.39,4.55-1.48,6.09-0.51l10.16,5.84C1578.46,310.75,1576.42,310.9,1574.17,312.21z"/>
	</g>
	<g>
		
			<linearGradient id="SVGID_00000025407764098225245940000010456427372887415479_" gradientUnits="userSpaceOnUse" x1="2659.4717" y1="-310.7785" x2="2813.4636" y2="-400.0505" gradientTransform="matrix(0.4984 -0.867 -0.867 -0.4984 57.196 2616.3076)">
			<stop  offset="0" style="stop-color:#BCBEFF"/>
			<stop  offset="0.3076" style="stop-color:#9297EE"/>
			<stop  offset="0.5949" style="stop-color:#727AE2"/>
			<stop  offset="0.8355" style="stop-color:#5E67DA"/>
			<stop  offset="1" style="stop-color:#5761D7"/>
		</linearGradient>
		<path style="fill:url(#SVGID_00000025407764098225245940000010456427372887415479_);" d="M1653.3,417.11
			c-0.01,0.63-0.01,1.26,0.03,1.88l25.7,21.5l41.61,15.49l29.31-6.57l28.03-8.01l28.57-21.99l0.73-0.59c0.1-1.76,0-3.53-0.26-5.29
			c5.05-6.7,10.1-13.4,15.15-20.1c2.28,2.92,4.17,5.92,5.57,8.99l3.34-2.68l0.02,17.21c0,0.21,0,0.41,0,0.62l0,0.65l-0.03,0.02
			c-0.4,14.57-10.18,29.08-29.41,40.23c-39.32,22.8-103.15,22.92-142.56,0.27c-19.55-11.24-29.41-25.97-29.59-40.75l-0.01,0l0-0.11
			c0-0.17,0-0.34,0-0.51l0.04-18.24l3.58,3c0.85-1.79,1.85-3.56,3-5.31C1640.65,404.46,1645.13,413.88,1653.3,417.11z"/>
		
			<linearGradient id="SVGID_00000160173530730166517360000008927815359912156052_" gradientUnits="userSpaceOnUse" x1="2828.3289" y1="-389.9424" x2="2689.6865" y2="-288.4345" gradientTransform="matrix(0.4984 -0.867 -0.867 -0.4984 57.196 2616.3076)">
			<stop  offset="0" style="stop-color:#5761D7"/>
			<stop  offset="0.1645" style="stop-color:#5E67DA"/>
			<stop  offset="0.4051" style="stop-color:#727AE2"/>
			<stop  offset="0.6924" style="stop-color:#9297EE"/>
			<stop  offset="1" style="stop-color:#BCBEFF"/>
		</linearGradient>
		<path style="fill:url(#SVGID_00000160173530730166517360000008927815359912156052_);" d="M1799.89,375.27
			c0.54,0.3,1.09,0.58,1.62,0.88c8.93,5.14,15.78,11.01,20.67,17.28c-5.05,6.7-10.1,13.4-15.15,20.1
			c-1.49-10.09-8.9-19.94-22.3-27.64c-30.12-17.31-78.89-17.22-108.95,0.2c-14.82,8.59-22.29,19.8-22.47,31.03
			c-8.17-3.24-12.65-12.66-17.17-20.32c3.64-5.53,8.79-10.81,15.46-15.62l-3.47,0.72c0,0,23.69-20.58,24.57-20.78
			c0.88-0.2,48.3-12.76,48.3-12.76l53.39,4.69L1799.89,375.27z"/>
		
			<linearGradient id="SVGID_00000047779634188720999050000005591534306573196455_" gradientUnits="userSpaceOnUse" x1="2695.2886" y1="-347.4091" x2="2804.2305" y2="-347.4091" gradientTransform="matrix(0.4984 -0.867 -0.867 -0.4984 57.196 2616.3076)">
			<stop  offset="0" style="stop-color:#42E8E0"/>
			<stop  offset="0.1507" style="stop-color:#43E3E0"/>
			<stop  offset="0.3285" style="stop-color:#45D5DF"/>
			<stop  offset="0.5199" style="stop-color:#49BDDD"/>
			<stop  offset="0.7209" style="stop-color:#4E9CDB"/>
			<stop  offset="0.9274" style="stop-color:#5472D8"/>
			<stop  offset="1" style="stop-color:#5761D7"/>
		</linearGradient>
		<path style="opacity:0.5;fill:url(#SVGID_00000047779634188720999050000005591534306573196455_);" d="M1783.29,373.86
			c30.12,17.31,30.17,45.47,0.12,62.9c-30.05,17.43-78.83,17.52-108.95,0.2c-30.12-17.31-30.17-45.47-0.12-62.9
			C1704.4,356.64,1753.18,356.55,1783.29,373.86z"/>
		
			<linearGradient id="SVGID_00000051365147786058596890000010388444351958700948_" gradientUnits="userSpaceOnUse" x1="2690.5505" y1="-349.9812" x2="2799.4927" y2="-349.9812" gradientTransform="matrix(0.4984 -0.867 -0.867 -0.4984 57.196 2616.3076)">
			<stop  offset="0" style="stop-color:#42E8E0"/>
			<stop  offset="0.1507" style="stop-color:#43E3E0"/>
			<stop  offset="0.3285" style="stop-color:#45D5DF"/>
			<stop  offset="0.5199" style="stop-color:#49BDDD"/>
			<stop  offset="0.7209" style="stop-color:#4E9CDB"/>
			<stop  offset="0.9274" style="stop-color:#5472D8"/>
			<stop  offset="1" style="stop-color:#5761D7"/>
		</linearGradient>
		<path style="opacity:0.48;fill:url(#SVGID_00000051365147786058596890000010388444351958700948_);" d="M1783.16,379.25
			c30.12,17.31,30.17,45.47,0.12,62.9c-30.05,17.43-78.83,17.52-108.95,0.2c-30.12-17.31-30.17-45.47-0.12-62.9
			C1704.27,362.03,1753.05,361.94,1783.16,379.25z"/>
		<path class="st6" d="M1801.48,358.06c-39.41-22.65-103.23-22.54-142.56,0.27s-39.26,59.65,0.15,82.31
			c39.41,22.65,103.24,22.54,142.56-0.27C1840.96,417.56,1840.89,380.71,1801.48,358.06z M1784.69,367.79
			c30.12,17.31,30.17,45.47,0.12,62.9c-30.05,17.43-78.83,17.52-108.95,0.2c-30.12-17.31-30.17-45.47-0.12-62.9
			C1705.8,350.57,1754.57,350.48,1784.69,367.79z"/>
		<path class="st6" d="M1801.48,358.06c-39.41-22.65-103.23-22.54-142.56,0.27s-39.26,59.65,0.15,82.31
			c39.41,22.65,103.24,22.54,142.56-0.27C1840.96,417.56,1840.89,380.71,1801.48,358.06z M1784.69,367.79
			c30.12,17.31,30.17,45.47,0.12,62.9c-30.05,17.43-78.83,17.52-108.95,0.2c-30.12-17.31-30.17-45.47-0.12-62.9
			C1705.8,350.57,1754.57,350.48,1784.69,367.79z"/>
		<g>
			<path class="st3" d="M1658.55,439.09c39.41,22.65,103.23,22.54,142.56-0.27c24.21-14.04,33.46-33.39,27.83-51.48
				c6.67,18.53-2.42,38.59-27.31,53.03c-39.33,22.8-103.15,22.92-142.56,0.27c-15.15-8.71-24.46-19.52-27.98-30.82
				C1634.95,420.55,1644.1,430.78,1658.55,439.09z"/>
			<path class="st3" d="M1675.23,366.45c30.05-17.43,78.83-17.52,108.95-0.2c11.67,6.71,18.8,15.04,21.44,23.75
				c-2.99-8.15-9.95-15.9-20.93-22.21c-30.12-17.31-78.89-17.22-108.95,0.2c-18.41,10.67-25.5,25.38-21.33,39.15
				C1649.21,392.94,1656.13,377.53,1675.23,366.45z"/>
		</g>
	</g>
</g>
<path class="st14" d="M1479.06,708.03c-2.31,0-4.73-0.56-6.62-1.65L1168.2,530.73c-1.92-1.11-3.01-2.61-3.01-4.12
	c0-1.29,0.78-2.45,2.2-3.27l181.55-104.82c3.02-1.74,8.3-1.53,11.77,0.47l304.24,175.65c1.92,1.1,3.01,2.61,3.01,4.12
	c0,1.29-0.78,2.45-2.21,3.27l-181.55,104.82C1482.83,707.64,1480.99,708.03,1479.06,708.03z M1168.72,529.83l304.24,175.65
	c3.18,1.84,8,2.05,10.74,0.47l181.55-104.82c1.09-0.63,1.69-1.47,1.69-2.37c0-1.14-0.91-2.31-2.5-3.23L1360.2,419.88
	c-3.18-1.84-8-2.05-10.74-0.47l-181.55,104.82c-1.09,0.63-1.69,1.47-1.69,2.37C1166.22,527.74,1167.13,528.92,1168.72,529.83
	L1168.72,529.83z"/>
<g>
	
		<linearGradient id="SVGID_00000098189262044042055980000004911162517676331670_" gradientUnits="userSpaceOnUse" x1="1658.0271" y1="544.0175" x2="1156.2823" y2="544.0175">
		<stop  offset="0" style="stop-color:#5761D7"/>
		<stop  offset="0.1779" style="stop-color:#5C66D9"/>
		<stop  offset="0.3876" style="stop-color:#6A73DF"/>
		<stop  offset="0.6134" style="stop-color:#8289E8"/>
		<stop  offset="0.849" style="stop-color:#A3A7F5"/>
		<stop  offset="1" style="stop-color:#BCBEFF"/>
	</linearGradient>
	<path style="fill:url(#SVGID_00000098189262044042055980000004911162517676331670_);" d="M1667.45,568.39l-16.75-2.41
		l-290.24-167.57c-3.33-1.92-8.37-2.13-11.25-0.47l-172.86,99.8l-10.64-1.53v14.12l0.03,0c0.02,1.26,0.92,2.59,2.72,3.63
		l304.24,175.65c3.33,1.92,8.37,2.13,11.25,0.47l181.55-104.82c1.33-0.77,1.93-1.8,1.91-2.87l0.03,0V568.39z"/>
	
		<linearGradient id="SVGID_00000119814375752416927060000015334689424534199217_" gradientUnits="userSpaceOnUse" x1="530.2941" y1="532.3376" x2="1032.0388" y2="532.3376" gradientTransform="matrix(-1 0 0 1 2029.1379 0)">
		<stop  offset="0" style="stop-color:#C0BFF6"/>
		<stop  offset="0.2938" style="stop-color:#C5C4F7"/>
		<stop  offset="0.6399" style="stop-color:#D3D2F9"/>
		<stop  offset="1" style="stop-color:#E9E9FD"/>
	</linearGradient>
	<path style="fill:url(#SVGID_00000119814375752416927060000015334689424534199217_);" d="M1168.46,499.94l304.24,175.65
		c3.33,1.92,8.37,2.13,11.25,0.47l181.55-104.82c2.88-1.66,2.52-4.57-0.81-6.5l-304.24-175.65c-3.33-1.92-8.37-2.13-11.25-0.47
		l-181.55,104.82C1164.77,495.1,1165.13,498.01,1168.46,499.94z"/>
	<path class="st17" d="M1194.8,503.38l271.94,157c2.98,1.72,7.48,1.91,10.06,0.42l162.27-93.69c2.58-1.49,2.25-4.09-0.72-5.81
		l-271.94-157c-2.98-1.72-7.48-1.91-10.06-0.42l-162.27,93.69C1191.5,499.06,1191.83,501.66,1194.8,503.38z"/>
	<path class="st3" d="M1665.5,569.71l-181.55,104.82c-2.88,1.67-7.92,1.46-11.25-0.47l-304.24-175.65
		c-1.46-0.84-2.31-1.88-2.61-2.91c-0.46,1.48,0.42,3.17,2.61,4.44l304.24,175.65c3.33,1.92,8.37,2.13,11.25,0.47l181.55-104.82
		c1.62-0.93,2.18-2.26,1.8-3.58C1667.06,568.42,1666.49,569.14,1665.5,569.71z"/>
</g>
<g>
	<g>
		<g>
			<g>
				<g>
					
						<linearGradient id="SVGID_00000140015693005632467090000014029662923453578392_" gradientUnits="userSpaceOnUse" x1="314.2245" y1="312.2416" x2="669.2964" y2="312.2416" gradientTransform="matrix(-1 0 0 1 2029.1379 0)">
						<stop  offset="0" style="stop-color:#C0BFF6"/>
						<stop  offset="0.2938" style="stop-color:#C5C4F7"/>
						<stop  offset="0.6399" style="stop-color:#D3D2F9"/>
						<stop  offset="1" style="stop-color:#E9E9FD"/>
					</linearGradient>
					<path style="fill:url(#SVGID_00000140015693005632467090000014029662923453578392_);" d="M1359.91,334.32l38.46-228.17
						l-3.09-1.3l4.65-2.66l-0.01,0.03c0.9-0.6,2.18-0.56,3.58,0.25l307.37,177.46c2.52,1.46,4.43,5.19,3.99,7.81l-38.76,229.99
						c-0.2,1.2-0.8,1.99-1.62,2.34l0,0l-4.55,2.63l-0.78-4.24l0.26,0.08l-305.5-176.38
						C1361.37,340.67,1359.46,336.94,1359.91,334.32z"/>
					
						<linearGradient id="SVGID_00000100342467121281507630000011095978803809771136_" gradientUnits="userSpaceOnUse" x1="314.2267" y1="403.3015" x2="375.1961" y2="403.3015" gradientTransform="matrix(-1 0 0 1 2029.1379 0)">
						<stop  offset="0" style="stop-color:#5761D7"/>
						<stop  offset="0.1779" style="stop-color:#5C66D9"/>
						<stop  offset="0.3876" style="stop-color:#6A73DF"/>
						<stop  offset="0.6134" style="stop-color:#8289E8"/>
						<stop  offset="0.849" style="stop-color:#A3A7F5"/>
						<stop  offset="1" style="stop-color:#BCBEFF"/>
					</linearGradient>
					<path style="fill:url(#SVGID_00000100342467121281507630000011095978803809771136_);" d="M1709.15,286.16l5.05-2.24
						c0.57,1.29,0.85,2.66,0.65,3.8l-38.77,229.99c-0.2,1.2-0.8,1.99-1.62,2.34l0,0l-4.55,2.63l-0.78-4.24l0.26,0.08l-15.46-8.93
						L1709.15,286.16z"/>
					<path class="st20" d="M1359.07,344.9l307.37,177.46c2.37,1.37,4.4,0.58,4.82-1.88l38.76-229.99c0.44-2.61-1.47-6.35-3.99-7.81
						l-307.37-177.46c-2.37-1.37-4.4-0.58-4.82,1.88l-38.76,229.99C1354.64,339.7,1356.55,343.44,1359.07,344.9z"/>
					<g class="st21">
						<polygon class="st22" points="1397.64,109.5 1706.45,287.71 1667.45,518.29 1358.84,340.19 						"/>
					</g>
				</g>
				<g>
					
						<linearGradient id="SVGID_00000125562608726869823210000003048690737580183708_" gradientUnits="userSpaceOnUse" x1="361.7959" y1="502.6541" x2="863.2736" y2="502.6541" gradientTransform="matrix(-1 0 0 1 2029.1379 0)">
						<stop  offset="0" style="stop-color:#5761D7"/>
						<stop  offset="0.1779" style="stop-color:#5C66D9"/>
						<stop  offset="0.3876" style="stop-color:#6A73DF"/>
						<stop  offset="0.6134" style="stop-color:#8289E8"/>
						<stop  offset="0.849" style="stop-color:#A3A7F5"/>
						<stop  offset="1" style="stop-color:#BCBEFF"/>
					</linearGradient>
					<path style="fill:url(#SVGID_00000125562608726869823210000003048690737580183708_);" d="M1165.86,453.78l16.77,8.76
						l168.2-97.11c2.81-1.62,7.73-1.42,10.98,0.46l290.09,167.49c2.78-1.55,15.43-7.64,15.43-7.64l-6.14,9.98
						c0,0-0.02-0.02-0.02-0.02c-0.25,0.71-0.8,1.38-1.72,1.9l-177.15,102.27c-2.81,1.62-7.73,1.42-10.98-0.46l-296.86-171.39
						c-1.33-0.77-2.15-1.7-2.49-2.65l-0.02,0.02L1165.86,453.78z"/>
					
						<linearGradient id="SVGID_00000077325430412095689600000006765480344637356977_" gradientUnits="userSpaceOnUse" x1="530.2941" y1="488.9421" x2="1032.0388" y2="488.9421" gradientTransform="matrix(-1 0 0 1 2029.1379 0)">
						<stop  offset="0" style="stop-color:#C0BFF6"/>
						<stop  offset="0.2938" style="stop-color:#C5C4F7"/>
						<stop  offset="0.6399" style="stop-color:#D3D2F9"/>
						<stop  offset="1" style="stop-color:#E9E9FD"/>
					</linearGradient>
					<path style="fill:url(#SVGID_00000077325430412095689600000006765480344637356977_);" d="M1168.46,456.54l304.24,175.65
						c3.33,1.92,8.37,2.13,11.25,0.47l181.55-104.82c2.88-1.67,2.52-4.57-0.81-6.5l-304.24-175.65c-3.33-1.92-8.37-2.13-11.25-0.47
						l-181.55,104.82C1164.77,451.71,1165.13,454.62,1168.46,456.54z"/>
					<path class="st3" d="M1168.46,455.18l304.24,175.65c3.33,1.92,8.37,2.13,11.25,0.47l181.55-104.82
						c1.02-0.59,1.61-1.33,1.83-2.13c0.32,1.29-0.25,2.58-1.83,3.49l-181.55,104.82c-2.88,1.67-7.92,1.46-11.25-0.47l-304.24-175.65
						c-2.16-1.25-3.05-2.9-2.64-4.37C1166.09,453.24,1166.95,454.31,1168.46,455.18z"/>
				</g>
			</g>
			<g class="st25">
				<defs>
					<polygon id="SVGID_00000087392572296499975730000013889489764980695742_" class="st25" points="1706.45,287.71 1397.64,109.5 
						1358.84,340.19 1667.45,518.29 					"/>
				</defs>
				<clipPath id="SVGID_00000111904580669517877360000015160656695722954411_">
					<use xlink:href="#SVGID_00000087392572296499975730000013889489764980695742_"  style="overflow:visible;"/>
				</clipPath>
				<g style="clip-path:url(#SVGID_00000111904580669517877360000015160656695722954411_);">
					<g>
						
							<linearGradient id="SVGID_00000083781200665935169650000003822116465885059980_" gradientUnits="userSpaceOnUse" x1="168.9622" y1="392.2892" x2="670.4395" y2="392.2892" gradientTransform="matrix(-1 0 0 1 2029.1379 0)">
							<stop  offset="0" style="stop-color:#5761D7"/>
							<stop  offset="0.1779" style="stop-color:#5C66D9"/>
							<stop  offset="0.3876" style="stop-color:#6A73DF"/>
							<stop  offset="0.6134" style="stop-color:#8289E8"/>
							<stop  offset="0.849" style="stop-color:#A3A7F5"/>
							<stop  offset="1" style="stop-color:#BCBEFF"/>
						</linearGradient>
						<path style="fill:url(#SVGID_00000083781200665935169650000003822116465885059980_);" d="M1358.7,343.42l16.77,8.76
							l168.2-97.11c2.81-1.62,7.73-1.42,10.98,0.46l290.09,167.49c2.78-1.55,15.43-7.64,15.43-7.64l-6.14,9.98
							c0,0-0.02-0.02-0.02-0.02c-0.25,0.71-0.8,1.38-1.72,1.9l-177.15,102.27c-2.81,1.63-7.73,1.42-10.98-0.45l-296.86-171.39
							c-1.33-0.77-2.15-1.7-2.49-2.65l-0.02,0.02L1358.7,343.42z"/>
						
							<linearGradient id="SVGID_00000078007064599748034840000010139405814733351860_" gradientUnits="userSpaceOnUse" x1="337.4602" y1="378.5772" x2="839.205" y2="378.5772" gradientTransform="matrix(-1 0 0 1 2029.1379 0)">
							<stop  offset="0" style="stop-color:#C0BFF6"/>
							<stop  offset="0.2938" style="stop-color:#C5C4F7"/>
							<stop  offset="0.6399" style="stop-color:#D3D2F9"/>
							<stop  offset="1" style="stop-color:#E9E9FD"/>
						</linearGradient>
						<path style="fill:url(#SVGID_00000078007064599748034840000010139405814733351860_);" d="M1361.29,346.18l304.24,175.65
							c3.33,1.92,8.37,2.13,11.25,0.47l181.55-104.82c2.88-1.67,2.52-4.57-0.81-6.5l-304.24-175.65c-3.33-1.92-8.37-2.13-11.25-0.47
							l-181.55,104.82C1357.6,341.34,1357.96,344.25,1361.29,346.18z"/>
						<path class="st3" d="M1857.53,410.98l-304.24-175.65c-2.14-1.24-4.99-1.75-7.52-1.53c1.87,0.15,3.75,0.65,5.28,1.53
							l304.24,175.65c3.33,1.92,3.69,4.83,0.81,6.5l-181.55,104.82c-1.03,0.59-2.33,0.94-3.73,1.06c2.21,0.17,4.41-0.16,5.98-1.06
							l181.55-104.82C1861.22,415.81,1860.86,412.9,1857.53,410.98z"/>
					</g>
					<g class="st29">
						<path class="st20" d="M1520.65,315.94l-9.75-5.63c-0.78-0.45-2.11-0.42-2.96,0.08l-10.84,6.33c-0.85,0.5-0.91,1.27-0.12,1.72
							l9.75,5.63c0.78,0.45,2.11,0.42,2.96-0.08l10.84-6.33C1521.38,317.16,1521.44,316.39,1520.65,315.94z"/>
						<path class="st20" d="M1535.71,324.63l-9.75-5.63c-0.78-0.45-2.11-0.42-2.96,0.08l-10.84,6.33c-0.85,0.5-0.91,1.27-0.12,1.72
							l9.75,5.63c0.78,0.45,2.11,0.42,2.96-0.08l10.84-6.33C1536.44,325.85,1536.5,325.08,1535.71,324.63z"/>
						<path class="st20" d="M1550.77,333.33l-9.75-5.63c-0.78-0.45-2.11-0.42-2.96,0.08l-10.84,6.33c-0.85,0.5-0.91,1.27-0.12,1.72
							l9.75,5.63c0.78,0.45,2.11,0.42,2.96-0.08l10.84-6.33C1551.5,334.55,1551.56,333.78,1550.77,333.33z"/>
						<path class="st20" d="M1539.31,344.9l-9.75-5.63c-0.78-0.45-2.11-0.42-2.96,0.08l-9.1,5.32c-0.85,0.5-0.91,1.27-0.12,1.72
							l9.75,5.63c0.78,0.45,2.11,0.42,2.96-0.08l9.1-5.32C1540.04,346.12,1540.09,345.35,1539.31,344.9z"/>
						<path class="st20" d="M1554.37,353.59l-9.75-5.63c-0.78-0.45-2.11-0.42-2.96,0.08l-9.1,5.32c-0.85,0.5-0.91,1.27-0.12,1.72
							l9.75,5.63c0.78,0.45,2.11,0.42,2.96-0.08l9.1-5.32C1555.1,354.82,1555.15,354.05,1554.37,353.59z"/>
						<path class="st20" d="M1569.43,362.29l-9.75-5.63c-0.78-0.45-2.11-0.42-2.96,0.08l-9.1,5.32c-0.85,0.5-0.91,1.27-0.12,1.72
							l9.75,5.63c0.78,0.45,2.11,0.42,2.96-0.08l9.1-5.32C1570.16,363.51,1570.21,362.74,1569.43,362.29z"/>
						<path class="st20" d="M1584.49,370.98l-9.75-5.63c-0.78-0.45-2.11-0.42-2.96,0.08l-9.1,5.32c-0.85,0.5-0.91,1.27-0.12,1.72
							l9.75,5.63c0.78,0.45,2.11,0.42,2.96-0.08l9.1-5.32C1585.22,372.21,1585.27,371.44,1584.49,370.98z"/>
						<path class="st20" d="M1599.55,379.68l-9.75-5.63c-0.78-0.45-2.11-0.42-2.96,0.08l-9.1,5.32c-0.85,0.5-0.91,1.27-0.12,1.72
							l9.75,5.63c0.78,0.45,2.11,0.42,2.96-0.08l9.1-5.32C1600.28,380.9,1600.33,380.13,1599.55,379.68z"/>
						<path class="st20" d="M1614.61,388.38l-9.75-5.63c-0.78-0.45-2.11-0.42-2.96,0.08l-9.1,5.32c-0.85,0.5-0.91,1.27-0.12,1.72
							l9.75,5.63c0.78,0.45,2.11,0.42,2.96-0.08l9.1-5.32C1615.34,389.6,1615.39,388.83,1614.61,388.38z"/>
						<path class="st20" d="M1629.67,397.07l-9.75-5.63c-0.78-0.45-2.11-0.42-2.96,0.08l-9.1,5.32c-0.85,0.5-0.91,1.27-0.12,1.72
							l9.75,5.63c0.78,0.45,2.11,0.42,2.96-0.08l9.1-5.32C1630.4,398.29,1630.45,397.52,1629.67,397.07z"/>
						<path class="st20" d="M1644.73,405.77l-9.75-5.63c-0.78-0.45-2.11-0.42-2.96,0.08l-9.1,5.32c-0.85,0.5-0.91,1.27-0.12,1.72
							l9.75,5.63c0.78,0.45,2.11,0.42,2.96-0.08l9.1-5.32C1645.46,406.99,1645.51,406.22,1644.73,405.77z"/>
						<path class="st20" d="M1659.79,414.46l-9.75-5.63c-0.78-0.45-2.11-0.42-2.96,0.08l-9.1,5.32c-0.85,0.5-0.91,1.27-0.12,1.72
							l9.75,5.63c0.78,0.45,2.11,0.42,2.96-0.08l9.1-5.32C1660.52,415.68,1660.57,414.91,1659.79,414.46z"/>
						<path class="st20" d="M1674.85,423.16l-9.75-5.63c-0.78-0.45-2.11-0.42-2.96,0.08l-9.1,5.32c-0.85,0.5-0.91,1.27-0.12,1.72
							l9.75,5.63c0.78,0.45,2.11,0.42,2.96-0.08l9.1-5.32C1675.58,424.38,1675.64,423.61,1674.85,423.16z"/>
						<path class="st20" d="M1533.03,357.31l-9.75-5.63c-0.78-0.45-2.11-0.42-2.96,0.08l-9.1,5.32c-0.85,0.5-0.91,1.27-0.12,1.72
							l9.75,5.63c0.78,0.45,2.11,0.42,2.96-0.08l9.1-5.32C1533.76,358.53,1533.82,357.76,1533.03,357.31z"/>
						<path class="st20" d="M1517.75,348.49l-9.75-5.63c-0.78-0.45-2.11-0.42-2.96,0.08l-9.1,5.32c-0.85,0.5-0.91,1.27-0.12,1.72
							l9.75,5.63c0.78,0.45,2.11,0.42,2.96-0.08l9.1-5.32C1518.48,349.71,1518.53,348.94,1517.75,348.49z"/>
						<path class="st20" d="M1502.44,339.65l-21-12.13c-0.78-0.45-2.11-0.42-2.96,0.08l-9.1,5.32c-0.85,0.5-0.91,1.27-0.12,1.72
							l21,12.13c0.78,0.45,2.11,0.42,2.96-0.08l9.1-5.32C1503.17,340.87,1503.22,340.1,1502.44,339.65z"/>
						<path class="st20" d="M1484.68,345.43l-17.05-9.84c-0.78-0.45-2.11-0.42-2.96,0.08l-9.1,5.32c-0.85,0.5-0.91,1.27-0.12,1.72
							l17.05,9.84c0.78,0.45,2.11,0.42,2.96-0.08l9.1-5.32C1485.4,346.65,1485.46,345.88,1484.68,345.43z"/>
						<path class="st20" d="M1548.09,366.01l-9.75-5.63c-0.78-0.45-2.11-0.42-2.96,0.08l-9.1,5.32c-0.85,0.5-0.91,1.27-0.12,1.72
							l9.75,5.63c0.78,0.45,2.11,0.42,2.96-0.08l9.1-5.32C1548.82,367.23,1548.88,366.46,1548.09,366.01z"/>
						<path class="st20" d="M1563.16,374.7l-9.75-5.63c-0.78-0.45-2.11-0.42-2.96,0.08l-9.1,5.32c-0.85,0.5-0.91,1.27-0.12,1.72
							l9.75,5.63c0.78,0.45,2.11,0.42,2.96-0.08l9.1-5.32C1563.88,375.92,1563.94,375.15,1563.16,374.7z"/>
						<path class="st20" d="M1578.22,383.4l-9.75-5.63c-0.78-0.45-2.11-0.42-2.96,0.08l-9.1,5.32c-0.85,0.5-0.91,1.27-0.12,1.72
							l9.75,5.63c0.78,0.45,2.11,0.42,2.96-0.08l9.1-5.32C1578.94,384.62,1579,383.85,1578.22,383.4z"/>
						<path class="st20" d="M1593.28,392.09l-9.75-5.63c-0.78-0.45-2.11-0.42-2.96,0.08l-9.1,5.32c-0.85,0.5-0.91,1.27-0.12,1.72
							l9.75,5.63c0.78,0.45,2.11,0.42,2.96-0.08l9.1-5.32C1594,393.31,1594.06,392.54,1593.28,392.09z"/>
						<path class="st20" d="M1608.34,400.79l-9.75-5.63c-0.78-0.45-2.11-0.42-2.96,0.08l-9.1,5.32c-0.85,0.5-0.91,1.27-0.12,1.72
							l9.75,5.63c0.78,0.45,2.11,0.42,2.96-0.08l9.1-5.32C1609.06,402.01,1609.12,401.24,1608.34,400.79z"/>
						<path class="st20" d="M1623.4,409.48l-9.75-5.63c-0.78-0.45-2.11-0.42-2.96,0.08l-9.1,5.32c-0.85,0.5-0.91,1.27-0.12,1.72
							l9.75,5.63c0.78,0.45,2.11,0.42,2.96-0.08l9.1-5.32C1624.12,410.7,1624.18,409.93,1623.4,409.48z"/>
						<path class="st20" d="M1638.46,418.18l-9.75-5.63c-0.78-0.45-2.11-0.42-2.96,0.08l-9.1,5.32c-0.85,0.5-0.91,1.27-0.12,1.72
							l9.75,5.63c0.78,0.45,2.11,0.42,2.96-0.08l9.1-5.32C1639.18,419.4,1639.24,418.63,1638.46,418.18z"/>
						<path class="st20" d="M1653.52,426.87l-9.75-5.63c-0.78-0.45-2.11-0.42-2.96,0.08l-9.1,5.32c-0.85,0.5-0.91,1.27-0.12,1.72
							l9.75,5.63c0.78,0.45,2.11,0.42,2.96-0.08l9.1-5.32C1654.25,428.09,1654.3,427.33,1653.52,426.87z"/>
						<path class="st20" d="M1668.58,435.57l-9.75-5.63c-0.78-0.45-2.11-0.42-2.96,0.08l-9.1,5.32c-0.85,0.5-0.91,1.27-0.12,1.72
							l9.75,5.63c0.78,0.45,2.11,0.42,2.96-0.08l9.1-5.32C1669.31,436.79,1669.36,436.02,1668.58,435.57z"/>
						<path class="st20" d="M1695.35,451.03l-21.28-12.29c-0.78-0.45-2.11-0.42-2.96,0.08l-9.1,5.32c-0.85,0.5-0.91,1.27-0.12,1.72
							l21.28,12.29c0.78,0.45,2.11,0.42,2.96-0.08l9.1-5.32C1696.08,452.25,1696.14,451.48,1695.35,451.03z"/>
						<path class="st20" d="M1667.74,467.16l-17.96-10.37c-0.78-0.45-2.11-0.42-2.96,0.08l-9.1,5.32c-0.85,0.5-0.91,1.27-0.12,1.72
							l17.96,10.37c0.78,0.45,2.11,0.42,2.96-0.08l9.1-5.32C1668.47,468.38,1668.53,467.61,1667.74,467.16z"/>
						<path class="st20" d="M1546,380.83l-9.75-5.63c-0.78-0.45-2.11-0.42-2.96,0.08l-9.1,5.32c-0.85,0.5-0.91,1.27-0.12,1.72
							l9.75,5.63c0.78,0.45,2.11,0.42,2.96-0.08l9.1-5.32C1546.73,382.06,1546.79,381.29,1546,380.83z"/>
						<path class="st20" d="M1530.57,371.92l-9.75-5.63c-0.78-0.45-2.11-0.42-2.96,0.08l-9.1,5.32c-0.85,0.5-0.91,1.27-0.12,1.72
							l9.75,5.63c0.78,0.45,2.11,0.42,2.96-0.08l9.1-5.32C1531.3,373.14,1531.35,372.38,1530.57,371.92z"/>
						<path class="st20" d="M1515.13,363.01l-9.75-5.63c-0.78-0.45-2.11-0.42-2.96,0.08l-9.1,5.32c-0.85,0.5-0.91,1.27-0.12,1.72
							l9.75,5.63c0.78,0.45,2.11,0.42,2.96-0.08l9.1-5.32C1515.86,364.23,1515.92,363.46,1515.13,363.01z"/>
						<path class="st20" d="M1499.7,354.1l-9.75-5.63c-0.78-0.45-2.11-0.42-2.96,0.08l-9.1,5.32c-0.85,0.5-0.91,1.27-0.12,1.72
							l9.75,5.63c0.78,0.45,2.11,0.42,2.96-0.08l9.1-5.32C1500.43,355.32,1500.48,354.55,1499.7,354.1z"/>
						<path class="st20" d="M1561.06,389.53l-9.75-5.63c-0.78-0.45-2.11-0.42-2.96,0.08l-9.1,5.32c-0.85,0.5-0.91,1.27-0.12,1.72
							l9.75,5.63c0.78,0.45,2.11,0.42,2.96-0.08l9.1-5.32C1561.79,390.75,1561.85,389.98,1561.06,389.53z"/>
						<path class="st20" d="M1576.13,398.22l-9.75-5.63c-0.78-0.45-2.11-0.42-2.96,0.08l-9.1,5.32c-0.85,0.5-0.91,1.27-0.12,1.72
							l9.75,5.63c0.78,0.45,2.11,0.42,2.96-0.08l9.1-5.32C1576.85,399.45,1576.91,398.68,1576.13,398.22z"/>
						<path class="st20" d="M1591.19,406.92l-9.75-5.63c-0.78-0.45-2.11-0.42-2.96,0.08l-9.1,5.32c-0.85,0.5-0.91,1.27-0.12,1.72
							l9.75,5.63c0.78,0.45,2.11,0.42,2.96-0.08l9.1-5.32C1591.91,408.14,1591.97,407.37,1591.19,406.92z"/>
						<path class="st20" d="M1606.25,415.62l-9.75-5.63c-0.78-0.45-2.11-0.42-2.96,0.08l-9.1,5.32c-0.85,0.5-0.91,1.27-0.12,1.72
							l9.75,5.63c0.78,0.45,2.11,0.42,2.96-0.08l9.1-5.32C1606.97,416.84,1607.03,416.07,1606.25,415.62z"/>
						<path class="st20" d="M1621.31,424.31l-9.75-5.63c-0.78-0.45-2.11-0.42-2.96,0.08l-9.1,5.32c-0.85,0.5-0.91,1.27-0.12,1.72
							l9.75,5.63c0.78,0.45,2.11,0.42,2.96-0.08l9.1-5.32C1622.03,425.53,1622.09,424.76,1621.31,424.31z"/>
						<path class="st20" d="M1636.37,433.01l-9.75-5.63c-0.78-0.45-2.11-0.42-2.96,0.08l-9.1,5.32c-0.85,0.5-0.91,1.27-0.12,1.72
							l9.75,5.63c0.78,0.45,2.11,0.42,2.96-0.08l9.1-5.32C1637.09,434.23,1637.15,433.46,1636.37,433.01z"/>
						<path class="st20" d="M1651.43,441.7l-9.75-5.63c-0.78-0.45-2.11-0.42-2.96,0.08l-9.1,5.32c-0.85,0.5-0.91,1.27-0.12,1.72
							l9.75,5.63c0.78,0.45,2.11,0.42,2.96-0.08l9.1-5.32C1652.15,442.92,1652.21,442.15,1651.43,441.7z"/>
						<path class="st20" d="M1666.49,450.4l-9.75-5.63c-0.78-0.45-2.11-0.42-2.96,0.08l-9.1,5.32c-0.85,0.5-0.91,1.27-0.12,1.72
							l9.75,5.63c0.78,0.45,2.11,0.42,2.96-0.08l9.1-5.32C1667.22,451.62,1667.27,450.85,1666.49,450.4z"/>
						<path class="st20" d="M1681.55,459.09l-9.75-5.63c-0.78-0.45-2.11-0.42-2.96,0.08l-9.1,5.32c-0.85,0.5-0.91,1.27-0.12,1.72
							l9.75,5.63c0.78,0.45,2.11,0.42,2.96-0.08l9.1-5.32C1682.28,460.31,1682.33,459.54,1681.55,459.09z"/>
						<path class="st20" d="M1509.61,375.86l-9.75-5.63c-0.78-0.45-2.11-0.42-2.96,0.08l-9.1,5.32c-0.85,0.5-0.91,1.27-0.12,1.72
							l9.75,5.63c0.78,0.45,2.11,0.42,2.96-0.08l9.1-5.32C1510.34,377.08,1510.39,376.31,1509.61,375.86z"/>
						<path class="st20" d="M1494.62,367.2l-9.75-5.63c-0.78-0.45-2.11-0.42-2.96,0.08l-9.1,5.32c-0.85,0.5-0.91,1.27-0.12,1.72
							l9.75,5.63c0.78,0.45,2.11,0.42,2.96-0.08l9.1-5.32C1495.35,368.43,1495.41,367.66,1494.62,367.2z"/>
						<path class="st20" d="M1479.64,358.55l-9.75-5.63c-0.78-0.45-2.11-0.42-2.96,0.08l-9.1,5.32c-0.85,0.5-0.91,1.27-0.12,1.72
							l9.75,5.63c0.78,0.45,2.11,0.42,2.96-0.08l9.1-5.32C1480.37,359.77,1480.42,359.01,1479.64,358.55z"/>
						<path class="st20" d="M1464.65,349.9l-9.75-5.63c-0.78-0.45-2.11-0.42-2.96,0.08l-9.1,5.32c-0.85,0.5-0.91,1.27-0.12,1.72
							l9.75,5.63c0.78,0.45,2.11,0.42,2.96-0.08l9.1-5.32C1465.38,351.12,1465.44,350.35,1464.65,349.9z"/>
						<path class="st20" d="M1450.14,358.38l-9.75-5.63c-0.78-0.45-2.11-0.42-2.96,0.08l-3.01,1.76c-0.85,0.5-0.91,1.27-0.12,1.72
							l9.75,5.63c0.78,0.45,2.11,0.42,2.96-0.08l3.01-1.76C1450.87,359.6,1450.93,358.83,1450.14,358.38z"/>
						<path class="st20" d="M1469.7,369.67l-9.75-5.63c-0.78-0.45-2.11-0.42-2.96,0.08l-3.01,1.76c-0.85,0.5-0.91,1.27-0.12,1.72
							l9.75,5.63c0.78,0.45,2.11,0.42,2.96-0.08l3.01-1.76C1470.43,370.89,1470.48,370.12,1469.7,369.67z"/>
						<path class="st20" d="M1484.62,378.28l-9.75-5.63c-0.78-0.45-2.11-0.42-2.96,0.08l-3.01,1.76c-0.85,0.5-0.91,1.27-0.12,1.72
							l9.75,5.63c0.78,0.45,2.11,0.42,2.96-0.08l3.01-1.76C1485.35,379.51,1485.41,378.74,1484.62,378.28z"/>
						<path class="st20" d="M1499.55,386.9l-9.75-5.63c-0.78-0.45-2.11-0.42-2.96,0.08l-3.01,1.76c-0.85,0.5-0.91,1.27-0.12,1.72
							l9.75,5.63c0.78,0.45,2.11,0.42,2.96-0.08l3.01-1.76C1500.27,388.12,1500.33,387.35,1499.55,386.9z"/>
						<path class="st20" d="M1514.47,395.52l-9.75-5.63c-0.78-0.45-2.11-0.42-2.96,0.08l-3.01,1.76c-0.85,0.5-0.91,1.27-0.12,1.72
							l9.75,5.63c0.78,0.45,2.11,0.42,2.96-0.08l3.01-1.76C1515.2,396.74,1515.25,395.97,1514.47,395.52z"/>
						<path class="st20" d="M1597.78,443.62l-9.75-5.63c-0.78-0.45-2.11-0.42-2.96,0.08l-3.01,1.76c-0.85,0.5-0.91,1.27-0.12,1.72
							l9.75,5.63c0.78,0.45,2.11,0.42,2.96-0.08l3.01-1.76C1598.51,444.84,1598.56,444.07,1597.78,443.62z"/>
						<path class="st20" d="M1612.7,452.23l-9.75-5.63c-0.78-0.45-2.11-0.42-2.96,0.08l-3.01,1.76c-0.85,0.5-0.91,1.27-0.12,1.72
							l9.75,5.63c0.78,0.45,2.11,0.42,2.96-0.08l3.01-1.76C1613.43,453.45,1613.49,452.69,1612.7,452.23z"/>
						<path class="st20" d="M1627.63,460.85l-9.75-5.63c-0.78-0.45-2.11-0.42-2.96,0.08l-3.01,1.76c-0.85,0.5-0.91,1.27-0.12,1.72
							l9.75,5.63c0.78,0.45,2.11,0.42,2.96-0.08l3.01-1.76C1628.36,462.07,1628.41,461.3,1627.63,460.85z"/>
						<path class="st20" d="M1642.55,469.46l-9.75-5.63c-0.78-0.45-2.11-0.42-2.96,0.08l-3.01,1.76c-0.85,0.5-0.91,1.27-0.12,1.72
							l9.75,5.63c0.78,0.45,2.11,0.42,2.96-0.08l3.01-1.76C1643.28,470.69,1643.33,469.92,1642.55,469.46z"/>
						<path class="st20" d="M1524.67,384.55l-9.75-5.63c-0.78-0.45-2.11-0.42-2.96,0.08l-9.1,5.32c-0.85,0.5-0.91,1.27-0.12,1.72
							l9.75,5.63c0.78,0.45,2.11,0.42,2.96-0.08l9.1-5.32C1525.4,385.77,1525.45,385,1524.67,384.55z"/>
						<path class="st20" d="M1539.73,393.25l-9.75-5.63c-0.78-0.45-2.11-0.42-2.96,0.08l-9.1,5.32c-0.85,0.5-0.91,1.27-0.12,1.72
							l9.75,5.63c0.78,0.45,2.11,0.42,2.96-0.08l9.1-5.32C1540.46,394.47,1540.51,393.7,1539.73,393.25z"/>
						<path class="st20" d="M1554.79,401.94l-9.75-5.63c-0.78-0.45-2.11-0.42-2.96,0.08l-9.1,5.32c-0.85,0.5-0.91,1.27-0.12,1.72
							l9.75,5.63c0.78,0.45,2.11,0.42,2.96-0.08l9.1-5.32C1555.52,403.16,1555.57,402.39,1554.79,401.94z"/>
						<path class="st20" d="M1569.85,410.64l-9.75-5.63c-0.78-0.45-2.11-0.42-2.96,0.08l-9.1,5.32c-0.85,0.5-0.91,1.27-0.12,1.72
							l9.75,5.63c0.78,0.45,2.11,0.42,2.96-0.08l9.1-5.32C1570.58,411.86,1570.63,411.09,1569.85,410.64z"/>
						<path class="st20" d="M1584.91,419.33l-9.75-5.63c-0.78-0.45-2.11-0.42-2.96,0.08l-9.1,5.32c-0.85,0.5-0.91,1.27-0.12,1.72
							l9.75,5.63c0.78,0.45,2.11,0.42,2.96-0.08l9.1-5.32C1585.64,420.55,1585.69,419.78,1584.91,419.33z"/>
						<path class="st20" d="M1599.97,428.03l-9.75-5.63c-0.78-0.45-2.11-0.42-2.96,0.08l-9.1,5.32c-0.85,0.5-0.91,1.27-0.12,1.72
							l9.75,5.63c0.78,0.45,2.11,0.42,2.96-0.08l9.1-5.32C1600.7,429.25,1600.76,428.48,1599.97,428.03z"/>
						<path class="st20" d="M1615.03,436.72l-9.75-5.63c-0.78-0.45-2.11-0.42-2.96,0.08l-9.1,5.32c-0.85,0.5-0.91,1.27-0.12,1.72
							l9.75,5.63c0.78,0.45,2.11,0.42,2.96-0.08l9.1-5.32C1615.76,437.94,1615.82,437.17,1615.03,436.72z"/>
						<path class="st20" d="M1630.09,445.42l-9.75-5.63c-0.78-0.45-2.11-0.42-2.96,0.08l-9.1,5.32c-0.85,0.5-0.91,1.27-0.12,1.72
							l9.75,5.63c0.78,0.45,2.11,0.42,2.96-0.08l9.1-5.32C1630.82,446.64,1630.88,445.87,1630.09,445.42z"/>
						<path class="st20" d="M1645.15,454.11l-9.75-5.63c-0.78-0.45-2.11-0.42-2.96,0.08l-9.1,5.32c-0.85,0.5-0.91,1.27-0.12,1.72
							l9.75,5.63c0.78,0.45,2.11,0.42,2.96-0.08l9.1-5.32C1645.88,455.33,1645.94,454.57,1645.15,454.11z"/>
						<path class="st20" d="M1523.96,336.04l-28.72-16.58c-0.78-0.45-2.11-0.42-2.96,0.08l-9.1,5.32c-0.85,0.5-0.91,1.27-0.12,1.72
							l28.72,16.58c0.78,0.45,2.11,0.42,2.96-0.08l9.1-5.32C1524.69,337.26,1524.74,336.49,1523.96,336.04z"/>
						<path class="st20" d="M1708.98,442.86l-28.72-16.58c-0.78-0.45-2.11-0.42-2.96,0.08l-9.1,5.32c-0.85,0.5-0.91,1.27-0.12,1.72
							l28.72,16.58c0.78,0.45,2.11,0.42,2.96-0.08l9.1-5.32C1709.71,444.08,1709.76,443.31,1708.98,442.86z"/>
						<path class="st20" d="M1681.05,408.54l-9.75-5.63c-0.78-0.45-2.11-0.42-2.96,0.08l-10.84,6.33c-0.85,0.5-0.91,1.27-0.12,1.72
							l9.75,5.63c0.78,0.45,2.11,0.42,2.96-0.08l10.84-6.33C1681.78,409.76,1681.83,408.99,1681.05,408.54z"/>
						<path class="st20" d="M1571.68,345.4l-15.6-9c-0.78-0.45-2.11-0.42-2.96,0.08l-10.84,6.33c-0.85,0.5-0.91,1.27-0.12,1.72
							l15.6,9c0.78,0.45,2.11,0.42,2.96-0.08l10.84-6.33C1572.41,346.62,1572.46,345.85,1571.68,345.4z"/>
						<path class="st20" d="M1666.54,400.16l-15.6-9c-0.78-0.45-2.11-0.42-2.96,0.08l-10.84,6.33c-0.85,0.5-0.91,1.27-0.12,1.72
							l15.6,9c0.78,0.45,2.11,0.42,2.96-0.08l10.84-6.33C1667.26,401.38,1667.32,400.61,1666.54,400.16z"/>
						<path class="st20" d="M1593.41,357.94l-15.6-9c-0.78-0.45-2.11-0.42-2.96,0.08l-10.84,6.33c-0.85,0.5-0.91,1.27-0.12,1.72
							l15.6,9c0.78,0.45,2.11,0.42,2.96-0.08l10.84-6.33C1594.14,359.16,1594.19,358.39,1593.41,357.94z"/>
						<path class="st20" d="M1564,357.13l67.81,39.15c0.84,0.49,2.17,0.5,2.96,0.04l11.05-6.46c0.79-0.46,0.75-1.23-0.09-1.72
							L1577.92,349L1564,357.13z"/>
						<path class="st20" d="M1708.79,432.64l10.86,6.27c0.64,0.37,1.73,0.34,2.43-0.07l4.43-2.59c0.7-0.41,0.74-1.04,0.1-1.41
							l-10.86-6.27c-0.64-0.37-1.73-0.34-2.43,0.07l-4.43,2.59C1708.19,431.64,1708.14,432.27,1708.79,432.64z"/>
						<path class="st20" d="M1693.6,423.87l10.86,6.27c0.64,0.37,1.73,0.34,2.43-0.07l4.43-2.59c0.7-0.41,0.74-1.04,0.1-1.41
							l-10.86-6.27c-0.64-0.37-1.73-0.34-2.43,0.07l-4.43,2.59C1693,422.87,1692.96,423.5,1693.6,423.87z"/>
						<path class="st20" d="M1678.54,415.18l10.86,6.27c0.64,0.37,1.73,0.34,2.43-0.07l4.43-2.59c0.7-0.41,0.74-1.04,0.1-1.41
							l-10.86-6.27c-0.64-0.37-1.73-0.34-2.43,0.07l-4.43,2.59C1677.94,414.18,1677.9,414.81,1678.54,415.18z"/>
						<path class="st20" d="M1685.77,428.45l10.86,6.27c0.64,0.37,1.73,0.34,2.43-0.07l4.43-2.59c0.7-0.41,0.74-1.04,0.1-1.41
							l-10.86-6.27c-0.64-0.37-1.73-0.34-2.43,0.07l-4.43,2.59C1685.17,427.45,1685.13,428.08,1685.77,428.45z"/>
					</g>
				</g>
			</g>
		</g>
		<g class="st30">
			<path class="st20" d="M1308.4,437.09l-9.66-5.58c-0.78-0.45-0.68-1.23,0.22-1.75l11.4-6.58c0.9-0.52,2.25-0.57,3.03-0.13
				l9.66,5.58c0.78,0.45,0.68,1.23-0.22,1.75l-11.4,6.58C1310.53,437.48,1309.18,437.54,1308.4,437.09z"/>
			<path class="st20" d="M1323.32,445.7l-9.66-5.58c-0.78-0.45-0.68-1.23,0.22-1.75l11.4-6.58c0.9-0.52,2.25-0.57,3.03-0.13
				l9.66,5.58c0.78,0.45,0.68,1.23-0.22,1.75l-11.4,6.58C1325.45,446.09,1324.1,446.15,1323.32,445.7z"/>
			<path class="st20" d="M1338.24,454.31l-9.66-5.58c-0.78-0.45-0.68-1.23,0.22-1.75l11.4-6.58c0.9-0.52,2.25-0.57,3.03-0.13
				l9.66,5.58c0.78,0.45,0.68,1.23-0.22,1.75l-11.4,6.58C1340.37,454.7,1339.01,454.76,1338.24,454.31z"/>
			<path class="st20" d="M1358.86,447.2l-9.66-5.58c-0.78-0.45-0.68-1.23,0.22-1.75l9.57-5.53c0.9-0.52,2.25-0.57,3.03-0.13
				l9.66,5.58c0.78,0.45,0.68,1.23-0.22,1.75l-9.57,5.53C1360.99,447.59,1359.64,447.65,1358.86,447.2z"/>
			<path class="st20" d="M1373.78,455.81l-9.66-5.58c-0.78-0.45-0.68-1.23,0.22-1.75l9.57-5.53c0.9-0.52,2.25-0.57,3.03-0.13
				l9.66,5.58c0.78,0.45,0.68,1.23-0.22,1.75l-9.57,5.52C1375.91,456.2,1374.55,456.26,1373.78,455.81z"/>
			<path class="st20" d="M1388.69,464.42l-9.66-5.58c-0.78-0.45-0.68-1.23,0.22-1.75l9.57-5.52c0.9-0.52,2.25-0.57,3.03-0.13
				l9.66,5.58c0.78,0.45,0.68,1.23-0.22,1.75l-9.57,5.53C1390.82,464.81,1389.47,464.87,1388.69,464.42z"/>
			<path class="st20" d="M1403.61,473.03l-9.66-5.58c-0.78-0.45-0.68-1.23,0.22-1.75l9.57-5.53c0.9-0.52,2.25-0.57,3.03-0.13
				l9.66,5.58c0.78,0.45,0.68,1.23-0.22,1.75l-9.57,5.52C1405.74,473.42,1404.39,473.48,1403.61,473.03z"/>
			<path class="st20" d="M1418.53,481.64l-9.66-5.58c-0.78-0.45-0.68-1.23,0.22-1.75l9.57-5.52c0.9-0.52,2.25-0.57,3.03-0.13
				l9.66,5.58c0.78,0.45,0.68,1.23-0.22,1.75l-9.57,5.53C1420.65,482.04,1419.3,482.09,1418.53,481.64z"/>
			<path class="st20" d="M1433.44,490.26l-9.66-5.58c-0.78-0.45-0.68-1.23,0.22-1.75l9.57-5.53c0.9-0.52,2.25-0.57,3.03-0.13
				l9.66,5.58c0.78,0.45,0.68,1.23-0.22,1.75l-9.57,5.52C1435.57,490.65,1434.22,490.7,1433.44,490.26z"/>
			<path class="st20" d="M1448.36,498.87l-9.66-5.58c-0.78-0.45-0.68-1.23,0.22-1.75l9.57-5.52c0.9-0.52,2.25-0.57,3.03-0.13
				l9.66,5.58c0.78,0.45,0.68,1.23-0.22,1.75l-9.57,5.53C1450.49,499.26,1449.13,499.31,1448.36,498.87z"/>
			<path class="st20" d="M1463.27,507.48l-9.66-5.58c-0.78-0.45-0.68-1.23,0.22-1.75l9.57-5.53c0.9-0.52,2.25-0.57,3.03-0.13
				l9.66,5.58c0.78,0.45,0.68,1.23-0.22,1.75l-9.57,5.52C1465.4,507.87,1464.05,507.93,1463.27,507.48z"/>
			<path class="st20" d="M1478.19,516.09l-9.66-5.58c-0.78-0.45-0.68-1.23,0.22-1.75l9.57-5.52c0.9-0.52,2.25-0.57,3.03-0.13
				l9.66,5.58c0.78,0.45,0.68,1.23-0.22,1.75l-9.57,5.53C1480.32,516.48,1478.96,516.54,1478.19,516.09z"/>
			<path class="st20" d="M1493.1,524.7l-9.66-5.58c-0.78-0.45-0.68-1.23,0.22-1.75l9.57-5.53c0.9-0.52,2.25-0.57,3.03-0.13
				l9.66,5.58c0.78,0.45,0.68,1.23-0.22,1.75l-9.57,5.53C1495.23,525.09,1493.88,525.15,1493.1,524.7z"/>
			<path class="st20" d="M1380.84,443.12l-9.66-5.58c-0.78-0.45-0.68-1.23,0.22-1.75l9.57-5.53c0.9-0.52,2.25-0.57,3.03-0.13
				l9.66,5.58c0.78,0.45,0.68,1.23-0.22,1.75l-9.57,5.52C1382.97,443.51,1381.62,443.57,1380.84,443.12z"/>
			<path class="st20" d="M1365.7,434.38l-9.66-5.58c-0.78-0.45-0.68-1.23,0.22-1.75l9.57-5.53c0.9-0.52,2.25-0.57,3.03-0.13
				l9.66,5.58c0.78,0.45,0.68,1.23-0.22,1.75l-9.57,5.52C1367.83,434.77,1366.48,434.83,1365.7,434.38z"/>
			<path class="st20" d="M1350.54,425.63l-20.8-12.01c-0.78-0.45-0.68-1.23,0.22-1.75l9.57-5.53c0.9-0.52,2.25-0.57,3.03-0.13
				l20.8,12.01c0.78,0.45,0.68,1.23-0.22,1.75l-9.57,5.52C1352.67,426.02,1351.32,426.08,1350.54,425.63z"/>
			<path class="st20" d="M1361.14,414.98l-16.88-9.75c-0.78-0.45-0.68-1.23,0.22-1.75l9.57-5.52c0.9-0.52,2.25-0.57,3.03-0.13
				l16.88,9.75c0.78,0.45,0.68,1.23-0.22,1.75l-9.57,5.53C1363.27,415.37,1361.91,415.43,1361.14,414.98z"/>
			<path class="st20" d="M1395.76,451.73l-9.66-5.58c-0.78-0.45-0.68-1.23,0.22-1.75l9.57-5.52c0.9-0.52,2.25-0.57,3.03-0.13
				l9.66,5.58c0.78,0.45,0.68,1.23-0.22,1.75l-9.57,5.53C1397.89,452.12,1396.53,452.18,1395.76,451.73z"/>
			<path class="st20" d="M1410.67,460.34l-9.66-5.58c-0.78-0.45-0.68-1.23,0.22-1.75l9.57-5.53c0.9-0.52,2.25-0.57,3.03-0.13
				l9.66,5.58c0.78,0.45,0.68,1.23-0.22,1.75l-9.57,5.52C1412.8,460.74,1411.45,460.79,1410.67,460.34z"/>
			<path class="st20" d="M1425.59,468.96l-9.66-5.58c-0.78-0.45-0.68-1.23,0.22-1.75l9.57-5.52c0.9-0.52,2.25-0.57,3.03-0.13
				l9.66,5.58c0.78,0.45,0.68,1.23-0.22,1.75l-9.57,5.53C1427.72,469.35,1426.36,469.4,1425.59,468.96z"/>
			<path class="st20" d="M1440.5,477.57l-9.66-5.58c-0.78-0.45-0.68-1.23,0.22-1.75l9.57-5.53c0.9-0.52,2.25-0.57,3.03-0.13
				l9.66,5.58c0.78,0.45,0.68,1.23-0.22,1.75l-9.57,5.53C1442.63,477.96,1441.28,478.02,1440.5,477.57z"/>
			<path class="st20" d="M1455.42,486.18l-9.66-5.58c-0.78-0.45-0.68-1.23,0.22-1.75l9.57-5.52c0.9-0.52,2.25-0.57,3.03-0.13
				l9.66,5.58c0.78,0.45,0.68,1.23-0.22,1.75l-9.57,5.52C1457.55,486.57,1456.19,486.63,1455.42,486.18z"/>
			<path class="st20" d="M1470.33,494.79l-9.66-5.58c-0.78-0.45-0.68-1.23,0.22-1.75l9.57-5.53c0.9-0.52,2.25-0.57,3.03-0.13
				l9.66,5.58c0.78,0.45,0.68,1.23-0.22,1.75l-9.57,5.53C1472.46,495.18,1471.11,495.24,1470.33,494.79z"/>
			<path class="st20" d="M1485.25,503.4l-9.66-5.58c-0.78-0.45-0.68-1.23,0.22-1.75l9.57-5.53c0.9-0.52,2.25-0.57,3.03-0.13
				l9.66,5.58c0.78,0.45,0.68,1.23-0.22,1.75l-9.57,5.52C1487.38,503.79,1486.02,503.85,1485.25,503.4z"/>
			<path class="st20" d="M1500.16,512.01l-9.66-5.58c-0.78-0.45-0.68-1.23,0.22-1.75l9.57-5.52c0.9-0.52,2.25-0.57,3.03-0.13
				l9.66,5.58c0.78,0.45,0.68,1.23-0.22,1.75l-9.57,5.53C1502.29,512.4,1500.94,512.46,1500.16,512.01z"/>
			<path class="st20" d="M1515.08,520.62l-9.66-5.58c-0.78-0.45-0.68-1.23,0.22-1.75l9.57-5.53c0.9-0.52,2.25-0.57,3.03-0.13
				l9.66,5.58c0.78,0.45,0.68,1.23-0.22,1.75l-9.57,5.52C1517.21,521.02,1515.85,521.07,1515.08,520.62z"/>
			<path class="st20" d="M1541.59,535.93l-21.07-12.17c-0.78-0.45-0.68-1.23,0.22-1.75l9.57-5.53c0.9-0.52,2.25-0.57,3.03-0.13
				l21.07,12.17c0.78,0.45,0.68,1.23-0.22,1.75l-9.57,5.53C1543.72,536.32,1542.37,536.38,1541.59,535.93z"/>
			<path class="st20" d="M1570.63,519.17l-17.79-10.27c-0.78-0.45-0.68-1.23,0.22-1.75l9.57-5.52c0.9-0.52,2.25-0.57,3.03-0.13
				l17.79,10.27c0.78,0.45,0.68,1.23-0.22,1.75l-9.57,5.53C1572.76,519.56,1571.41,519.62,1570.63,519.17z"/>
			<path class="st20" d="M1421.88,450.05l-9.66-5.58c-0.78-0.45-0.68-1.23,0.22-1.75l9.57-5.53c0.9-0.52,2.25-0.57,3.03-0.13
				l9.66,5.58c0.78,0.45,0.68,1.23-0.22,1.75l-9.57,5.52C1424.01,450.44,1422.65,450.5,1421.88,450.05z"/>
			<path class="st20" d="M1406.59,441.22l-9.66-5.58c-0.78-0.45-0.68-1.23,0.22-1.75l9.57-5.53c0.9-0.52,2.25-0.57,3.03-0.13
				l9.66,5.58c0.78,0.45,0.68,1.23-0.22,1.75l-9.57,5.53C1408.72,441.61,1407.36,441.67,1406.59,441.22z"/>
			<path class="st20" d="M1391.3,432.4l-9.66-5.58c-0.78-0.45-0.68-1.23,0.22-1.75l9.57-5.52c0.9-0.52,2.25-0.57,3.03-0.13
				l9.66,5.58c0.78,0.45,0.68,1.23-0.22,1.75l-9.57,5.53C1393.43,432.79,1392.08,432.85,1391.3,432.4z"/>
			<path class="st20" d="M1376.02,423.57l-9.66-5.58c-0.78-0.45-0.68-1.23,0.22-1.75l9.57-5.53c0.9-0.52,2.25-0.57,3.03-0.13
				l9.66,5.58c0.78,0.45,0.68,1.23-0.22,1.75l-9.57,5.52C1378.15,423.96,1376.79,424.02,1376.02,423.57z"/>
			<path class="st20" d="M1436.79,458.66l-9.66-5.58c-0.78-0.45-0.68-1.23,0.22-1.75l9.57-5.52c0.9-0.52,2.25-0.57,3.03-0.13
				l9.66,5.58c0.78,0.45,0.68,1.23-0.22,1.75l-9.57,5.53C1438.92,459.05,1437.57,459.11,1436.79,458.66z"/>
			<path class="st20" d="M1451.71,467.27l-9.66-5.58c-0.78-0.45-0.68-1.23,0.22-1.75l9.57-5.53c0.9-0.52,2.25-0.57,3.03-0.13
				l9.66,5.58c0.78,0.45,0.68,1.23-0.22,1.75l-9.57,5.52C1453.84,467.66,1452.48,467.72,1451.71,467.27z"/>
			<path class="st20" d="M1466.62,475.88l-9.66-5.58c-0.78-0.45-0.68-1.23,0.22-1.75l9.57-5.52c0.9-0.52,2.25-0.57,3.03-0.13
				l9.66,5.58c0.78,0.45,0.68,1.23-0.22,1.75l-9.57,5.53C1468.75,476.27,1467.4,476.33,1466.62,475.88z"/>
			<path class="st20" d="M1481.54,484.49l-9.66-5.58c-0.78-0.45-0.68-1.23,0.22-1.75l9.57-5.53c0.9-0.52,2.25-0.57,3.03-0.13
				l9.66,5.58c0.78,0.45,0.68,1.23-0.22,1.75l-9.57,5.52C1483.67,484.89,1482.31,484.94,1481.54,484.49z"/>
			<path class="st20" d="M1496.45,493.11l-9.66-5.58c-0.78-0.45-0.68-1.23,0.22-1.75l9.57-5.52c0.9-0.52,2.25-0.57,3.03-0.13
				l9.66,5.58c0.78,0.45,0.68,1.23-0.22,1.75l-9.57,5.53C1498.58,493.5,1497.23,493.55,1496.45,493.11z"/>
			<path class="st20" d="M1511.37,501.72l-9.66-5.58c-0.78-0.45-0.68-1.23,0.22-1.75l9.57-5.53c0.9-0.52,2.25-0.57,3.03-0.13
				l9.66,5.58c0.78,0.45,0.68,1.23-0.22,1.75l-9.57,5.53C1513.5,502.11,1512.14,502.16,1511.37,501.72z"/>
			<path class="st20" d="M1526.28,510.33l-9.66-5.58c-0.78-0.45-0.68-1.23,0.22-1.75l9.57-5.52c0.9-0.52,2.25-0.57,3.03-0.13
				l9.66,5.58c0.78,0.45,0.68,1.23-0.22,1.75l-9.57,5.52C1528.41,510.72,1527.06,510.78,1526.28,510.33z"/>
			<path class="st20" d="M1541.2,518.94l-9.66-5.58c-0.78-0.45-0.68-1.23,0.22-1.75l9.57-5.53c0.9-0.52,2.25-0.57,3.03-0.13
				l9.66,5.58c0.78,0.45,0.68,1.23-0.22,1.75l-9.57,5.53C1543.33,519.33,1541.97,519.39,1541.2,518.94z"/>
			<path class="st20" d="M1556.11,527.55l-9.66-5.58c-0.78-0.45-0.68-1.23,0.22-1.75l9.57-5.52c0.9-0.52,2.25-0.57,3.03-0.13
				l9.66,5.58c0.78,0.45,0.68,1.23-0.22,1.75l-9.57,5.52C1558.24,527.94,1556.89,528,1556.11,527.55z"/>
			<path class="st20" d="M1414.02,428.75l-9.66-5.58c-0.78-0.45-0.68-1.23,0.22-1.75l9.57-5.52c0.9-0.52,2.25-0.57,3.03-0.13
				l9.66,5.58c0.78,0.45,0.68,1.23-0.22,1.75l-9.57,5.53C1416.15,429.14,1414.8,429.2,1414.02,428.75z"/>
			<path class="st20" d="M1399.18,420.18l-9.66-5.58c-0.78-0.45-0.68-1.23,0.22-1.75l9.57-5.52c0.9-0.52,2.25-0.57,3.03-0.13
				l9.66,5.58c0.78,0.45,0.68,1.23-0.22,1.75l-9.57,5.52C1401.31,420.57,1399.96,420.63,1399.18,420.18z"/>
			<path class="st20" d="M1384.34,411.61l-9.66-5.58c-0.78-0.45-0.68-1.23,0.22-1.75l9.57-5.53c0.9-0.52,2.25-0.57,3.03-0.13
				l9.66,5.58c0.78,0.45,0.68,1.23-0.22,1.75l-9.57,5.52C1386.47,412,1385.12,412.06,1384.34,411.61z"/>
			<path class="st20" d="M1369.5,403.04l-9.66-5.58c-0.78-0.45-0.68-1.23,0.22-1.75l9.57-5.53c0.9-0.52,2.25-0.57,3.03-0.13
				l9.66,5.58c0.78,0.45,0.68,1.23-0.22,1.75l-9.57,5.53C1371.63,403.43,1370.27,403.49,1369.5,403.04z"/>
			<path class="st20" d="M1384.76,394.23l-9.66-5.58c-0.78-0.45-0.68-1.23,0.22-1.75l3.16-1.83c0.9-0.52,2.25-0.57,3.03-0.13
				l9.66,5.58c0.78,0.45,0.68,1.23-0.22,1.75l-3.16,1.83C1386.89,394.62,1385.54,394.68,1384.76,394.23z"/>
			<path class="st20" d="M1404.13,405.41l-9.66-5.58c-0.78-0.45-0.68-1.23,0.22-1.75l3.16-1.83c0.9-0.52,2.25-0.57,3.03-0.13
				l9.66,5.58c0.78,0.45,0.68,1.23-0.22,1.75l-3.16,1.83C1406.26,405.81,1404.9,405.86,1404.13,405.41z"/>
			<path class="st20" d="M1418.91,413.95l-9.66-5.58c-0.78-0.45-0.68-1.23,0.22-1.75l3.16-1.83c0.9-0.52,2.25-0.57,3.03-0.13
				l9.66,5.58c0.78,0.45,0.68,1.23-0.22,1.75l-3.16,1.83C1421.04,414.34,1419.68,414.39,1418.91,413.95z"/>
			<path class="st20" d="M1433.69,422.48l-9.66-5.58c-0.78-0.45-0.68-1.23,0.22-1.75l3.16-1.83c0.9-0.52,2.25-0.57,3.03-0.13
				l9.66,5.58c0.78,0.45,0.68,1.23-0.22,1.75l-3.16,1.83C1435.82,422.87,1434.46,422.93,1433.69,422.48z"/>
			<path class="st20" d="M1448.47,431.01l-9.66-5.58c-0.78-0.45-0.68-1.23,0.22-1.75l3.16-1.83c0.9-0.52,2.25-0.57,3.03-0.13
				l9.66,5.58c0.78,0.45,0.68,1.23-0.22,1.75l-3.16,1.83C1450.6,431.4,1449.24,431.46,1448.47,431.01z"/>
			<path class="st20" d="M1530.98,478.65l-9.66-5.58c-0.78-0.45-0.68-1.23,0.22-1.75l3.16-1.83c0.9-0.52,2.25-0.57,3.03-0.13
				l9.66,5.58c0.78,0.45,0.68,1.23-0.22,1.75l-3.16,1.83C1533.11,479.04,1531.75,479.1,1530.98,478.65z"/>
			<path class="st20" d="M1545.75,487.18l-9.66-5.58c-0.78-0.45-0.68-1.23,0.22-1.75l3.16-1.83c0.9-0.52,2.25-0.57,3.03-0.13
				l9.66,5.58c0.78,0.45,0.68,1.23-0.22,1.75l-3.16,1.83C1547.88,487.57,1546.53,487.63,1545.75,487.18z"/>
			<path class="st20" d="M1560.53,495.72l-9.66-5.58c-0.78-0.45-0.68-1.23,0.22-1.75l3.16-1.83c0.9-0.52,2.25-0.57,3.03-0.13
				l9.66,5.58c0.78,0.45,0.68,1.23-0.22,1.75l-3.16,1.83C1562.66,496.11,1561.31,496.16,1560.53,495.72z"/>
			<path class="st20" d="M1575.31,504.25l-9.66-5.58c-0.78-0.45-0.68-1.23,0.22-1.75l3.16-1.83c0.9-0.52,2.25-0.57,3.03-0.13
				l9.66,5.58c0.78,0.45,0.68,1.23-0.22,1.75l-3.16,1.83C1577.44,504.64,1576.09,504.7,1575.31,504.25z"/>
			<path class="st20" d="M1428.94,437.36l-9.66-5.58c-0.78-0.45-0.68-1.23,0.22-1.75l9.57-5.53c0.9-0.52,2.25-0.57,3.03-0.13
				l9.66,5.58c0.78,0.45,0.68,1.23-0.22,1.75l-9.57,5.52C1431.07,437.75,1429.71,437.81,1428.94,437.36z"/>
			<path class="st20" d="M1443.85,445.97l-9.66-5.58c-0.78-0.45-0.68-1.23,0.22-1.75l9.57-5.52c0.9-0.52,2.25-0.57,3.03-0.13
				l9.66,5.58c0.78,0.45,0.68,1.23-0.22,1.75l-9.57,5.53C1445.98,446.36,1444.63,446.42,1443.85,445.97z"/>
			<path class="st20" d="M1458.77,454.58l-9.66-5.58c-0.78-0.45-0.68-1.23,0.22-1.75l9.57-5.53c0.9-0.52,2.25-0.57,3.03-0.13
				l9.66,5.58c0.78,0.45,0.68,1.23-0.22,1.75l-9.57,5.53C1460.9,454.97,1459.54,455.03,1458.77,454.58z"/>
			<path class="st20" d="M1473.68,463.19l-9.66-5.58c-0.78-0.45-0.68-1.23,0.22-1.75l9.57-5.52c0.9-0.52,2.25-0.57,3.03-0.13
				l9.66,5.58c0.78,0.45,0.68,1.23-0.22,1.75l-9.57,5.52C1475.81,463.59,1474.46,463.64,1473.68,463.19z"/>
			<path class="st20" d="M1488.6,471.81l-9.66-5.58c-0.78-0.45-0.68-1.23,0.22-1.75l9.57-5.53c0.9-0.52,2.25-0.57,3.03-0.13
				l9.66,5.58c0.78,0.45,0.68,1.23-0.22,1.75l-9.57,5.53C1490.73,472.2,1489.37,472.25,1488.6,471.81z"/>
			<path class="st20" d="M1503.51,480.42l-9.66-5.58c-0.78-0.45-0.68-1.23,0.22-1.75l9.57-5.52c0.9-0.52,2.25-0.57,3.03-0.13
				l9.66,5.58c0.78,0.45,0.68,1.23-0.22,1.75l-9.57,5.52C1505.64,480.81,1504.29,480.86,1503.51,480.42z"/>
			<path class="st20" d="M1518.43,489.03l-9.66-5.58c-0.78-0.45-0.68-1.23,0.22-1.75l9.57-5.53c0.9-0.52,2.25-0.57,3.03-0.13
				l9.66,5.58c0.78,0.45,0.68,1.23-0.22,1.75l-9.57,5.53C1520.56,489.42,1519.2,489.48,1518.43,489.03z"/>
			<path class="st20" d="M1533.34,497.64l-9.66-5.58c-0.78-0.45-0.68-1.23,0.22-1.75l9.57-5.53c0.9-0.52,2.25-0.57,3.03-0.13
				l9.66,5.58c0.78,0.45,0.68,1.23-0.22,1.75l-9.57,5.52C1535.47,498.03,1534.12,498.09,1533.34,497.64z"/>
			<path class="st20" d="M1548.26,506.25l-9.66-5.58c-0.78-0.45-0.68-1.23,0.22-1.75l9.57-5.52c0.9-0.52,2.25-0.57,3.03-0.13
				l9.66,5.58c0.78,0.45,0.68,1.23-0.22,1.75l-9.57,5.53C1550.39,506.64,1549.03,506.7,1548.26,506.25z"/>
			<path class="st20" d="M1343.66,438.42L1315.22,422c-0.78-0.45-0.68-1.23,0.22-1.75l9.57-5.52c0.9-0.52,2.25-0.57,3.03-0.13
				l28.44,16.42c0.78,0.45,0.68,1.23-0.22,1.75l-9.57,5.53C1345.79,438.81,1344.44,438.87,1343.66,438.42z"/>
			<path class="st20" d="M1526.9,544.22l-28.44-16.42c-0.78-0.45-0.68-1.23,0.22-1.75l9.57-5.52c0.9-0.52,2.25-0.57,3.03-0.13
				l28.44,16.42c0.78,0.45,0.68,1.23-0.22,1.75l-9.57,5.53C1529.03,544.61,1527.68,544.66,1526.9,544.22z"/>
			<path class="st20" d="M1467.25,528.8l-9.66-5.58c-0.78-0.45-0.68-1.23,0.22-1.75l11.4-6.58c0.9-0.52,2.25-0.57,3.03-0.13
				l9.66,5.58c0.78,0.45,0.68,1.23-0.22,1.75l-11.4,6.58C1469.38,529.19,1468.03,529.25,1467.25,528.8z"/>
			<path class="st20" d="M1358.94,466.26l-15.45-8.92c-0.78-0.45-0.68-1.23,0.22-1.75l11.4-6.58c0.9-0.52,2.25-0.57,3.03-0.13
				l15.45,8.92c0.78,0.45,0.68,1.23-0.22,1.75l-11.4,6.58C1361.07,466.66,1359.71,466.71,1358.94,466.26z"/>
			<path class="st20" d="M1452.88,520.5l-15.45-8.92c-0.78-0.45-0.68-1.23,0.22-1.75l11.4-6.58c0.9-0.52,2.25-0.57,3.03-0.13
				l15.45,8.92c0.78,0.45,0.68,1.23-0.22,1.75l-11.4,6.58C1455.01,520.89,1453.66,520.95,1452.88,520.5z"/>
			<path class="st20" d="M1380.46,478.69l-15.45-8.92c-0.78-0.45-0.68-1.23,0.22-1.75l11.4-6.58c0.9-0.52,2.25-0.57,3.03-0.13
				l15.45,8.92c0.78,0.45,0.68,1.23-0.22,1.75l-11.4,6.58C1382.59,479.08,1381.23,479.14,1380.46,478.69z"/>
			<path class="st20" d="M1379.76,461.38l67.16,38.77c0.83,0.48,0.83,1.26,0,1.74l-11.63,6.71c-0.83,0.48-2.18,0.48-3.02,0
				l-67.16-38.77L1379.76,461.38z"/>
			<path class="st20" d="M1508.94,544.41l10.76,6.21c0.64,0.37,0.56,1.01-0.18,1.43l-4.66,2.69c-0.73,0.42-1.84,0.47-2.48,0.1
				l-10.76-6.21c-0.64-0.37-0.56-1.01,0.18-1.43l4.66-2.69C1507.19,544.09,1508.3,544.05,1508.94,544.41z"/>
			<path class="st20" d="M1493.9,535.73l10.76,6.21c0.64,0.37,0.56,1.01-0.18,1.43l-4.66,2.69c-0.73,0.42-1.84,0.47-2.48,0.1
				l-10.76-6.21c-0.64-0.37-0.56-1.01,0.18-1.43l4.66-2.69C1492.15,535.41,1493.26,535.36,1493.9,535.73z"/>
			<path class="st20" d="M1478.98,527.12l10.76,6.21c0.64,0.37,0.56,1.01-0.18,1.43l-4.66,2.69c-0.73,0.42-1.84,0.47-2.48,0.1
				l-10.76-6.21c-0.64-0.37-0.56-1.01,0.18-1.43l4.66-2.69C1477.24,526.8,1478.35,526.75,1478.98,527.12z"/>
			<path class="st20" d="M1502.14,530.97l10.76,6.21c0.64,0.37,0.56,1.01-0.18,1.43l-4.66,2.69c-0.73,0.42-1.84,0.47-2.48,0.1
				l-10.76-6.21c-0.64-0.37-0.56-1.01,0.18-1.43l4.66-2.69C1500.39,530.65,1501.5,530.61,1502.14,530.97z"/>
		</g>
	</g>
	<g>
		<path class="st14" d="M1654.3,298.91c-0.73,0-1.51-0.22-2.25-0.65c-2.28-1.32-3.7-4.3-3.15-6.65c0.26-1.13,0.93-1.99,1.89-2.4
			c1.06-0.46,2.36-0.32,3.58,0.38c2.28,1.32,3.7,4.3,3.15,6.65l0,0c-0.26,1.13-0.93,1.99-1.89,2.4
			C1655.22,298.82,1654.77,298.91,1654.3,298.91z M1652.12,289.97c-0.32,0-0.64,0.06-0.92,0.18c-0.65,0.28-1.11,0.88-1.3,1.69
			c-0.45,1.94,0.75,4.42,2.66,5.53c0.93,0.53,1.89,0.65,2.65,0.33c0.65-0.28,1.11-0.88,1.3-1.69c0.45-1.94-0.75-4.42-2.66-5.52
			C1653.27,290.15,1652.67,289.97,1652.12,289.97z"/>
		<path class="st14" d="M1666.6,306.01c-0.73,0-1.51-0.22-2.25-0.65c-2.28-1.32-3.7-4.3-3.15-6.65c0.26-1.13,0.93-1.99,1.89-2.4
			c1.06-0.46,2.36-0.32,3.58,0.38c2.28,1.32,3.7,4.3,3.15,6.65l0,0c-0.26,1.13-0.93,1.99-1.89,2.4
			C1667.51,305.92,1667.06,306.01,1666.6,306.01z M1664.42,297.07c-0.32,0-0.64,0.06-0.92,0.18c-0.65,0.28-1.11,0.88-1.3,1.69
			c-0.45,1.94,0.75,4.42,2.66,5.53c0.92,0.53,1.89,0.66,2.65,0.32c0.65-0.28,1.11-0.88,1.3-1.69c0.45-1.94-0.75-4.42-2.66-5.53
			C1665.56,297.25,1664.97,297.07,1664.42,297.07z"/>
		<path class="st14" d="M1681.61,310.32c-0.5,2.15-2.6,2.91-4.71,1.69c-2.1-1.21-3.4-3.94-2.91-6.09c0.5-2.15,2.6-2.91,4.71-1.69
			C1680.81,305.45,1682.11,308.17,1681.61,310.32z"/>
	</g>
	<polygon class="st14" points="1445.81,174.62 1439.23,170.83 1439.74,167.79 1446.32,171.58 	"/>
	<polygon class="st14" points="1455.37,180.14 1448.79,176.35 1449.3,173.31 1455.88,177.1 	"/>
	<polygon class="st14" points="1436.35,169.16 1421.92,160.83 1422.43,157.79 1436.86,166.12 	"/>
</g>
<g>
	<g>
		<path class="st14" d="M1653.84,438.61l-22.66-12.69c-5.07-2.84-9.52-9.09-11.09-15.55l-19.63-81.09
			c-2.33-9.62-10.07-16.55-15.56-16.77c-0.09,0-0.18,0-0.27,0c-2.63,0-4.51,1.51-5.44,4.37l-5.91,18.17
			c-0.68,2.08-1.95,3.53-3.69,4.2c-2.1,0.81-4.74,0.39-7.45-1.18l-4.09-2.36c-4.73-2.73-9.03-8.63-10.72-14.69
			c-2.59-9.31-9.8-15.55-14.99-15.99c-0.2-0.02-0.41-0.03-0.61-0.03c-2.29,0-4.05,1.17-5.1,3.4l-6.49,13.75
			c-0.79,1.67-2.04,2.81-3.63,3.31c-2.04,0.64-4.56,0.18-7.11-1.3l-4.68-2.7c-5.12-2.96-9.55-9.32-11-15.82l-19.61-87.59
			c-2.16-9.64-9.87-16.76-15.45-17.13c-2.78-0.18-4.77,1.23-5.81,4.06l-31.85,87.04c-0.71,1.95-1.99,3.31-3.68,3.92
			c-2.08,0.76-4.69,0.32-7.36-1.21l-16.11-9.3l0.2-0.35l16.11,9.3c2.56,1.47,5.05,1.89,7.02,1.18c1.57-0.57,2.76-1.85,3.43-3.68
			l31.85-87.04c1.03-2.82,3.06-4.34,5.74-4.34c0.16,0,0.32,0.01,0.48,0.02c5.72,0.37,13.62,7.63,15.82,17.44l19.61,87.59
			c1.41,6.3,5.85,12.7,10.81,15.56l4.68,2.7c2.45,1.42,4.86,1.86,6.79,1.26c1.48-0.46,2.65-1.53,3.39-3.1l6.49-13.75
			c1.21-2.56,3.4-3.84,6.11-3.61c5.33,0.45,12.71,6.81,15.35,16.28c1.66,5.96,5.89,11.77,10.53,14.45l4.09,2.36
			c2.6,1.5,5.12,1.91,7.11,1.15c1.62-0.62,2.81-1.99,3.45-3.95l5.91-18.17c1.01-3.11,3.18-4.77,6.12-4.65
			c5.76,0.22,13.53,7.13,15.94,17.07l19.63,81.09c1.54,6.36,5.92,12.51,10.89,15.29l22.66,12.69L1653.84,438.61z"/>
		<path class="st14" d="M1636.65,448.49l-22.66-12.69c-5.07-2.84-9.52-9.09-11.09-15.55l-19.63-81.09
			c-2.33-9.62-10.07-16.55-15.56-16.77c-2.79-0.09-4.75,1.41-5.72,4.37l-5.91,18.17c-0.68,2.08-1.95,3.53-3.69,4.2
			c-2.1,0.81-4.74,0.39-7.45-1.17l-4.09-2.36c-4.72-2.73-9.03-8.63-10.72-14.69c-2.59-9.31-9.8-15.55-14.99-15.99
			c-2.61-0.23-4.56,0.95-5.71,3.37l-6.49,13.75c-0.79,1.67-2.05,2.81-3.63,3.31c-2.03,0.64-4.56,0.18-7.11-1.3l-4.68-2.7
			c-5.12-2.96-9.54-9.32-11-15.82l-19.61-87.59c-2.16-9.64-9.87-16.76-15.45-17.13c-2.77-0.17-4.77,1.23-5.81,4.06l-31.85,87.04
			c-0.71,1.95-1.99,3.31-3.68,3.92c-2.08,0.75-4.69,0.32-7.35-1.21l-16.11-9.3l0.2-0.35l16.11,9.3c2.56,1.47,5.04,1.89,7.01,1.18
			c1.57-0.57,2.76-1.84,3.44-3.68l31.85-87.04c1.09-2.98,3.29-4.52,6.22-4.33c5.72,0.37,13.62,7.63,15.82,17.44l19.61,87.59
			c1.41,6.3,5.86,12.7,10.81,15.56l4.68,2.7c2.45,1.42,4.86,1.86,6.79,1.26c1.48-0.46,2.65-1.53,3.39-3.1l6.49-13.75
			c1.21-2.56,3.35-3.83,6.11-3.61c5.33,0.45,12.71,6.81,15.35,16.28c1.66,5.96,5.89,11.77,10.53,14.45l4.09,2.36
			c2.6,1.5,5.12,1.91,7.11,1.15c1.62-0.62,2.81-1.99,3.45-3.95l5.91-18.17c0.98-3.01,3.05-4.65,5.84-4.65c0.09,0,0.19,0,0.28,0
			c5.76,0.22,13.53,7.14,15.93,17.07l19.63,81.09c1.54,6.36,5.92,12.51,10.9,15.29l22.66,12.69L1636.65,448.49z"/>
		
			<rect x="1436.75" y="205.87" transform="matrix(0.8673 -0.4977 0.4977 0.8673 89.2128 747.4671)" class="st14" width="20" height="1.04"/>
		
			<rect x="1509.87" y="310.15" transform="matrix(0.8667 -0.4988 0.4988 0.8667 47.6062 799.5095)" class="st14" width="20.25" height="1.03"/>
		
			<rect x="1562.71" y="317.47" transform="matrix(0.8674 -0.4976 0.4976 0.8674 50.3864 825.0563)" class="st14" width="21.08" height="1.04"/>
		<path class="st14" d="M1653.69,438.88l-22.66-12.69c-5.14-2.88-9.66-9.21-11.24-15.75l-19.63-81.09
			c-2.29-9.48-9.89-16.32-15.27-16.52c-2.68-0.12-4.49,1.33-5.41,4.15l-5.91,18.17c-0.71,2.18-2.05,3.7-3.88,4.4
			c-2.19,0.84-4.94,0.41-7.72-1.2l-4.09-2.36c-4.87-2.81-9.13-8.65-10.87-14.88c-2.55-9.18-9.63-15.32-14.72-15.76
			c-2.47-0.21-4.31,0.9-5.4,3.2l-6.49,13.75c-0.83,1.75-2.15,2.95-3.82,3.48c-2.12,0.66-4.73,0.19-7.36-1.32l-4.68-2.7
			c-5.2-3-9.68-9.44-11.15-16.03l-19.61-87.59c-2.13-9.5-9.7-16.52-15.16-16.88c-2.61-0.17-4.51,1.16-5.49,3.86l-31.85,87.04
			c-0.75,2.04-2.08,3.47-3.87,4.11c-2.17,0.79-4.88,0.35-7.62-1.23l-16.11-9.3l0.52-0.9l16.11,9.3c2.48,1.43,4.88,1.84,6.75,1.16
			c1.49-0.54,2.61-1.75,3.25-3.5l31.85-87.04c1.15-3.12,3.46-4.75,6.53-4.53c5.95,0.39,13.84,7.59,16.11,17.69l19.61,87.59
			c1.39,6.22,5.77,12.54,10.66,15.36l4.68,2.7c2.37,1.37,4.69,1.81,6.54,1.23c1.39-0.43,2.5-1.45,3.2-2.93l6.49-13.75
			c1.27-2.69,3.54-4.03,6.42-3.79c5.43,0.46,12.95,6.91,15.62,16.51c1.64,5.89,5.81,11.62,10.38,14.26l4.09,2.36
			c2.52,1.45,4.94,1.85,6.84,1.13c1.53-0.58,2.65-1.88,3.26-3.75l5.91-18.17c1.06-3.26,3.36-4.98,6.43-4.86
			c5.87,0.23,13.79,7.24,16.23,17.32l19.63,81.09c1.5,6.18,5.91,12.39,10.74,15.09l22.66,12.69L1653.69,438.88z"/>
		<path class="st14" d="M1636.49,448.76l-22.66-12.69c-5.14-2.88-9.66-9.21-11.24-15.75l-19.63-81.09
			c-2.29-9.48-9.89-16.32-15.27-16.52c-2.65-0.11-4.49,1.33-5.41,4.15l-5.91,18.17c-0.71,2.18-2.05,3.7-3.87,4.4
			c-2.19,0.84-4.93,0.42-7.72-1.2l-4.09-2.36c-4.86-2.81-9.13-8.65-10.86-14.88c-2.56-9.18-9.63-15.33-14.72-15.76
			c-2.46-0.19-4.31,0.9-5.4,3.2l-6.49,13.75c-0.83,1.75-2.15,2.95-3.82,3.48c-2.12,0.67-4.73,0.19-7.36-1.32l-4.68-2.7
			c-5.19-3-9.68-9.44-11.15-16.03l-19.61-87.59c-2.13-9.5-9.7-16.52-15.16-16.88c-2.6-0.18-4.51,1.16-5.49,3.86l-31.85,87.04
			c-0.75,2.04-2.08,3.47-3.87,4.11c-2.18,0.79-4.88,0.35-7.62-1.23l-16.11-9.3l0.51-0.9l16.11,9.3c2.47,1.43,4.88,1.84,6.75,1.16
			c1.48-0.54,2.61-1.75,3.25-3.5l31.85-87.04c1.15-3.12,3.48-4.73,6.53-4.54c5.95,0.39,13.84,7.59,16.11,17.69l19.61,87.59
			c1.39,6.22,5.78,12.54,10.66,15.36l4.68,2.7c2.38,1.37,4.7,1.8,6.54,1.23c1.39-0.44,2.5-1.45,3.2-2.93l6.49-13.75
			c1.27-2.69,3.55-4.03,6.42-3.79c5.43,0.46,12.95,6.9,15.63,16.51c1.64,5.89,5.81,11.62,10.38,14.26l4.09,2.36
			c2.52,1.45,4.94,1.85,6.84,1.13c1.53-0.58,2.65-1.88,3.26-3.75l5.91-18.17c1.02-3.15,3.2-4.87,6.13-4.87c0.1,0,0.19,0,0.3,0.01
			c5.87,0.23,13.79,7.24,16.23,17.32l19.63,81.09c1.5,6.18,5.91,12.39,10.74,15.09l22.66,12.69L1636.49,448.76z"/>
	</g>
	
		<linearGradient id="SVGID_00000064320682817857203260000009229031207966952087_" gradientUnits="userSpaceOnUse" x1="1436.3881" y1="248.4029" x2="1752.3009" y2="436.8152">
		<stop  offset="0" style="stop-color:#42E8E0"/>
		<stop  offset="0.1055" style="stop-color:#37B6BF"/>
		<stop  offset="0.2197" style="stop-color:#2C87A1"/>
		<stop  offset="0.338" style="stop-color:#235F87"/>
		<stop  offset="0.4587" style="stop-color:#1C3F72"/>
		<stop  offset="0.5824" style="stop-color:#162561"/>
		<stop  offset="0.7105" style="stop-color:#121355"/>
		<stop  offset="0.8458" style="stop-color:#10084E"/>
		<stop  offset="1" style="stop-color:#0F054C"/>
	</linearGradient>
	<path style="opacity:0.5;fill:url(#SVGID_00000064320682817857203260000009229031207966952087_);" d="M1393.94,285.27l16.11,9.3
		c4.84,2.79,9.15,1.75,10.74-2.61l31.85-87.04c3.64-9.94,18.5-0.95,21.65,13.09l19.61,87.59c1.43,6.4,5.87,12.79,10.91,15.69
		l4.68,2.7c4.55,2.63,8.67,1.87,10.46-1.93l6.49-13.75c4.02-8.52,17.43-0.48,21.08,12.64v0c1.69,6.05,5.91,11.85,10.62,14.57
		l4.09,2.36c4.96,2.86,9.35,1.69,10.85-2.91l5.91-18.17c3.34-10.26,18.25-1.72,21.67,12.41l19.63,81.09
		c1.54,6.37,6,12.63,10.99,15.42l22.66,12.69L1393.94,285.27z"/>
	
		<linearGradient id="SVGID_00000059296832589230991130000008739357963654855570_" gradientUnits="userSpaceOnUse" x1="1419.2064" y1="258.0488" x2="1642.4773" y2="391.2796">
		<stop  offset="0" style="stop-color:#42E8E0"/>
		<stop  offset="0.1055" style="stop-color:#37B6BF"/>
		<stop  offset="0.2197" style="stop-color:#2C87A1"/>
		<stop  offset="0.338" style="stop-color:#235F87"/>
		<stop  offset="0.4587" style="stop-color:#1C3F72"/>
		<stop  offset="0.5824" style="stop-color:#162561"/>
		<stop  offset="0.7105" style="stop-color:#121355"/>
		<stop  offset="0.8458" style="stop-color:#10084E"/>
		<stop  offset="1" style="stop-color:#0F054C"/>
	</linearGradient>
	<path style="opacity:0.5;fill:url(#SVGID_00000059296832589230991130000008739357963654855570_);" d="M1376.74,294.91l16.11,9.3
		c4.84,2.79,9.15,1.75,10.74-2.61l31.85-87.04c3.64-9.94,18.5-0.95,21.65,13.09l19.61,87.59c1.43,6.4,5.87,12.79,10.91,15.69
		l4.68,2.7c4.55,2.63,8.67,1.87,10.46-1.93l6.49-13.75c4.02-8.52,17.43-0.48,21.08,12.64l0,0c1.69,6.05,5.91,11.85,10.62,14.57
		l4.09,2.36c4.96,2.86,9.35,1.69,10.85-2.91l5.91-18.17c3.34-10.26,18.25-1.72,21.67,12.41l19.63,81.09
		c1.54,6.37,6,12.63,10.99,15.42l22.66,12.69L1376.74,294.91z"/>
</g>
<path class="st14" d="M1730.05,235.57c-25.8,0-51.58-5.64-71.24-16.95c-19.23-11.05-29.83-25.81-29.86-41.55
	c-0.03-15.74,10.52-30.53,29.71-41.66c39.41-22.85,103.59-22.97,143.08-0.27l0,0c19.23,11.05,29.83,25.81,29.86,41.54
	c0.03,15.74-10.52,30.53-29.71,41.66C1782.11,229.83,1756.07,235.57,1730.05,235.57z M1730.5,119.23c-25.83,0-51.68,5.7-71.32,17.09
	c-18.85,10.93-29.22,25.41-29.19,40.76c0.03,15.35,10.45,29.79,29.34,40.65c39.2,22.54,102.92,22.41,142.04-0.27
	c18.85-10.93,29.22-25.41,29.19-40.76c-0.03-15.35-10.45-29.79-29.34-40.65l0,0C1781.71,124.83,1756.11,119.23,1730.5,119.23z"/>
<g>
	<g>
		
			<linearGradient id="SVGID_00000176019586020165482990000015513940361680778917_" gradientUnits="userSpaceOnUse" x1="2084.7456" y1="141.2056" x2="2104.2102" y2="141.2056" gradientTransform="matrix(-1.900000e-03 -1 -0.9989 0.5792 1749.2611 2083.26)">
			<stop  offset="0" style="stop-color:#5761D7"/>
			<stop  offset="0.1645" style="stop-color:#5E67DA"/>
			<stop  offset="0.4051" style="stop-color:#727AE2"/>
			<stop  offset="0.6924" style="stop-color:#9297EE"/>
			<stop  offset="1" style="stop-color:#BCBEFF"/>
		</linearGradient>
		<path style="fill:url(#SVGID_00000176019586020165482990000015513940361680778917_);" d="M1604.21,60.84
			c4.65-2.7,8.43-0.52,8.44,4.85c0.01,5.38-3.75,11.92-8.4,14.61c-4.65,2.7-8.43,0.52-8.44-4.85
			C1595.8,70.08,1599.56,63.53,1604.21,60.84z"/>
		<path class="st3" d="M1604.72,61.13c-4.65,2.7-8.41,9.24-8.4,14.61c0,2.54,0.86,4.35,2.24,5.29c-1.68-0.81-2.74-2.74-2.74-5.58
			c-0.01-5.38,3.75-11.92,8.4-14.61c2.45-1.42,4.66-1.48,6.2-0.44C1608.91,59.68,1606.92,59.85,1604.72,61.13z"/>
		
			<linearGradient id="SVGID_00000012471634157130694560000009590860169535609746_" gradientUnits="userSpaceOnUse" x1="2107.8943" y1="161.253" x2="2127.3589" y2="161.253" gradientTransform="matrix(-1.900000e-03 -1 -0.9989 0.5792 1749.2611 2083.26)">
			<stop  offset="0" style="stop-color:#5761D7"/>
			<stop  offset="0.1645" style="stop-color:#5E67DA"/>
			<stop  offset="0.4051" style="stop-color:#727AE2"/>
			<stop  offset="0.6924" style="stop-color:#9297EE"/>
			<stop  offset="1" style="stop-color:#BCBEFF"/>
		</linearGradient>
		<path style="fill:url(#SVGID_00000012471634157130694560000009590860169535609746_);" d="M1584.14,49.3
			c4.65-2.7,8.43-0.52,8.44,4.85c0.01,5.38-3.75,11.92-8.4,14.61c-4.65,2.7-8.43,0.52-8.44-4.85
			C1575.73,58.54,1579.49,51.99,1584.14,49.3z"/>
		
			<linearGradient id="SVGID_00000152225752101827072350000012881513226752956303_" gradientUnits="userSpaceOnUse" x1="2131.4492" y1="181.6521" x2="2150.9136" y2="181.6521" gradientTransform="matrix(-1.900000e-03 -1 -0.9989 0.5792 1749.2611 2083.26)">
			<stop  offset="0" style="stop-color:#5761D7"/>
			<stop  offset="0.1645" style="stop-color:#5E67DA"/>
			<stop  offset="0.4051" style="stop-color:#727AE2"/>
			<stop  offset="0.6924" style="stop-color:#9297EE"/>
			<stop  offset="1" style="stop-color:#BCBEFF"/>
		</linearGradient>
		<path style="fill:url(#SVGID_00000152225752101827072350000012881513226752956303_);" d="M1563.72,37.56
			c4.65-2.7,8.43-0.52,8.44,4.85c0.01,5.38-3.75,11.92-8.4,14.61c-4.65,2.7-8.43,0.52-8.44-4.85
			C1555.31,46.8,1559.07,40.26,1563.72,37.56z"/>
		<path class="st6" d="M1598.29,80.9l10.44,6c-1.53-0.88-2.47-2.76-2.48-5.45c-0.01-5.37,3.75-11.92,8.4-14.61
			c2.25-1.31,4.3-1.46,5.81-0.67l44.17,25.39l-11.87,20.66l-130.1-74.79c-5.7-3.28-7.67-10.56-4.39-16.27
			c3.28-5.7,10.56-7.67,16.27-4.39l35.27,20.28c-1.54-0.97-3.7-0.88-6.09,0.51c-4.65,2.7-8.41,9.24-8.4,14.61
			c0,2.68,0.95,4.56,2.47,5.44l0,0l0.01,0.01l0,0l10.44,6c-1.53-0.88-2.47-2.76-2.48-5.45c-0.01-5.37,3.75-11.92,8.4-14.61
			c2.25-1.31,4.3-1.46,5.81-0.67l10.26,5.9c-1.54-0.97-3.7-0.88-6.09,0.51c-4.65,2.7-8.41,9.24-8.4,14.61
			c0,2.68,0.95,4.56,2.47,5.44l0,0l0.01,0.01l0,0l10.44,6c-1.53-0.88-2.47-2.76-2.48-5.45c-0.01-5.37,3.75-11.92,8.4-14.61
			c2.25-1.31,4.3-1.46,5.81-0.67l9.91,5.69c-1.54-0.97-3.69-0.88-6.09,0.51c-4.65,2.7-8.41,9.24-8.4,14.61
			c0.01,2.68,0.95,4.56,2.47,5.44l0,0L1598.29,80.9L1598.29,80.9z"/>
		<path class="st3" d="M1584.65,49.59c-4.65,2.7-8.41,9.24-8.4,14.61c0,2.54,0.86,4.35,2.24,5.29c-1.68-0.81-2.74-2.74-2.74-5.58
			c-0.01-5.38,3.75-11.92,8.4-14.61c2.45-1.42,4.66-1.48,6.2-0.44C1588.84,48.14,1586.85,48.32,1584.65,49.59z"/>
		<path class="st3" d="M1564.23,37.85c-4.65,2.7-8.41,9.24-8.4,14.61c0,2.54,0.86,4.35,2.24,5.29c-1.68-0.81-2.74-2.74-2.74-5.58
			c-0.01-5.38,3.75-11.92,8.4-14.61c2.45-1.42,4.66-1.48,6.2-0.43C1568.42,36.4,1566.42,36.58,1564.23,37.85z"/>
		
			<linearGradient id="SVGID_00000088112473351738434900000015879993918189410235_" gradientUnits="userSpaceOnUse" x1="2966.0112" y1="-75.0557" x2="2989.8398" y2="-75.0557" gradientTransform="matrix(0.4984 -0.867 -0.867 -0.4984 57.196 2616.3076)">
			<stop  offset="0" style="stop-color:#42E8E0"/>
			<stop  offset="0.1507" style="stop-color:#43E3E0"/>
			<stop  offset="0.3285" style="stop-color:#45D5DF"/>
			<stop  offset="0.5199" style="stop-color:#49BDDD"/>
			<stop  offset="0.7209" style="stop-color:#4E9CDB"/>
			<stop  offset="0.9274" style="stop-color:#5472D8"/>
			<stop  offset="1" style="stop-color:#5761D7"/>
		</linearGradient>
		<path style="opacity:0.48;fill:url(#SVGID_00000088112473351738434900000015879993918189410235_);" d="M1614.66,66.83
			c-4.65,2.7-8.41,9.24-8.4,14.61c0,2.69,0.95,4.57,2.48,5.45l-10.44-6l0,0l-0.01-0.01l0,0c-1.52-0.88-2.46-2.76-2.47-5.44
			c-0.01-5.37,3.75-11.92,8.4-14.61c2.4-1.39,4.55-1.48,6.09-0.51l10.16,5.84C1618.95,65.37,1616.91,65.53,1614.66,66.83z"/>
		
			<linearGradient id="SVGID_00000165928306657026990870000000079102420576827027_" gradientUnits="userSpaceOnUse" x1="2966.0115" y1="-51.9076" x2="2989.8401" y2="-51.9076" gradientTransform="matrix(0.4984 -0.867 -0.867 -0.4984 57.196 2616.3076)">
			<stop  offset="0" style="stop-color:#42E8E0"/>
			<stop  offset="0.1507" style="stop-color:#43E3E0"/>
			<stop  offset="0.3285" style="stop-color:#45D5DF"/>
			<stop  offset="0.5199" style="stop-color:#49BDDD"/>
			<stop  offset="0.7209" style="stop-color:#4E9CDB"/>
			<stop  offset="0.9274" style="stop-color:#5472D8"/>
			<stop  offset="1" style="stop-color:#5761D7"/>
		</linearGradient>
		<path style="opacity:0.48;fill:url(#SVGID_00000165928306657026990870000000079102420576827027_);" d="M1594.59,55.3
			c-4.65,2.7-8.41,9.24-8.4,14.61c0.01,2.69,0.95,4.57,2.48,5.45l-10.44-6l0,0l-0.01-0.01l0,0c-1.52-0.88-2.46-2.76-2.47-5.44
			c-0.01-5.37,3.75-11.92,8.4-14.61c2.4-1.39,4.55-1.48,6.09-0.51l10.16,5.84C1598.89,53.83,1596.84,53.99,1594.59,55.3z"/>
		
			<linearGradient id="SVGID_00000039106904542809995840000010815419362956943018_" gradientUnits="userSpaceOnUse" x1="2966.012" y1="-28.3533" x2="2989.8401" y2="-28.3533" gradientTransform="matrix(0.4984 -0.867 -0.867 -0.4984 57.196 2616.3076)">
			<stop  offset="0" style="stop-color:#42E8E0"/>
			<stop  offset="0.1507" style="stop-color:#43E3E0"/>
			<stop  offset="0.3285" style="stop-color:#45D5DF"/>
			<stop  offset="0.5199" style="stop-color:#49BDDD"/>
			<stop  offset="0.7209" style="stop-color:#4E9CDB"/>
			<stop  offset="0.9274" style="stop-color:#5472D8"/>
			<stop  offset="1" style="stop-color:#5761D7"/>
		</linearGradient>
		<path style="opacity:0.48;fill:url(#SVGID_00000039106904542809995840000010815419362956943018_);" d="M1574.17,43.56
			c-4.65,2.7-8.41,9.24-8.4,14.61c0.01,2.69,0.95,4.57,2.48,5.45l-10.44-6l0,0l-0.01-0.01l0,0c-1.52-0.88-2.46-2.76-2.47-5.44
			c-0.01-5.37,3.75-11.92,8.4-14.61c2.4-1.39,4.55-1.48,6.09-0.51l10.16,5.84C1578.46,42.1,1576.42,42.25,1574.17,43.56z"/>
	</g>
	<g>
		
			<linearGradient id="SVGID_00000090985304484083808550000004006941752651008914_" gradientUnits="userSpaceOnUse" x1="2892.3743" y1="-176.8931" x2="3046.366" y2="-266.1652" gradientTransform="matrix(0.4984 -0.867 -0.867 -0.4984 57.196 2616.3076)">
			<stop  offset="0" style="stop-color:#BCBEFF"/>
			<stop  offset="0.3076" style="stop-color:#9297EE"/>
			<stop  offset="0.5949" style="stop-color:#727AE2"/>
			<stop  offset="0.8355" style="stop-color:#5E67DA"/>
			<stop  offset="1" style="stop-color:#5761D7"/>
		</linearGradient>
		<path style="fill:url(#SVGID_00000090985304484083808550000004006941752651008914_);" d="M1653.3,148.46
			c-0.01,0.63-0.01,1.26,0.03,1.88l25.7,21.5l41.61,15.49l29.31-6.57l28.03-8.01l28.57-21.99l0.73-0.59c0.1-1.76,0-3.53-0.26-5.29
			c5.05-6.7,10.1-13.4,15.15-20.1c2.28,2.92,4.17,5.92,5.57,8.99l3.34-2.68l0.02,17.21c0,0.21,0,0.41,0,0.62l0,0.65l-0.03,0.02
			c-0.4,14.57-10.18,29.08-29.41,40.23c-39.32,22.8-103.15,22.92-142.56,0.27c-19.55-11.24-29.41-25.97-29.59-40.75l-0.01,0l0-0.11
			c0-0.17,0-0.34,0-0.51l0.04-18.24l3.58,3c0.85-1.79,1.85-3.56,3-5.31C1640.65,135.8,1645.13,145.22,1653.3,148.46z"/>
		
			<linearGradient id="SVGID_00000042708589062490274880000014372020169481358988_" gradientUnits="userSpaceOnUse" x1="3061.2312" y1="-256.0571" x2="2922.5891" y2="-154.5492" gradientTransform="matrix(0.4984 -0.867 -0.867 -0.4984 57.196 2616.3076)">
			<stop  offset="0" style="stop-color:#5761D7"/>
			<stop  offset="0.1645" style="stop-color:#5E67DA"/>
			<stop  offset="0.4051" style="stop-color:#727AE2"/>
			<stop  offset="0.6924" style="stop-color:#9297EE"/>
			<stop  offset="1" style="stop-color:#BCBEFF"/>
		</linearGradient>
		<path style="fill:url(#SVGID_00000042708589062490274880000014372020169481358988_);" d="M1799.89,106.61
			c0.54,0.3,1.09,0.58,1.62,0.88c8.93,5.14,15.78,11.01,20.67,17.28c-5.05,6.7-10.1,13.4-15.15,20.1
			c-1.49-10.09-8.9-19.94-22.3-27.64c-30.12-17.31-78.89-17.22-108.95,0.2c-14.82,8.59-22.29,19.8-22.47,31.03
			c-8.17-3.24-12.65-12.66-17.17-20.32c3.64-5.53,8.79-10.81,15.46-15.62l-3.47,0.72c0,0,23.69-20.58,24.57-20.78
			c0.88-0.2,48.3-12.76,48.3-12.76l53.39,4.69L1799.89,106.61z"/>
		
			<linearGradient id="SVGID_00000172418510384820631680000005044576922302440872_" gradientUnits="userSpaceOnUse" x1="2928.1909" y1="-213.5238" x2="3037.1328" y2="-213.5238" gradientTransform="matrix(0.4984 -0.867 -0.867 -0.4984 57.196 2616.3076)">
			<stop  offset="0" style="stop-color:#42E8E0"/>
			<stop  offset="0.1507" style="stop-color:#43E3E0"/>
			<stop  offset="0.3285" style="stop-color:#45D5DF"/>
			<stop  offset="0.5199" style="stop-color:#49BDDD"/>
			<stop  offset="0.7209" style="stop-color:#4E9CDB"/>
			<stop  offset="0.9274" style="stop-color:#5472D8"/>
			<stop  offset="1" style="stop-color:#5761D7"/>
		</linearGradient>
		<path style="opacity:0.5;fill:url(#SVGID_00000172418510384820631680000005044576922302440872_);" d="M1783.29,105.21
			c30.12,17.31,30.17,45.47,0.12,62.9c-30.05,17.43-78.83,17.52-108.95,0.2c-30.12-17.31-30.17-45.47-0.12-62.9
			C1704.4,87.99,1753.18,87.89,1783.29,105.21z"/>
		
			<linearGradient id="SVGID_00000125566601675531569800000010131070176038991272_" gradientUnits="userSpaceOnUse" x1="2923.4531" y1="-216.0959" x2="3032.395" y2="-216.0959" gradientTransform="matrix(0.4984 -0.867 -0.867 -0.4984 57.196 2616.3076)">
			<stop  offset="0" style="stop-color:#42E8E0"/>
			<stop  offset="0.1507" style="stop-color:#43E3E0"/>
			<stop  offset="0.3285" style="stop-color:#45D5DF"/>
			<stop  offset="0.5199" style="stop-color:#49BDDD"/>
			<stop  offset="0.7209" style="stop-color:#4E9CDB"/>
			<stop  offset="0.9274" style="stop-color:#5472D8"/>
			<stop  offset="1" style="stop-color:#5761D7"/>
		</linearGradient>
		<path style="opacity:0.48;fill:url(#SVGID_00000125566601675531569800000010131070176038991272_);" d="M1783.16,110.6
			c30.12,17.31,30.17,45.47,0.12,62.9c-30.05,17.43-78.83,17.52-108.95,0.2c-30.12-17.31-30.17-45.47-0.12-62.9
			S1753.05,93.28,1783.16,110.6z"/>
		<path class="st6" d="M1801.48,89.4c-39.41-22.65-103.23-22.54-142.56,0.27c-39.33,22.8-39.26,59.65,0.15,82.31
			c39.41,22.65,103.24,22.54,142.56-0.27C1840.96,148.91,1840.89,112.06,1801.48,89.4z M1784.69,99.14
			c30.12,17.31,30.17,45.47,0.12,62.9c-30.05,17.43-78.83,17.52-108.95,0.2s-30.17-45.47-0.12-62.9S1754.57,81.83,1784.69,99.14z"/>
		<path class="st6" d="M1801.48,89.4c-39.41-22.65-103.23-22.54-142.56,0.27c-39.33,22.8-39.26,59.65,0.15,82.31
			c39.41,22.65,103.24,22.54,142.56-0.27C1840.96,148.91,1840.89,112.06,1801.48,89.4z M1784.69,99.14
			c30.12,17.31,30.17,45.47,0.12,62.9c-30.05,17.43-78.83,17.52-108.95,0.2s-30.17-45.47-0.12-62.9S1754.57,81.83,1784.69,99.14z"/>
		<g>
			<path class="st3" d="M1658.55,170.43c39.41,22.65,103.23,22.54,142.56-0.27c24.21-14.04,33.46-33.39,27.83-51.48
				c6.67,18.53-2.42,38.59-27.31,53.03c-39.33,22.8-103.15,22.92-142.56,0.27c-15.15-8.71-24.46-19.52-27.98-30.82
				C1634.95,151.9,1644.1,162.12,1658.55,170.43z"/>
			<path class="st3" d="M1675.23,97.8c30.05-17.43,78.83-17.52,108.95-0.2c11.67,6.71,18.8,15.04,21.44,23.75
				c-2.99-8.15-9.95-15.9-20.93-22.21c-30.12-17.31-78.89-17.22-108.95,0.2c-18.41,10.67-25.5,25.38-21.33,39.15
				C1649.21,124.28,1656.13,108.87,1675.23,97.8z"/>
		</g>
	</g>
</g>
<rect x="1606.56" y="635.12" transform="matrix(0.4905 -0.8714 0.8714 0.4905 238.2441 1739.9054)" class="st14" width="1.03" height="62.18"/>
<path class="st14" d="M1667.47,775c-2.55,0-5.1-0.65-7.37-1.97l-86.28-49.81c-1.36-0.78-2.17-2.19-2.17-3.75
	c0-1.57,0.81-2.97,2.17-3.75l127.64-73.69c4.54-2.63,10.2-2.63,14.75,0l86.28,49.81c1.36,0.78,2.17,2.19,2.17,3.75
	c0,1.57-0.81,2.97-2.17,3.75l-127.64,73.69C1672.57,774.35,1670.02,775,1667.47,775z M1708.82,641.08c-2.37,0-4.74,0.61-6.86,1.83
	l-127.64,73.69c-1.03,0.6-1.65,1.67-1.65,2.86c0,1.19,0.62,2.26,1.65,2.86l86.28,49.81c4.23,2.44,9.48,2.44,13.72,0l127.64-73.69
	c1.03-0.6,1.65-1.67,1.65-2.86c0-1.19-0.62-2.26-1.65-2.86l-86.28-49.81C1713.56,641.69,1711.19,641.08,1708.82,641.08z"/>
<g>
	<g>
		<polygon class="st14" points="1688.17,691.19 1674.63,683.37 1678,681.43 1691.54,689.25 		"/>
		<polygon class="st43" points="1699.73,697.86 1692.96,693.95 1696.32,692.01 1703.09,695.92 		"/>
		<polygon class="st43" points="1680.28,695.74 1666.74,687.93 1670.11,685.98 1683.65,693.8 		"/>
		<polygon class="st43" points="1691.84,702.41 1685.07,698.51 1688.43,696.56 1695.2,700.47 		"/>
		<polygon class="st14" points="1672.39,700.3 1658.85,692.48 1662.22,690.54 1675.76,698.36 		"/>
		<polygon class="st14" points="1683.95,706.97 1677.18,703.06 1680.54,701.12 1687.31,705.03 		"/>
		<polygon class="st14" points="1664.5,704.85 1650.97,697.04 1654.33,695.09 1667.87,702.91 		"/>
		<polygon class="st14" points="1676.06,711.52 1669.29,707.61 1672.65,705.67 1679.42,709.58 		"/>
		<polygon class="st14" points="1656.62,709.41 1643.08,701.59 1646.44,699.65 1659.98,707.46 		"/>
		<polygon class="st14" points="1668.17,716.08 1661.4,712.17 1664.76,710.23 1671.53,714.14 		"/>
		<polygon class="st14" points="1648.73,713.96 1635.19,706.14 1638.55,704.2 1652.09,712.02 		"/>
		<polygon class="st14" points="1660.28,720.63 1653.51,716.72 1656.88,714.78 1663.65,718.69 		"/>
		<polygon class="st14" points="1640.84,718.52 1627.3,710.7 1630.66,708.76 1644.2,716.57 		"/>
		<polygon class="st43" points="1652.39,725.19 1645.62,721.28 1648.99,719.34 1655.76,723.24 		"/>
		<polygon class="st14" points="1632.95,723.07 1619.41,715.25 1622.77,713.31 1636.31,721.13 		"/>
		<polygon class="st43" points="1644.5,729.74 1637.73,725.83 1641.1,723.89 1647.87,727.8 		"/>
	</g>
	<g>
		<polygon class="st14" points="1718.24,708.72 1704.7,700.9 1708.07,698.96 1721.61,706.78 		"/>
		<polygon class="st14" points="1729.8,715.39 1723.03,711.48 1726.39,709.54 1733.16,713.45 		"/>
		<polygon class="st14" points="1710.35,713.28 1696.82,705.46 1700.18,703.52 1713.72,711.33 		"/>
		<polygon class="st14" points="1721.91,719.95 1715.14,716.04 1718.5,714.1 1725.27,718 		"/>
		<polygon class="st14" points="1702.47,717.83 1688.93,710.01 1692.29,708.07 1705.83,715.89 		"/>
		<polygon class="st14" points="1714.02,724.5 1707.25,720.59 1710.61,718.65 1717.38,722.56 		"/>
		<polygon class="st14" points="1711.71,677.6 1698.17,669.78 1701.53,667.84 1715.07,675.66 		"/>
		<polygon class="st14" points="1723.26,684.27 1716.49,680.36 1719.85,678.42 1726.62,682.33 		"/>
		<polygon class="st14" points="1703.82,682.16 1690.28,674.34 1693.64,672.4 1707.18,680.21 		"/>
		<polygon class="st14" points="1715.37,688.83 1708.6,684.92 1711.97,682.98 1718.74,686.88 		"/>
		<polygon class="st14" points="1695.93,686.71 1682.39,678.89 1685.75,676.95 1699.29,684.77 		"/>
		<polygon class="st14" points="1707.48,693.38 1700.71,689.47 1704.08,687.53 1710.85,691.44 		"/>
		<polygon class="st14" points="1741.78,695.13 1728.24,687.32 1731.6,685.37 1745.14,693.19 		"/>
		<polygon class="st14" points="1753.33,701.8 1746.56,697.9 1749.93,695.95 1756.7,699.86 		"/>
		<polygon class="st43" points="1733.89,699.69 1720.35,691.87 1723.71,689.93 1737.25,697.75 		"/>
		<polygon class="st14" points="1745.44,706.36 1738.67,702.45 1742.04,700.51 1748.81,704.42 		"/>
		<polygon class="st14" points="1726,704.24 1712.46,696.43 1715.83,694.48 1729.37,702.3 		"/>
		<polygon class="st14" points="1737.56,710.91 1730.79,707 1734.15,705.06 1740.92,708.97 		"/>
		<polygon class="st14" points="1694.58,722.38 1681.04,714.57 1684.4,712.63 1697.94,720.44 		"/>
		<polygon class="st14" points="1706.13,729.06 1699.36,725.15 1702.73,723.2 1709.5,727.11 		"/>
		<polygon class="st43" points="1686.69,726.94 1673.15,719.12 1676.51,717.18 1690.05,725 		"/>
		<polygon class="st14" points="1698.24,733.61 1691.47,729.7 1694.84,727.76 1701.61,731.67 		"/>
		<polygon class="st14" points="1678.8,731.49 1665.26,723.68 1668.62,721.73 1682.16,729.55 		"/>
		<polygon class="st14" points="1690.35,738.16 1683.58,734.26 1686.95,732.31 1693.72,736.22 		"/>
		<polygon class="st14" points="1670.91,736.05 1657.37,728.23 1660.74,726.29 1674.28,734.11 		"/>
		<polygon class="st14" points="1682.46,742.72 1675.7,738.81 1679.06,736.87 1685.83,740.78 		"/>
		<polygon class="st14" points="1663.17,740.52 1649.63,732.7 1652.99,730.76 1666.53,738.58 		"/>
		<polygon class="st14" points="1674.72,747.19 1667.95,743.28 1671.32,741.34 1678.09,745.25 		"/>
	</g>
</g>
<g>
	<path class="st14" d="M1754.61,665.03l-0.44-0.73l46.5-27.74c1.81-1.08,2.88-2.98,2.86-5.09c-0.02-2.11-1.12-3.99-2.95-5.03
		l-58.62-33.48c-2.11-1.21-3.38-3.38-3.38-5.82c-0.01-2.44,1.25-4.62,3.36-5.83l141.38-81.45c1.67-0.96,2.67-2.69,2.68-4.61
		c0.01-1.93-0.98-3.66-2.64-4.63l-24.24-14.24c-7.5-4.41-12.16-12.55-12.16-21.26V246.28c0-8.43-4.53-16.31-11.81-20.56
		l-23.98-13.98l0.43-0.74l23.98,13.98c7.55,4.4,12.24,12.56,12.24,21.3v208.84c0,8.4,4.5,16.26,11.74,20.52l24.24,14.24
		c1.93,1.13,3.07,3.14,3.06,5.38c-0.01,2.23-1.17,4.23-3.1,5.35l-141.38,81.45c-1.84,1.06-2.94,2.96-2.94,5.09
		c0,2.12,1.11,4.02,2.95,5.07L1801,625.7c2.1,1.2,3.36,3.35,3.38,5.77c0.02,2.41-1.2,4.59-3.28,5.83L1754.61,665.03z"/>
</g>
</svg>
